<?xml version="1.0"?>
<!--Icons from directory "project/svg/ss-icons"-->
<svg xmlns="http://www.w3.org/2000/svg" width="114" height="180" viewBox="0 0 114 180"><svg xmlns:xlink="http://www.w3.org/1999/xlink" version="1.1" id="frown" x="0px" y="0" viewBox="0 0 118.7 95.1" enable-background="new 0 0 118.7 95.1" xml:space="preserve" width="114" height="90"><g>	<g>		<path d="M33,0.7c-19.7,10-37.9,27-31.8,51C6.9,73.9,29.1,90.5,51,94.2c18.5,3.1,40.2-1.9,55-13.5c7-5.5,11.7-13.4,12.6-22.2    c0.9-8.5-3.1-16.8-7.9-23.5c-9.9-13.9-25.6-23.8-41.2-30c-6.9-2.7-13.9-4.3-21.3-4.6c-9.6-0.4-20.4-1.3-29.6,2    c-3,1.1-1.7,5.9,1.3,4.8c9.8-3.5,22-2.4,32.2-1.7c9.2,0.7,18.2,4.7,26.3,8.9c15.7,8.3,36.5,24,35.2,43.9    C112.3,80.4,82.7,88.7,65,89.8C41,91.3,16.4,77.1,7.4,54.5C-1.8,31.3,16.6,14.6,35.5,5C38.4,3.5,35.8-0.8,33,0.7L33,0.7z"/>	</g></g><g>	<g>		<path d="M41.3,22.1c-3.5,3.1-5.4,7.9-3,12.2c2.5,4.4,9.2,5.1,13.6,3.9c4.2-1.1,5.1-5.1,3.5-8.6c-0.8-1.8-2.4-3.5-3.9-4.8    c-0.8-0.7-1.7-1.3-2.6-1.9c-0.4-0.3-0.9-0.5-1.3-0.7c-0.2-0.1-1.8-1-1.3-0.5c0.2,0.6,0.5,1.2,0.7,1.8c0-0.1,0-0.1,0-0.2    c-0.6,0.8-1.2,1.6-1.8,2.4c0.1,0,0.3,0.1,0.4,0.1c3.2,0.3,3.2-4.7,0-5c-0.6-0.1-1.1,0-1.8,0.1c-1,0.2-2,1.4-1.8,2.4    c0.4,3,4.2,3.7,6.3,5.4c0.9,0.8,3.4,3.3,2.8,4.4c-0.3,0.6-2.2,0.6-2.8,0.6c-1.8,0.1-3.9-0.1-5.3-1.3c-2.4-2-0.1-5.2,1.6-6.7    C47.3,23.5,43.7,20,41.3,22.1L41.3,22.1z"/>	</g></g><g>	<g>		<path d="M62.8,23.5c-4.1,1.3-6.1,5-3.9,8.9c1.8,3.3,6.3,5.3,9.8,3.8c4.5-1.9,6-7,3-10.8c-2.6-3.3-7.9-4.9-11.5-2.3    c-1.1,0.8-1.6,2.2-0.9,3.4c0.6,1.1,2.3,1.7,3.4,0.9c2.9-2.1,8,2.6,4.4,4.1c-1.2,0.5-2.8-0.2-3.6-1.2c-0.1-0.2-0.6-1-0.5-0.8    c-0.2-0.4-0.1-0.6-0.1-0.3c0-0.2,0.1-0.3,0.1-0.4c-0.2,0.5,0.3-0.2,0,0.1c0.2-0.3,0.7-0.4,1.1-0.6C67.2,27.4,65.9,22.6,62.8,23.5    L62.8,23.5z"/>	</g></g><g>	<g>		<path d="M39.8,63.4c3.1-4.3,5.8-8.3,11-10.1c4.5-1.5,9.3-2.5,14-2.6c10.8-0.3,8.7,13.2,10.5,20.4c0.8,3.1,5.6,1.8,4.8-1.3    c-2.4-9.9-0.5-22.9-14.1-24.1c-5.7-0.5-12.1,1.2-17.4,3.1c-6.1,2.1-9.5,7.1-13,12.1C33.6,63.5,37.9,66,39.8,63.4L39.8,63.4z"/>	</g></g></svg><svg xmlns:xlink="http://www.w3.org/1999/xlink" version="1.1" id="smile" x="0px" y="90" viewBox="0 0 118.7 95.1" enable-background="new 0 0 118.7 95.1" xml:space="preserve" width="114" height="90"><g>	<g>		<path d="M33,0.7c-19.7,10-37.9,27-31.8,51C6.9,73.9,29.1,90.5,51,94.2c18.5,3.1,40.2-1.9,55-13.5c7-5.5,11.7-13.4,12.6-22.2    c0.9-8.5-3.1-16.8-7.9-23.5c-9.9-13.9-25.6-23.8-41.2-30c-6.9-2.7-13.9-4.3-21.3-4.6c-9.6-0.4-20.4-1.3-29.6,2    c-3,1.1-1.7,5.9,1.3,4.8c9.8-3.5,22-2.4,32.2-1.7c9.2,0.7,18.2,4.7,26.3,8.9c15.7,8.3,36.5,24,35.2,43.9    C112.3,80.4,82.7,88.7,65,89.8C41,91.3,16.4,77.1,7.4,54.5C-1.8,31.3,16.6,14.6,35.5,5C38.4,3.5,35.8-0.8,33,0.7L33,0.7z"/>	</g></g><g>	<g>		<path d="M41.3,22.1c-3.5,3.1-5.4,7.9-3,12.2c2.5,4.4,9.2,5.1,13.6,3.9c4.2-1.1,5.1-5.1,3.5-8.6c-0.8-1.8-2.4-3.5-3.9-4.8    c-0.8-0.7-1.7-1.3-2.6-1.9c-0.4-0.3-0.9-0.5-1.3-0.7c-0.2-0.1-1.8-1-1.3-0.5c0.2,0.6,0.5,1.2,0.7,1.8c0-0.1,0-0.1,0-0.2    c-0.6,0.8-1.2,1.6-1.8,2.4c0.1,0,0.3,0.1,0.4,0.1c3.2,0.3,3.2-4.7,0-5c-0.6-0.1-1.1,0-1.8,0.1c-1,0.2-2,1.4-1.8,2.4    c0.4,3,4.2,3.7,6.3,5.4c0.9,0.8,3.4,3.3,2.8,4.4c-0.3,0.6-2.2,0.6-2.8,0.6c-1.8,0.1-3.9-0.1-5.3-1.3c-2.4-2-0.1-5.2,1.6-6.7    C47.3,23.5,43.7,20,41.3,22.1L41.3,22.1z"/>	</g></g><g>	<g>		<path d="M62.8,23.5c-4.1,1.3-6.1,5-3.9,8.9c1.8,3.3,6.3,5.3,9.8,3.8c4.5-1.9,6-7,3-10.8c-2.6-3.3-7.9-4.9-11.5-2.3    c-1.1,0.8-1.6,2.2-0.9,3.4c0.6,1.1,2.3,1.7,3.4,0.9c2.9-2.1,8,2.6,4.4,4.1c-1.2,0.5-2.8-0.2-3.6-1.2c-0.1-0.2-0.6-1-0.5-0.8    c-0.2-0.4-0.1-0.6-0.1-0.3c0-0.2,0.1-0.3,0.1-0.4c-0.2,0.5,0.3-0.2,0,0.1c0.2-0.3,0.7-0.4,1.1-0.6C67.2,27.4,65.9,22.6,62.8,23.5    L62.8,23.5z"/>	</g></g><g>	<g>		<path d="M37.3,54.5c3.4,9,12.6,17.8,22.5,18.8C70.3,74.4,78,60.2,80.4,51.9c0.4-1.4-0.5-2.6-1.7-3.1c-6.1-2.5-50.1-11.2-44.8,3.6    c1.1,3,5.9,1.7,4.8-1.3C37.4,47.6,55,49.4,57,49.6c6.6,0.8,14.2,1.5,20.4,4c-0.6-1-1.2-2.1-1.7-3.1c-2,6.6-7.1,16.7-14.8,17.7    c-7.5,1-16.3-8.8-18.7-15.1C41,50.2,36.1,51.5,37.3,54.5L37.3,54.5z"/>	</g></g></svg></svg>
