<?xml version="1.0" encoding="utf-8"?>
<!-- Generator: Adobe Illustrator 18.1.1, SVG Export Plug-In . SVG Version: 6.00 Build 0)  -->
<!DOCTYPE svg PUBLIC "-//W3C//DTD SVG 1.1//EN" "http://www.w3.org/Graphics/SVG/1.1/DTD/svg11.dtd">
<svg version="1.1" id="Layer_1" xmlns="http://www.w3.org/2000/svg" xmlns:xlink="http://www.w3.org/1999/xlink" x="0px" y="0px"
	 viewBox="0 0 1120 864" enable-background="new 0 0 1120 864" xml:space="preserve">
<g>
	<path fill="#120D0D" d="M335.2,504.7c-30.9,0-55.9,25-55.9,55.9c0,30.9,25,56.1,55.9,56.1s56.1-25.2,56.1-56.1
		C391.3,529.7,366.3,504.7,335.2,504.7z"/>
	<path fill="#120D0D" d="M559.5,504.7c-30.9,0-56.1,25-56.1,55.9c0,30.9,25.2,56.1,56.1,56.1c30.9,0,55.9-25.2,55.9-56.1
		C615.5,529.7,590.4,504.7,559.5,504.7z"/>
	<path fill="#120D0D" d="M559.5,245.4c-30.9,0-56.1,25.2-56.1,56.1s25.2,56.1,56.1,56.1c30.9,0,55.9-25.2,55.9-56.1
		S590.4,245.4,559.5,245.4z"/>
	<path fill="#120D0D" d="M783.6,504.7c-30.9,0-56.1,25-56.1,55.9c0,30.9,25.2,56.1,56.1,56.1c30.9,0,56.1-25.2,56.1-56.1
		C839.7,529.7,814.5,504.7,783.6,504.7z"/>
</g>
</svg>
