<?xml version="1.0" encoding="utf-8"?>
<!-- Generator: Adobe Illustrator 18.1.1, SVG Export Plug-In . SVG Version: 6.00 Build 0)  -->
<!DOCTYPE svg PUBLIC "-//W3C//DTD SVG 1.1//EN" "http://www.w3.org/Graphics/SVG/1.1/DTD/svg11.dtd">
<svg version="1.1" id="Layer_1" xmlns="http://www.w3.org/2000/svg" xmlns:xlink="http://www.w3.org/1999/xlink" x="0px" y="0px"
	 viewBox="0 0 1120 864" enable-background="new 0 0 1120 864" xml:space="preserve">
<path d="M560,207.3c-69.8,0-126.5,56.6-126.5,126.4v196.6c0,69.8,56.7,126.4,126.5,126.4c69.8,0,126.4-56.6,126.4-126.4V333.7
	C686.5,263.8,629.9,207.3,560,207.3L560,207.3z M658.3,530.3c0,54.3-44,98.4-98.3,98.4c-54.3,0-98.4-44-98.4-98.4V333.7
	c0-54.3,44-98.4,98.4-98.4c54.2,0,98.3,44,98.3,98.4V530.3z M560,277.5c-7.8,0-14.1,6.3-14.1,14.1v70.2c0,7.7,6.3,14,14.1,14
	c7.7,0,14-6.2,14-14v-70.2C574,283.8,567.8,277.5,560,277.5L560,277.5z M560,277.5"/>
</svg>
