<?xml version="1.0" encoding="utf-8"?>
<!-- Generator: Adobe Illustrator 18.1.1, SVG Export Plug-In . SVG Version: 6.00 Build 0)  -->
<!DOCTYPE svg PUBLIC "-//W3C//DTD SVG 1.1//EN" "http://www.w3.org/Graphics/SVG/1.1/DTD/svg11.dtd">
<svg version="1.1" id="Layer_1" xmlns="http://www.w3.org/2000/svg" xmlns:xlink="http://www.w3.org/1999/xlink" x="0px" y="0px"
	 viewBox="0 0 1120 864" enable-background="new 0 0 1120 864" xml:space="preserve">
<path d="M602.7,652.5c-56.9,0-69.8-17-101.9-70.8l-1.5-4.8l-76.4-129.2c-5.1-4.8-8.3-12.7-8.3-21.1c0-8.4,3.3-16.2,9.2-22.1
	c11.8-11.8,32.5-11.8,44.3,0l19.5,19.5V294c0-17.3,14-31.3,31.3-31.3c17.3,0,31.3,14,31.3,31.3v108.9c5.5-4.8,12.6-7.7,20.5-7.7
	c10.7,0,20.2,5.4,25.9,13.7c5.6-8.3,15.1-13.7,25.9-13.7c12.7,0,23.7,7.6,28.6,18.5c5.7-6.3,14-10.3,23.2-10.3
	c17.3,0,31.3,14,31.3,31.3v143.9c0,25.1-9,44.1-26.9,56.4C661.5,646.8,636.7,652.5,602.7,652.5z M519.2,573.4
	c29.7,49.6,37.3,59.1,83.5,59.1c29.4,0,51.1-4.7,64.4-13.8c12.5-8.6,18.3-21.3,18.3-39.9V434.8c0-6.2-5-11.2-11.2-11.2
	c-6.2,0-11.2,5-11.2,11.2c0,8.1-6.6,14.6-14.6,14.6c-8.1,0-14.6-6.6-14.6-14.6v-8.3c0-6.2-5-11.2-11.2-11.2s-11.3,5-11.3,11.2
	c0,8.1-6.5,14.6-14.6,14.6c-8.1,0-14.6-6.6-14.6-14.6c0-6.2-5-11.2-11.2-11.2c-6.2,0-11.2,5-11.3,11.3c0,8.1-6.6,14.6-14.6,14.6
	c-8.1,0-14.6-6.6-14.6-14.6V294c0-6.2-5-11.2-11.2-11.2c-6.2,0-11.3,5-11.3,11.2v143c0,6-3.6,11.3-9.1,13.5
	c-5.2,2.2-11.7,0.9-15.9-3.2l-28.8-28.8c-4.3-4.3-11.6-4.3-15.9,0c-2.1,2.1-3.3,4.9-3.3,7.9c0,3,1.2,5.8,3.3,8l2.2,2.9l77.1,130.4
	C518.3,569.6,519,571.5,519.2,573.4z"/>
<path d="M518.8,211.5c-39.4,0-71.5,32.1-71.5,71.5c0,29.5,17.9,54.8,43.4,65.7c-0.4-1.7-0.5-3.3-0.5-5v-10.4c0-2.4,0.4-4.7,1.1-6.9
	c-14.3-9.1-23.9-25.1-23.9-43.3c0-28.4,23.1-51.4,51.4-51.4c28.3,0,51.4,23.1,51.4,51.4c0,19.9-11.5,37-28.1,45.6
	c0.3,1.5,0.5,3.1,0.5,4.7v10.4c0,2.4-0.4,4.6-1,6.7c28.2-9.6,48.6-36,48.6-67.4C590.3,243.6,558.2,211.5,518.8,211.5z"/>
</svg>
