<svg xmlns="http://www.w3.org/2000/svg" viewBox="0 0 1120 864"><g fill="#120D0D"><path d="M335.2 504.7c-30.9 0-55.9 25-55.9 55.9s25 56.1 55.9 56.1 56.1-25.2 56.1-56.1c0-30.9-25-55.9-56.1-55.9zM559.5 504.7c-30.9 0-56.1 25-56.1 55.9s25.2 56.1 56.1 56.1c30.9 0 55.9-25.2 55.9-56.1.1-30.9-25-55.9-55.9-55.9zM559.5 245.4c-30.9 0-56.1 25.2-56.1 56.1s25.2 56.1 56.1 56.1c30.9 0 55.9-25.2 55.9-56.1s-25-56.1-55.9-56.1zM783.6 504.7c-30.9 0-56.1 25-56.1 55.9s25.2 56.1 56.1 56.1c30.9 0 56.1-25.2 56.1-56.1 0-30.9-25.2-55.9-56.1-55.9z"/></g></svg>