<svg xmlns="http://www.w3.org/2000/svg" viewBox="0 0 1120 864"><path d="M602.7 652.5c-56.9 0-69.8-17-101.9-70.8l-1.5-4.8-76.4-129.2c-5.1-4.8-8.3-12.7-8.3-21.1 0-8.4 3.3-16.2 9.2-22.1 11.8-11.8 32.5-11.8 44.3 0l19.5 19.5V294c0-17.3 14-31.3 31.3-31.3s31.3 14 31.3 31.3v108.9c5.5-4.8 12.6-7.7 20.5-7.7 10.7 0 20.2 5.4 25.9 13.7 5.6-8.3 15.1-13.7 25.9-13.7 12.7 0 23.7 7.6 28.6 18.5 5.7-6.3 14-10.3 23.2-10.3 17.3 0 31.3 14 31.3 31.3v143.9c0 25.1-9 44.1-26.9 56.4-17.2 11.8-42 17.5-76 17.5zm-83.5-79.1c29.7 49.6 37.3 59.1 83.5 59.1 29.4 0 51.1-4.7 64.4-13.8 12.5-8.6 18.3-21.3 18.3-39.9v-144c0-6.2-5-11.2-11.2-11.2-6.2 0-11.2 5-11.2 11.2 0 8.1-6.6 14.6-14.6 14.6-8.1 0-14.6-6.6-14.6-14.6v-8.3c0-6.2-5-11.2-11.2-11.2s-11.3 5-11.3 11.2c0 8.1-6.5 14.6-14.6 14.6s-14.6-6.6-14.6-14.6c0-6.2-5-11.2-11.2-11.2-6.2 0-11.2 5-11.3 11.3 0 8.1-6.6 14.6-14.6 14.6-8.1 0-14.6-6.6-14.6-14.6V294c0-6.2-5-11.2-11.2-11.2-6.2 0-11.3 5-11.3 11.2v143c0 6-3.6 11.3-9.1 13.5-5.2 2.2-11.7.9-15.9-3.2l-28.8-28.8c-4.3-4.3-11.6-4.3-15.9 0-2.1 2.1-3.3 4.9-3.3 7.9s1.2 5.8 3.3 8l2.2 2.9 77.1 130.4c.8 1.9 1.5 3.8 1.7 5.7z"/><path d="M518.8 211.5c-39.4 0-71.5 32.1-71.5 71.5 0 29.5 17.9 54.8 43.4 65.7-.4-1.7-.5-3.3-.5-5v-10.4c0-2.4.4-4.7 1.1-6.9-14.3-9.1-23.9-25.1-23.9-43.3 0-28.4 23.1-51.4 51.4-51.4 28.3 0 51.4 23.1 51.4 51.4 0 19.9-11.5 37-28.1 45.6.3 1.5.5 3.1.5 4.7v10.4c0 2.4-.4 4.6-1 6.7 28.2-9.6 48.6-36 48.6-67.4.1-39.5-32-71.6-71.4-71.6z"/></svg>