<svg xmlns="http://www.w3.org/2000/svg" width="114" height="180" viewBox="0 0 114 180"><svg xmlns:xlink="http://www.w3.org/1999/xlink" viewBox="0 0 118.7 95.1" enable-background="new 0 0 118.7 95.1" width="114" height="90"><path d="M33 .7c-19.7 10-37.9 27-31.8 51C6.9 73.9 29.1 90.5 51 94.2c18.5 3.1 40.2-1.9 55-13.5 7-5.5 11.7-13.4 12.6-22.2.9-8.5-3.1-16.8-7.9-23.5-9.9-13.9-25.6-23.8-41.2-30C62.6 2.3 55.6.7 48.2.4c-9.6-.4-20.4-1.3-29.6 2-3 1.1-1.7 5.9 1.3 4.8 9.8-3.5 22-2.4 32.2-1.7 9.2.7 18.2 4.7 26.3 8.9 15.7 8.3 36.5 24 35.2 43.9-1.3 22.1-30.9 30.4-48.6 31.5-24 1.5-48.6-12.7-57.6-35.3C-1.8 31.3 16.6 14.6 35.5 5c2.9-1.5.3-5.8-2.5-4.3zM41.3 22.1c-3.5 3.1-5.4 7.9-3 12.2 2.5 4.4 9.2 5.1 13.6 3.9 4.2-1.1 5.1-5.1 3.5-8.6-.8-1.8-2.4-3.5-3.9-4.8-.8-.7-1.7-1.3-2.6-1.9-.4-.3-.9-.5-1.3-.7-.2-.1-1.8-1-1.3-.5.2.6.5 1.2.7 1.8v-.2l-1.8 2.4c.1 0 .3.1.4.1 3.2.3 3.2-4.7 0-5-.6-.1-1.1 0-1.8.1-1 .2-2 1.4-1.8 2.4.4 3 4.2 3.7 6.3 5.4.9.8 3.4 3.3 2.8 4.4-.3.6-2.2.6-2.8.6-1.8.1-3.9-.1-5.3-1.3-2.4-2-.1-5.2 1.6-6.7 2.7-2.2-.9-5.7-3.3-3.6zM62.8 23.5c-4.1 1.3-6.1 5-3.9 8.9 1.8 3.3 6.3 5.3 9.8 3.8 4.5-1.9 6-7 3-10.8-2.6-3.3-7.9-4.9-11.5-2.3-1.1.8-1.6 2.2-.9 3.4.6 1.1 2.3 1.7 3.4.9 2.9-2.1 8 2.6 4.4 4.1-1.2.5-2.8-.2-3.6-1.2-.1-.2-.6-1-.5-.8-.2-.4-.1-.6-.1-.3 0-.2.1-.3.1-.4-.2.5.3-.2 0 .1.2-.3.7-.4 1.1-.6 3.1-.9 1.8-5.7-1.3-4.8zM39.8 63.4c3.1-4.3 5.8-8.3 11-10.1 4.5-1.5 9.3-2.5 14-2.6 10.8-.3 8.7 13.2 10.5 20.4.8 3.1 5.6 1.8 4.8-1.3-2.4-9.9-.5-22.9-14.1-24.1-5.7-.5-12.1 1.2-17.4 3.1-6.1 2.1-9.5 7.1-13 12.1-2 2.6 2.3 5.1 4.2 2.5z"/></svg><svg xmlns:xlink="http://www.w3.org/1999/xlink" y="90" viewBox="0 0 118.7 95.1" enable-background="new 0 0 118.7 95.1" width="114" height="90"><path d="M33 .7c-19.7 10-37.9 27-31.8 51C6.9 73.9 29.1 90.5 51 94.2c18.5 3.1 40.2-1.9 55-13.5 7-5.5 11.7-13.4 12.6-22.2.9-8.5-3.1-16.8-7.9-23.5-9.9-13.9-25.6-23.8-41.2-30C62.6 2.3 55.6.7 48.2.4c-9.6-.4-20.4-1.3-29.6 2-3 1.1-1.7 5.9 1.3 4.8 9.8-3.5 22-2.4 32.2-1.7 9.2.7 18.2 4.7 26.3 8.9 15.7 8.3 36.5 24 35.2 43.9-1.3 22.1-30.9 30.4-48.6 31.5-24 1.5-48.6-12.7-57.6-35.3C-1.8 31.3 16.6 14.6 35.5 5c2.9-1.5.3-5.8-2.5-4.3zM41.3 22.1c-3.5 3.1-5.4 7.9-3 12.2 2.5 4.4 9.2 5.1 13.6 3.9 4.2-1.1 5.1-5.1 3.5-8.6-.8-1.8-2.4-3.5-3.9-4.8-.8-.7-1.7-1.3-2.6-1.9-.4-.3-.9-.5-1.3-.7-.2-.1-1.8-1-1.3-.5.2.6.5 1.2.7 1.8v-.2l-1.8 2.4c.1 0 .3.1.4.1 3.2.3 3.2-4.7 0-5-.6-.1-1.1 0-1.8.1-1 .2-2 1.4-1.8 2.4.4 3 4.2 3.7 6.3 5.4.9.8 3.4 3.3 2.8 4.4-.3.6-2.2.6-2.8.6-1.8.1-3.9-.1-5.3-1.3-2.4-2-.1-5.2 1.6-6.7 2.7-2.2-.9-5.7-3.3-3.6zM62.8 23.5c-4.1 1.3-6.1 5-3.9 8.9 1.8 3.3 6.3 5.3 9.8 3.8 4.5-1.9 6-7 3-10.8-2.6-3.3-7.9-4.9-11.5-2.3-1.1.8-1.6 2.2-.9 3.4.6 1.1 2.3 1.7 3.4.9 2.9-2.1 8 2.6 4.4 4.1-1.2.5-2.8-.2-3.6-1.2-.1-.2-.6-1-.5-.8-.2-.4-.1-.6-.1-.3 0-.2.1-.3.1-.4-.2.5.3-.2 0 .1.2-.3.7-.4 1.1-.6 3.1-.9 1.8-5.7-1.3-4.8zM37.3 54.5c3.4 9 12.6 17.8 22.5 18.8C70.3 74.4 78 60.2 80.4 51.9c.4-1.4-.5-2.6-1.7-3.1-6.1-2.5-50.1-11.2-44.8 3.6 1.1 3 5.9 1.7 4.8-1.3-1.3-3.5 16.3-1.7 18.3-1.5 6.6.8 14.2 1.5 20.4 4-.6-1-1.2-2.1-1.7-3.1-2 6.6-7.1 16.7-14.8 17.7-7.5 1-16.3-8.8-18.7-15.1-1.2-2.9-6.1-1.6-4.9 1.4z"/></svg></svg>