<?xml version="1.0" standalone="no"?>
<!DOCTYPE svg PUBLIC "-//W3C//DTD SVG 1.1//EN" "http://www.w3.org/Graphics/SVG/1.1/DTD/svg11.dtd" >
<svg xmlns="http://www.w3.org/2000/svg" xmlns:xlink="http://www.w3.org/1999/xlink" version="1.1">
<metadata></metadata>
<defs>
<font id="monostenb" horiz-adv-x="1269" >
<font-face units-per-em="2048" ascent="1536" descent="-512" />
<missing-glyph horiz-adv-x="500" />
<glyph horiz-adv-x="0" />
<glyph unicode="&#xd;" />
<glyph unicode=" " />
<glyph unicode="!" d="M469 166q0 72 48 119t118 47t118 -47t48 -119t-48 -119t-118 -47t-118 47t-48 119zM508 1317q4 137 127 137t127 -137l-37 -739q-4 -109 -90 -109t-90 109z" />
<glyph unicode="&#x22;" d="M326 1276q0 178 122.5 178t122.5 -178q0 -111 -39.5 -273.5t-82.5 -162.5t-83 162.5t-40 273.5zM715 1276q0 178 123 178t123 -178q0 -111 -40 -273.5t-83 -162.5t-83 162.5t-40 273.5z" />
<glyph unicode="#" d="M100 491.5q0 40.5 29 66.5t72 26h137l43 266h-180q-43 0 -72 25.5t-29 66.5t29 66.5t72 25.5h211l49 299q6 43 36.5 72t71.5 29q37 0 57.5 -22.5t20.5 -57.5q0 -8 -2 -21l-201 -1233q-6 -43 -36.5 -71.5t-71.5 -28.5q-78 0 -78 80q0 8 2 20l49 299h-108q-43 0 -72 26 t-29 66.5zM565 80q0 8 2 20l201 1233q6 43 37 72t72 29q37 0 57 -22.5t20 -57.5q0 -8 -2 -21l-49 -299h121q43 0 71.5 -25.5t28.5 -66.5t-28.5 -66.5t-71.5 -25.5h-152l-43 -266h195q43 0 71.5 -26t28.5 -66.5t-28.5 -66.5t-71.5 -26h-223l-49 -299q-6 -43 -37 -71.5 t-72 -28.5q-78 0 -78 80z" />
<glyph unicode="$" d="M76 315q0 43 29.5 72t68.5 29q55 0 88 -54q55 -92 123 -139t174 -59v1341q0 92 76 92t76 -92v-55q231 -27 348 -217q27 -45 26 -84q0 -45 -30.5 -73.5t-69.5 -28.5q-59 0 -88 59q-66 137 -186 164v-1342q0 -92 -76 -92t-76 92v56q-311 27 -461 260q-23 35 -22 71z M127 1042q0 143 78 239.5t207 139.5v-198q-88 -59 -88 -181q0 -80 88 -129v-204q-135 47 -210 121.5t-75 211.5zM858 18v199q82 59 82 180q0 100 -82 162v209q279 -113 279 -367q0 -141 -77 -238t-202 -145z" />
<glyph unicode="%" d="M41 1134.5q0 122.5 72.5 210t191.5 105.5v-135q-55 -16 -85 -64t-30 -116q0 -141 115 -177v-135q-119 16 -191.5 102.5t-72.5 209zM123 401q0 37 37 62l860 600q25 18 47 18q27 0 45 -21.5t18 -45.5q0 -39 -36 -64l-861 -600q-25 -18 -47 -18q-29 0 -46 21.5t-17 47.5z M416 823v135q55 14 87 62.5t32 114t-32 114.5t-87 66v135q121 -18 194.5 -105.5t73.5 -210t-73.5 -208.5t-194.5 -103zM594 295q0 123 72.5 210t191.5 105v-135q-55 -16 -85 -64t-30 -116q0 -141 115 -176v-135q-119 16 -191.5 102t-72.5 209zM969 -16v135q55 14 86.5 62 t31.5 113.5t-31.5 115t-86.5 65.5v135q121 -18 194.5 -105t73.5 -210t-73.5 -209t-194.5 -102z" />
<glyph unicode="&#x26;" d="M78 403q0 125 62.5 228.5t168.5 163.5q-150 109 -149 292q0 133 86 234.5t217 126.5v-180q-51 -23 -83 -71t-32 -109.5t32 -108.5t83 -70v-241q-84 -25 -136.5 -97.5t-52.5 -167.5q0 -92 51.5 -154.5t137.5 -86.5v-180q-168 25 -276.5 141.5t-108.5 279.5zM606 -20v180 q170 14 244 92l-244 422v235l21 11q94 55 94 167q0 61 -32 109.5t-83 71.5v180q131 -25 217 -126t86 -235q0 -190 -159 -299l208 -358q37 98 37 215q0 39 24.5 64.5t63.5 25.5t63.5 -25.5t24.5 -64.5q0 -223 -106 -395l63 -111q14 -27 15 -51q0 -37 -28 -62.5t-64 -25.5 q-51 0 -80 47l-29 51q-125 -104 -336 -118z" />
<glyph unicode="'" d="M510 1276q0 178 123 178t123 -178q0 -111 -40 -273.5t-83 -162.5t-83 162.5t-40 273.5z" />
<glyph unicode="(" d="M389 614.5q0 565.5 295 909.5q33 37 72 37q37 0 64.5 -27t27.5 -64q0 -35 -23 -65q-252 -295 -252 -790.5t252 -790.5q23 -31 23 -66q0 -37 -27.5 -63.5t-64.5 -26.5q-43 0 -72 37q-295 344 -295 909.5z" />
<glyph unicode=")" d="M389 -242q0 35 23 66q252 295 252 790.5t-252 790.5q-23 31 -23 65q0 37 27.5 64t64.5 27q39 0 72 -37q295 -344 295 -909.5t-295 -909.5q-29 -37 -72 -37q-37 0 -64.5 26.5t-27.5 63.5z" />
<glyph unicode="*" d="M201 711q0 49 57 82l223 129l-223 129q-57 33 -57 82q0 33 21.5 55t56.5 22q30 0 61 -18l223 -129v258q0 43 21.5 71.5t60.5 28.5t60.5 -28.5t21.5 -71.5v-258l223 129q31 18 62 18q35 0 56.5 -22.5t21.5 -54.5q0 -49 -58 -82l-223 -129l223 -129q57 -33 58 -82 q0 -33 -21.5 -55.5t-56.5 -22.5q-31 0 -62 18l-223 129v-258q0 -43 -21.5 -71.5t-60.5 -28.5t-60.5 28.5t-21.5 71.5v258l-223 -129q-31 -18 -61 -18q-35 0 -56.5 22.5t-21.5 55.5z" />
<glyph unicode="+" d="M119 616q0 86 104 86h328v326q0 104 86 104.5t86 -104.5v-326h328q104 0 104 -86t-104 -86h-328v-327q0 -104 -86 -104.5t-86 104.5v327h-328q-104 0 -104 86z" />
<glyph unicode="," d="M459 -195q0 33 26 54q47 29 58.5 60t11.5 99q-86 45 -86 146q0 72 48 120t118 48t119 -49.5t49 -118.5v-14q-6 -158 -207 -361q-41 -41 -80 -41q-16 0 -35 14q-23 16 -22 43z" />
<glyph unicode="-" d="M213 616q0 86 104 86h639q104 0 104.5 -86t-104.5 -86h-639q-104 0 -104 86z" />
<glyph unicode="." d="M469 166q0 72 48 119t118 47t118 -47t48 -119t-48 -119t-118 -47t-118 47t-48 119z" />
<glyph unicode="/" d="M37 90q0 25 20 51l969 1258q27 35 61 35q33 0 66 -29t33 -64q0 -25 -21 -51l-968 -1255q-27 -35 -62 -35q-33 0 -65.5 27.5t-32.5 62.5z" />
<glyph unicode="0" d="M180 459v516q0 195 99.5 323.5t285.5 151.5v-168q-197 -37 -196 -291v-549q0 -106 52 -192t144 -98v-168q-186 20 -285.5 149t-99.5 326zM512 432v268l250 308v-269zM709 -16v168q196 36 196 290v549q0 242 -196 291v168q184 -23 284.5 -153t100.5 -322v-516 q0 -195 -99.5 -324t-285.5 -151z" />
<glyph unicode="1" d="M209 1077q0 57 51 92l358 234q41 31 74 31q25 0 43 -9q47 -20 47 -100v-1157h265q111 0 110.5 -84t-110.5 -84h-713q-111 0 -111 84t111 84h260v987l-217 -137q-45 -31 -80 -31q-39 0 -63.5 25.5t-24.5 64.5z" />
<glyph unicode="2" d="M182 115v53q0 94 34 177t100.5 151.5t128 117t149.5 103.5q135 86 205.5 165t70.5 175q0 104 -55 166.5t-168 62.5q-109 0 -170 -65.5t-69 -163.5q-6 -111 -95 -111q-45 0 -69.5 32t-24.5 79q0 176 128 286.5t300 110.5q186 0 299 -105.5t113 -291.5q0 -147 -98.5 -258 t-272.5 -226q-154 -100 -237.5 -195t-83.5 -210h628q102 0 102 -84t-102 -84h-702q-47 0 -79 34t-32 81z" />
<glyph unicode="3" d="M127 430q0 104 94 105q51 0 74.5 -25t28.5 -80q23 -283 290 -283q143 0 216 78t73 205q0 256 -282 256h-66q-109 0 -109 84t109 84h53q111 0 176.5 57.5t65.5 153.5q0 221 -248 221q-98 0 -159.5 -59.5t-77.5 -159.5q-16 -109 -99 -109q-45 0 -71.5 31t-26.5 78 q0 162 122 274.5t312 112.5q207 0 321.5 -98.5t114.5 -290.5q0 -106 -53 -185t-135 -98q113 -41 177.5 -134t64.5 -218q0 -205 -133.5 -327.5t-344.5 -122.5t-349 124.5t-138 325.5z" />
<glyph unicode="4" d="M82 430q0 37 18 64l478 702v-303l-244 -369h244v-188h-385q-74 0 -99 43q-12 25 -12 51zM721 111v1290q35 53 94 53q33 0 62 -18q33 -23 32 -99v-813h138q104 0 104 -94q0 -45 -27.5 -69.5t-76.5 -24.5h-138v-225q0 -47 -25.5 -79t-70.5 -32t-68.5 31t-23.5 80z" />
<glyph unicode="5" d="M156 395q0 102 92 103q47 0 69.5 -22.5t30.5 -80.5q41 -248 273 -248q141 0 211.5 89.5t70.5 242.5q0 141 -73.5 220t-208.5 79q-147 0 -275 -114q-27 -23 -61 -23q-39 0 -67 25.5t-28 78.5q0 10 3 25l77 569q6 41 38 68t73 27h555q98 0 98 -84t-98 -84h-504l-49 -385 q29 25 102.5 45t135.5 20q201 0 336 -122t135 -345t-128 -361t-343 -138q-199 0 -332 116.5t-133 298.5z" />
<glyph unicode="6" d="M168 510v399q0 244 138 394.5t360 150.5q297 0 428 -221q20 -35 20 -68q0 -41 -28.5 -67.5t-65.5 -26.5q-57 0 -90 62q-80 154 -264 153q-147 0 -228.5 -109.5t-81.5 -287.5v-86q18 43 82 85t144 56v-168q-111 -20 -168.5 -103t-57.5 -208q0 -127 57.5 -211t168.5 -102 v-168q-195 23 -304.5 159t-109.5 367zM725 -16v168q111 20 168 104t57 209q0 127 -57 209t-168 102v168q186 -23 300 -147.5t114 -331.5q0 -199 -114 -329t-300 -152z" />
<glyph unicode="7" d="M133.5 1350q-0.5 84 104.5 84h759q49 0 79 -27t30 -70q0 -14 -6 -30l-504 -1233q-25 -74 -100 -74q-80 0 -80 78q0 32 14 67l455 1121h-647q-104 0 -104.5 84z" />
<glyph unicode="8" d="M160 420q0 244 180 354q-137 88 -137 293q0 162 98 264.5t262 118.5v-172q-86 -18 -131 -74.5t-45 -136.5t45 -135t131 -74v-172q-100 -20 -157.5 -94t-57.5 -172q0 -100 56.5 -174t158.5 -94v-168q-176 18 -289.5 137t-113.5 299zM707 -16v168q100 20 157.5 95t57.5 173 q0 100 -56.5 173t-158.5 93v172q86 18 131 73.5t45 135.5t-45 136.5t-131 74.5v172q164 -16 262 -118.5t98 -264.5q0 -205 -137 -293q180 -111 180 -354q0 -180 -113.5 -298t-289.5 -138z" />
<glyph unicode="9" d="M162 969q0 199 113.5 328.5t299.5 152.5v-168q-111 -20 -168 -104t-57 -209q0 -127 57 -209.5t168 -102.5v-168q-186 23 -299.5 148t-113.5 332zM186 268q0 41 29 67.5t66 26.5q57 0 90 -61q80 -154 264 -154q147 0 228 110t81 288v86q-18 -43 -81.5 -85.5t-143.5 -56.5 v168q111 20 168 103.5t57 208.5q0 127 -57.5 211t-167.5 102v168q195 -23 304.5 -159t109.5 -367v-400q0 -244 -138.5 -394t-359.5 -150q-297 0 -428 221q-20 35 -21 67z" />
<glyph unicode=":" d="M469 166q0 72 48 119t118 47t118 -47t48 -119t-48 -119t-118 -47t-118 47t-48 119zM469 878.5q0 71.5 48 118.5t118 47t118 -47t48 -118.5t-48 -118.5t-118 -47t-118 47t-48 118.5z" />
<glyph unicode=";" d="M459 -195q0 33 26 54q47 29 58.5 60t11.5 99q-86 45 -86 146q0 72 48 120t118 48t119 -49.5t49 -118.5v-14q-6 -158 -207 -361q-41 -41 -80 -41q-16 0 -35 14q-23 16 -22 43zM469 878.5q0 71.5 48 118.5t118 47t118 -47t48 -118.5t-48 -118.5t-118 -47t-118 47t-48 118.5 z" />
<glyph unicode="&#x3c;" d="M157.5 524q0.5 45 32.5 66l670 442q25 16 53 17q35 0 55.5 -24t20.5 -56q0 -47 -45 -78l-557 -367l557 -366q45 -31 45 -78q0 -33 -20.5 -56.5t-55.5 -23.5q-28 0 -53 16l-670 443q-33 20 -32.5 65z" />
<glyph unicode="=" d="M119 473q0 86 104 86h826q104 0 104 -86t-104 -86h-826q-104 0 -104 86zM119 862q0 86 104 86h826q104 0 104 -86t-104 -86h-826q-104 0 -104 86z" />
<glyph unicode="&#x3e;" d="M158 80q0 47 45 78l557 366l-557 367q-45 31 -45 78q0 33 20.5 56.5t54.5 23.5q29 0 54 -17l669 -442q33 -20 33 -65.5t-33 -65.5l-669 -443q-25 -16 -54 -16q-35 0 -55 23.5t-20 56.5z" />
<glyph unicode="?" d="M233 1110q0 135 110 239.5t292 104.5q170 0 285.5 -92t115.5 -258q0 -63 -22.5 -114.5t-57.5 -83.5l-74 -68l-75 -70q-35 -33 -57.5 -85t-22.5 -116q0 -98 -92 -98t-92 98q0 76 31.5 143.5t76.5 117t91 92.5t78 90t32 94q0 98 -60.5 151.5t-156.5 53.5q-113 0 -165 -57.5 t-52 -147.5q0 -35 -26.5 -55.5t-65.5 -20.5q-92 0 -93 82zM469 166q0 72 48 119t118 47t118 -47t48 -119t-48 -119t-118 -47t-118 47t-48 119z" />
<glyph unicode="@" d="M61 547q0 332 179.5 536.5t482.5 204.5q197 0 316.5 -99t119.5 -271v-633q0 -104 -80 -105q-76 0 -86 84q-47 -74 -131 -92v164q117 41 117 211q0 164 -117 211v164q74 -14 117 -64v33q0 242 -256 242q-231 0 -356 -156t-125 -430q0 -260 141 -423t377 -163q141 0 244 51 q27 14 53 15q33 0 51 -19.5t18 -50.5q0 -55 -61 -88q-121 -63 -305 -64q-324 0 -511.5 208t-187.5 534zM432 547q0 145 82 248.5t213 126.5v-164q-115 -47 -115 -211t115 -211v-164q-129 25 -212 125t-83 250z" />
<glyph unicode="A" d="M82 98q0 23 8 47l367 967l100 -276l-84 -244h176l64 -180h-307l-136 -344q-27 -68 -90 -68q-45 0 -71.5 26.5t-26.5 71.5zM539 1323l8 23q31 88 88 88q25 0 43 -15.5t25.5 -30t19.5 -42.5l457 -1201q8 -25 8 -47q0 -45 -26.5 -71.5t-71.5 -26.5q-64 0 -91 68z" />
<glyph unicode="B" d="M195 111v1212q0 47 31.5 79t78.5 32h86v-1434h-84q-49 0 -80.5 31.5t-31.5 79.5zM539 0v180h239q209 0 209 221q0 233 -223 234h-225v180h161q106 0 160.5 57.5t54.5 155.5t-54 161.5t-161 63.5h-161v181h174q170 0 284.5 -107.5t114.5 -298.5q0 -109 -48 -182.5 t-118 -106.5q104 -35 171 -124t67 -207q0 -174 -110.5 -291t-280.5 -117h-254z" />
<glyph unicode="C" d="M106 717q0 340 157 538.5t433 198.5q141 0 244.5 -39t204.5 -139q37 -37 37 -80q0 -41 -32 -70.5t-71 -29.5q-37 0 -67 32q-129 145 -316 146q-135 0 -226 -85t-127 -205t-36 -267.5t36 -267t127 -204.5t226 -85q186 0 316 145q31 33 67 33q39 0 71 -29.5t32 -70.5 q0 -43 -37 -80q-100 -100 -203.5 -139t-245.5 -39q-276 0 -433 198.5t-157 538.5z" />
<glyph unicode="D" d="M172 111v1212q0 47 32 79t79 32h86v-1434h-84q-49 0 -81 31.5t-32 79.5zM516 0v180h119q168 0 258 146.5t90 390.5t-90 390t-258 146h-119v181h115q260 0 404.5 -199t144.5 -518.5t-144.5 -518t-404.5 -198.5h-115z" />
<glyph unicode="E" d="M152 111v1212q0 47 31.5 79t78.5 32h725q107 0 107 -91q0 -90 -107 -90h-639v-426h471q103 0 103 -91q0 -89 -103 -89h-471v-467h670q109 0 109 -89q0 -91 -109 -91h-756q-47 0 -78.5 31.5t-31.5 79.5z" />
<glyph unicode="F" d="M152 111v1212q0 47 31.5 79t78.5 32h744q106 0 106 -90.5t-106 -90.5h-658v-444h490q102 0 102 -90t-102 -90h-490v-518q0 -49 -24.5 -80t-69.5 -31q-47 0 -74.5 30.5t-27.5 80.5z" />
<glyph unicode="G" d="M61 719q0 317 154.5 526t435.5 209q141 0 244.5 -39t204.5 -139q37 -37 37 -80t-30 -71.5t-73 -28.5q-37 0 -67 32q-129 145 -316 146q-137 0 -227 -82t-126 -202t-36 -271q0 -240 95.5 -399.5t293.5 -159.5q94 0 169 28.5t138 112.5v287h-262q-106 0 -106 90t106 90h348 q47 0 79 -31.5t32 -79.5v-546q0 -49 -22.5 -80t-67.5 -31q-82 0 -107 84q-115 -104 -305 -104q-281 0 -436.5 208.5t-155.5 530.5z" />
<glyph unicode="H" d="M139 111v1212q0 49 25.5 80t73 31t73 -31t25.5 -80v-502h594v502q0 49 25.5 80t72.5 31t72.5 -31t25.5 -80v-1212q0 -49 -25.5 -80t-72.5 -31t-72.5 30.5t-25.5 80.5v530h-594v-530q0 -49 -25.5 -80t-73 -31t-73 30.5t-25.5 80.5z" />
<glyph unicode="I" d="M190 90q0 90 111 90h217v1073h-217q-111 0 -111 90.5t111 90.5h631q111 0 111 -90q0 -91 -111 -91h-217v-1073h217q111 0 111 -89q0 -91 -111 -91h-631q-111 0 -111 90z" />
<glyph unicode="J" d="M137.5 309q28.5 31 77.5 31q39 0 66 -33q66 -84 118 -115.5t152 -31.5q141 0 205.5 103t64.5 310v750q0 49 25.5 80t73 31t73 -31t25.5 -80v-764q0 -291 -112.5 -435t-354.5 -144q-135 0 -227.5 41.5t-180.5 134.5q-34 34 -34 75q0 47 28.5 78z" />
<glyph unicode="K" d="M168 111v1212q0 45 27.5 78t70.5 33t71 -33t28 -78v-563l503 633q33 41 82 41q41 0 66.5 -24t25.5 -62q0 -43 -36 -88l-312 -381l465 -715q16 -29 17 -58q0 -45 -28 -75.5t-67 -30.5q-59 0 -92 51l-418 672l-206 -246v-366q0 -51 -26 -81t-73 -30t-72.5 29.5t-25.5 81.5z " />
<glyph unicode="L" d="M264 111v1212q0 49 25.5 80t73 31t73 -31t25.5 -80v-1143h639q104 0 104 -90t-104 -90h-725q-47 0 -79 31.5t-32 79.5z" />
<glyph unicode="M" d="M123 111v1214q0 47 25.5 78t70.5 31q55 0 88 -54l328 -641l328 641q33 53 88 54q45 0 70.5 -31t25.5 -78v-1214q0 -49 -25.5 -80t-73 -31t-73 30.5t-25.5 80.5v872l-229 -448q-29 -53 -86 -53q-1 0 -1 -1q-56 0 -85 54l-230 448v-872q0 -49 -25.5 -80t-72.5 -31 t-72.5 30.5t-25.5 80.5z" />
<glyph unicode="N" d="M137 111v1214q8 109 94 109q55 0 91 -45l614 -973v907q0 47 26.5 79t69.5 32q45 0 73 -32t28 -79v-1214q0 -45 -28 -77t-71 -32q-57 0 -92 45l-608 973v-907q0 -47 -27.5 -79t-70.5 -32q-45 0 -72 32t-27 79z" />
<glyph unicode="O" d="M61 717q0 303 129 503.5t371 229.5v-180q-147 -31 -223 -180.5t-76 -372.5q0 -225 76 -374.5t223 -178.5v-180q-242 29 -371 230.5t-129 502.5zM709 -16v180q147 31 223 180.5t76 372.5q0 225 -76 374.5t-223 178.5v180q242 -29 370.5 -230.5t128.5 -502.5 q0 -303 -129 -504t-370 -229z" />
<glyph unicode="P" d="M186 111v1212q0 43 34 76t79 35h84v-1323q0 -49 -26.5 -80t-71.5 -31q-47 0 -73 30.5t-26 80.5zM530 549v180h211q250 0 250 262q0 123 -62.5 192.5t-187.5 69.5h-211v181h175q229 0 356 -119t127 -328q0 -217 -124 -327.5t-359 -110.5h-175z" />
<glyph unicode="Q" d="M61 717q0 303 129 503.5t371 229.5v-180q-147 -31 -223 -180.5t-76 -372.5q0 -225 76 -374.5t223 -178.5v-180q-242 29 -371 230.5t-129 502.5zM709 -16v180q68 14 133 67l-41 45q-37 37 -37 80q0 41 28.5 70t69.5 29q39 0 78 -39l14 -17q53 135 54 318q0 225 -76 374.5 t-223 178.5v180q242 -29 370.5 -230.5t128.5 -502.5q0 -279 -106 -467l78 -72q37 -37 37 -78q0 -43 -28 -71.5t-67 -28.5q-43 0 -82 39l-61 59q-113 -96 -270 -114z" />
<glyph unicode="R" d="M184 111v1212q0 45 34 78t79 33h84v-1323q0 -49 -26.5 -80t-71.5 -31q-47 0 -73 30.5t-26 80.5zM528 569v181h185q127 0 191.5 65.5t64.5 181.5q0 121 -64.5 188.5t-191.5 67.5h-185v181h172q221 0 343 -120t122 -317q0 -143 -72.5 -247.5t-199.5 -153.5l272 -418 q25 -37 25 -74q0 -49 -30 -76.5t-75 -27.5q-49 0 -81 49l-322 520h-154z" />
<glyph unicode="S" d="M101.5 389q27.5 29 70.5 29q55 0 90 -56q66 -109 148 -155.5t225 -46.5q305 0 305 237q0 76 -45 127t-116.5 79t-159 49.5t-173.5 47t-157.5 63.5t-116.5 108.5t-45 170.5q0 199 142.5 305.5t348.5 106.5q307 0 441 -221q26 -43 26 -81v-3q0 -47 -29.5 -74.5t-70.5 -27.5 q-59 0 -88 59q-43 90 -108.5 129t-170.5 39q-135 0 -214.5 -56.5t-79.5 -175.5q0 -57 45 -97t116.5 -63.5t157.5 -46t173 -53t159 -73.5t117 -122t45 -186q0 -201 -147.5 -311t-354.5 -110q-365 0 -537 264q-24 38 -24 70q0 46 27.5 75z" />
<glyph unicode="T" d="M55 1343.5q0 90.5 111 90.5h938q111 0 111 -90q0 -91 -111 -91h-371v-1142q0 -49 -25.5 -80t-72.5 -31t-72.5 30.5t-25.5 80.5v1142h-371q-111 0 -111 90.5z" />
<glyph unicode="U" d="M127 522v801q0 47 27.5 79t72.5 32q43 0 70 -32t27 -79v-795q0 -368 323 -368h2q322 0 322 368v795q0 47 26.5 79t71.5 32t71.5 -32t26.5 -79v-795q0 -248 -135 -398t-383 -150t-385 149t-137 393z" />
<glyph unicode="V" d="M92 1327q0 47 30 77t75 30q63 0 88 -68l356 -1010l356 1010q25 68 88 68q45 0 75 -30t30 -77q0 -16 -6 -39l-453 -1220q-27 -68 -90 -68t-90 68l-453 1220q-6 23 -6 39z" />
<glyph unicode="W" d="M53 1337q0 96 90 97q86 0 99 -74l98 -868l199 702q20 76 96 76t96 -76l199 -702l98 868q12 74 98 74q90 0 91 -97q0 -23 -5 -43l-153 -1220q-23 -74 -90 -74q-61 0 -88 74l-246 827l-246 -827q-27 -74 -88 -74q-68 0 -90 74l-154 1220q-4 20 -4 43z" />
<glyph unicode="X" d="M74 88q0 29 18 59l416 588l-389 551q-18 31 -19 60q0 39 26 63.5t69 24.5q45 0 75 -43l351 -496l350 496q31 43 76 43q43 0 68.5 -25t25.5 -63q0 -29 -19 -60l-389 -551l416 -588q18 -31 18 -59q0 -39 -25.5 -63.5t-68.5 -24.5q-45 0 -76 43l-376 532l-377 -532 q-31 -43 -76 -43q-43 0 -68.5 24.5t-25.5 63.5z" />
<glyph unicode="Y" d="M92 1333q0 53 45 86q23 14 60 15q57 0 86 -43l352 -560l352 558q33 45 86 45q35 0 64 -21q41 -29 41 -82q0 -37 -19 -63l-426 -641v-521q0 -45 -27.5 -75.5t-70.5 -30.5t-70.5 30.5t-27.5 75.5v521l-426 643q-18 25 -19 63z" />
<glyph unicode="Z" d="M109 100q0 31 16 64l727 1089h-625q-100 0 -100 88q0 92 100 93h791q53 0 85 -24t32 -67q0 -37 -25 -75l-723 -1088h672q102 0 102 -90t-102 -90h-844q-47 0 -76.5 27.5t-29.5 72.5z" />
<glyph unicode="[" d="M410 -231v1634q0 39 27.5 67.5t76.5 28.5h350q94 0 94 -82t-94 -82h-270v-1499h270q94 0 94 -82t-94 -82h-350q-49 0 -76.5 29t-27.5 68z" />
<glyph unicode="\" d="M37 1341q0 35 32.5 64t65.5 29q35 0 62 -35l968 -1258q20 -27 21 -51q0 -35 -33 -62.5t-66 -27.5q-34 0 -61 35l-969 1255q-20 27 -20 51z" />
<glyph unicode="]" d="M410 -246q0 82 94 82h270v1499h-270q-94 0 -94 82t94 82h350q49 0 76.5 -28.5t27.5 -67.5v-1634q0 -39 -27.5 -68t-76.5 -29h-350q-94 0 -94 82z" />
<glyph unicode="^" d="M119 678q0 29 16 53l443 670q20 33 65.5 33t65.5 -33l442 -670q16 -25 16 -53q0 -35 -23.5 -55.5t-56.5 -20.5q-47 0 -77 45l-367 559l-367 -559q-31 -45 -77 -45q-33 0 -56.5 20.5t-23.5 55.5z" />
<glyph unicode="_" d="M119 -86q0 86 104 86h826q104 0 104 -86t-104 -86h-826q-104 0 -104 86z" />
<glyph unicode="`" d="M389 1860q0 35 25.5 60.5t62.5 25.5q27 0 55 -15l250 -127q55 -29 56 -82q0 -37 -25 -64.5t-61 -27.5q-16 0 -41 10l-277 142q-45 25 -45 78z" />
<glyph unicode="a" d="M141 512q0 203 108.5 353t301.5 175v-168q-102 -27 -163.5 -124t-61.5 -236q0 -141 60 -237.5t165 -122.5v-168q-197 25 -303.5 174t-106.5 354zM690 -16v168q102 27 163.5 124t61.5 236q0 141 -60.5 238t-164.5 122v168q150 -25 221 -122q4 49 28 77.5t62 28.5 q43 0 71 -26.5t28 -75.5v-820q0 -49 -28 -75.5t-71 -26.5q-39 0 -62.5 28.5t-27.5 77.5q-72 -98 -221 -122z" />
<glyph unicode="b" d="M211 100v1233q0 43 25.5 72t66.5 29t66.5 -29t25.5 -72v-418q59 96 219 123v-164q-106 -25 -162.5 -120t-56.5 -242q0 -150 56.5 -244t162.5 -116v-168q-160 25 -219 116q-2 -43 -29.5 -71.5t-62.5 -28.5q-41 0 -66.5 28.5t-25.5 71.5zM754 -16v168q106 25 162.5 119 t56.5 241q0 150 -56.5 246t-162.5 119v163q193 -25 298 -170t105 -358q0 -227 -106.5 -366.5t-296.5 -161.5z" />
<glyph unicode="c" d="M141 512q0 229 137.5 380.5t370.5 151.5q139 0 224 -39.5t155 -113.5q41 -41 41 -86q0 -41 -23.5 -67.5t-64.5 -26.5t-76 45q-53 74 -107.5 99.5t-148.5 25.5q-145 0 -236 -106.5t-91 -262.5t91 -262.5t236 -106.5q94 0 148.5 26t107.5 99q35 45 76 45t64.5 -26.5 t23.5 -67.5q0 -45 -41 -86q-70 -74 -155 -113.5t-224 -39.5q-233 0 -370.5 151.5t-137.5 380.5z" />
<glyph unicode="d" d="M139 512q0 213 105.5 358t298.5 170v-163q-106 -23 -162.5 -119t-56.5 -246q0 -147 56 -241.5t163 -118.5v-168q-190 23 -297 162t-107 366zM682 -16v168q106 23 162.5 116.5t56.5 243.5q0 147 -56.5 242t-162.5 120v164q160 -27 219 -123v418q0 43 25.5 72t66.5 29 t66.5 -29t25.5 -72v-1233q0 -43 -25.5 -71.5t-66.5 -28.5q-35 0 -62.5 28.5t-29.5 71.5q-59 -92 -219 -116z" />
<glyph unicode="e" d="M141 512q0 211 117 358t322 170v-168q-98 -23 -165 -97.5t-85 -172.5h250v-164h-250q16 -121 102 -208t217 -87q199 0 307 125q31 35 72 35t65.5 -29.5t24.5 -66.5t-33 -70q-163 -157 -433 -157h-3q-233 0 -370.5 151.5t-137.5 380.5zM719 438v164h235q-55 231 -235 270 v168q190 -23 307 -163t117 -336q0 -49 -28 -76t-75 -27h-321z" />
<glyph unicode="f" d="M113 942q0 82 96 82h266q0 223 95.5 326.5t238.5 103.5q102 0 162.5 -15.5t126.5 -60.5q49 -41 49 -80q0 -43 -25.5 -67.5t-60.5 -24.5q-31 0 -53 21q-47 39 -88 51t-103 12q-78 0 -118 -76.5t-40 -189.5h371q96 0 96 -82t-96 -82h-371v-758q0 -45 -24.5 -73.5 t-67.5 -28.5q-41 0 -66.5 29.5t-25.5 72.5v758h-266q-96 0 -96 82z" />
<glyph unicode="g" d="M113 512q0 201 109 352t302 176v-168q-109 -25 -168 -124t-59 -236q0 -139 59.5 -237.5t167.5 -122.5v-168q-188 25 -299.5 177t-111.5 351zM121 -127q0 43 30.5 71.5t73.5 28.5q59 0 88 -57q51 -96 109.5 -139t171.5 -43q279 0 278 356q-78 -86 -208 -106v168 q109 25 164 123t55 237q0 137 -56.5 235t-162.5 125v168q123 -16 206 -106q6 39 34 64.5t65 25.5q45 0 71.5 -28.5t26.5 -73.5v-803q0 -250 -114.5 -399.5t-358.5 -149.5q-166 0 -271.5 57.5t-183.5 184.5q-18 31 -18 61z" />
<glyph unicode="h" d="M219 100v1233q0 43 25.5 72t66.5 29t66.5 -29t25.5 -72v-450q23 66 108 113.5t181 47.5q387 0 387 -395v-549q0 -43 -25.5 -71.5t-66.5 -28.5t-66.5 28.5t-25.5 71.5v508q0 145 -48 209t-155 64q-137 0 -213 -108.5t-76 -287.5v-385q0 -43 -25.5 -71.5t-66.5 -28.5 t-66.5 28.5t-25.5 71.5z" />
<glyph unicode="i" d="M207 82q0 39 28.5 60.5t71.5 21.5h297v696h-229q-43 0 -72 21.5t-29 60.5t29 60.5t72 21.5h321q39 0 65.5 -23.5t26.5 -58.5v-778h297q43 0 72 -21.5t29 -60.5t-29 -60.5t-72 -21.5h-778q-43 0 -71.5 21.5t-28.5 60.5zM561 1304.5q0 53.5 38 91.5t91 38t91 -38t38 -91.5 t-38 -91t-91 -37.5t-91 37.5t-38 91z" />
<glyph unicode="j" d="M188 -258q0 37 24 62.5t60 25.5q29 0 56 -20l58 -42q19 -13 56 -23.5t86 -10.5q158 0 158 180v946h-229q-43 0 -72 21.5t-29 60.5t29 60.5t72 21.5h321q39 0 65.5 -23.5t26.5 -58.5v-1044q0 -168 -91 -248t-242 -80q-170 0 -289 84q-59 41 -60 88zM643 1304.5 q0 53.5 38 91.5t91 38t91 -38t38 -91.5t-38 -91t-91 -37.5t-91 37.5t-38 91z" />
<glyph unicode="k" d="M262 100v1233q0 43 25.5 72t66.5 29t66.5 -29t25.5 -72v-727l365 385q31 33 72 33q43 0 68.5 -25.5t25.5 -64.5q0 -35 -25 -60l-227 -237l334 -496q16 -25 16 -53q0 -39 -25.5 -63.5t-64.5 -24.5q-55 0 -86 47l-305 453l-148 -158v-242q0 -43 -25.5 -71.5t-66.5 -28.5 t-66.5 28.5t-25.5 71.5z" />
<glyph unicode="l" d="M207 82q0 39 28.5 60.5t71.5 21.5h297v1106h-229q-43 0 -72 21.5t-29 60.5t29 60.5t72 21.5h321q39 0 65.5 -24t26.5 -58v-1188h297q43 0 72 -21.5t29 -60.5t-29 -60.5t-72 -21.5h-778q-43 0 -71.5 21.5t-28.5 60.5z" />
<glyph unicode="m" d="M98 100v824q0 43 26 71.5t66.5 28.5t66.5 -28.5t26 -71.5v-23q14 57 67 100t129 43q190 0 234 -145q18 59 77.5 102t143.5 43q129 0 193.5 -74.5t64.5 -203.5v-666q0 -43 -25.5 -71.5t-66.5 -28.5t-66.5 28.5t-25.5 71.5v615q0 88 -28 127t-89 39q-154 0 -154 -277v-504 q0 -43 -25.5 -71.5t-66.5 -28.5t-66.5 28.5t-25.5 71.5v615q0 88 -26.5 127t-90.5 39q-154 0 -153 -301v-480q0 -43 -26 -71.5t-66.5 -28.5t-66.5 28.5t-26 71.5z" />
<glyph unicode="n" d="M219 100v824q0 43 25.5 71.5t66.5 28.5t66.5 -28.5t25.5 -71.5v-41q23 66 108 113.5t181 47.5q387 0 387 -395v-549q0 -43 -25.5 -71.5t-66.5 -28.5t-66.5 28.5t-25.5 71.5v508q0 145 -45 209t-158 64q-141 0 -215 -107.5t-74 -288.5v-385q0 -43 -25.5 -71.5t-66.5 -28.5 t-66.5 28.5t-25.5 71.5z" />
<glyph unicode="o" d="M143 512q0 211 115 357t305 171v-168q-109 -25 -172 -120t-63 -240q0 -147 63.5 -242.5t171.5 -117.5v-168q-190 25 -305 171t-115 357zM702 -16v168q109 23 172.5 118t63.5 242q0 145 -63.5 240t-172.5 120v168q190 -25 305 -171t115 -357t-114.5 -357.5t-305.5 -170.5z " />
<glyph unicode="p" d="M211 -309v1233q0 43 25.5 71.5t66.5 28.5q35 0 62.5 -28.5t29.5 -71.5q59 92 219 116v-168q-106 -23 -162.5 -116.5t-56.5 -243.5q0 -147 56.5 -242t162.5 -120v-164q-160 27 -219 123v-418q0 -43 -25.5 -72t-66.5 -29t-66.5 29t-25.5 72zM754 -16v163q106 23 162.5 119 t56.5 246q0 147 -56.5 241.5t-162.5 118.5v168q190 -23 296.5 -162t106.5 -366q0 -213 -105 -358t-298 -170z" />
<glyph unicode="q" d="M162 512q0 227 106.5 366.5t296.5 161.5v-168q-106 -25 -162.5 -119t-56.5 -241q0 -150 56.5 -246t162.5 -119v-163q-193 25 -298 170t-105 358zM705 -14v164q106 25 162.5 120t56.5 242q0 150 -56.5 244t-162.5 116v168q160 -25 219 -116q2 43 29.5 71.5t62.5 28.5 q41 0 66.5 -28.5t25.5 -71.5v-1233q0 -43 -25.5 -72t-66.5 -29t-66.5 29t-25.5 72v418q-59 -96 -219 -123z" />
<glyph unicode="r" d="M303 104v816q0 45 25.5 74.5t66.5 29.5t66.5 -29.5t25.5 -74.5v-46q37 63 121 114.5t185 51.5q256 0 350 -192q12 -25 12 -49q0 -43 -31.5 -71t-70.5 -28q-53 0 -78 58q-55 114 -180 114h-2q-152 0 -229 -113.5t-77 -285.5v-369q0 -45 -25.5 -74.5t-66.5 -29.5 t-66.5 29.5t-25.5 74.5z" />
<glyph unicode="s" d="M213 223q0 37 26.5 64.5t65.5 27.5q53 0 82 -41q86 -131 268 -131q258 0 258 170q0 57 -68.5 85t-165.5 40.5t-194.5 31.5t-166 81.5t-68.5 171.5q0 154 117.5 237.5t281.5 83.5q254 0 375 -170q20 -27 20 -59q0 -41 -27.5 -66.5t-70.5 -25.5q-45 0 -72 43 q-70 115 -225 115q-104 0 -159.5 -40t-55.5 -112q0 -55 49 -87t123 -40t160 -23.5t159.5 -36t123 -78.5t49.5 -151q0 -150 -130 -241.5t-313 -91.5q-272 0 -415 176q-27 33 -27 67z" />
<glyph unicode="t" d="M113 942q0 82 96 82h266v328q0 43 25.5 72.5t66.5 29.5q43 0 67.5 -28.5t24.5 -73.5v-328h371q96 0 96 -82t-96 -82h-371v-536q0 -94 44.5 -137.5t113.5 -43.5q49 0 86 10.5t56 23.5l59 42q27 20 55 21q39 0 61.5 -26t22.5 -62q0 -47 -59 -89q-118 -83 -285 -83h-4 q-152 0 -243 79.5t-91 247.5v553h-266q-96 0 -96 82z" />
<glyph unicode="u" d="M219 375v549q0 43 25.5 71.5t66.5 28.5t66.5 -28.5t25.5 -71.5v-508q0 -145 45.5 -209t157.5 -64q143 0 216 107.5t73 288.5v385q0 43 25.5 71.5t66.5 28.5t66.5 -28.5t25.5 -71.5v-824q0 -43 -25.5 -71.5t-66.5 -28.5t-66.5 28.5t-25.5 71.5v41q-23 -66 -108 -113.5 t-181 -47.5q-387 0 -387 395z" />
<glyph unicode="v" d="M164 924q0 66 59 92q16 8 39 8q63 0 90 -59l293 -662l293 662q27 59 90 59q23 0 39 -8q59 -27 59 -92q0 -12 -8 -37l-385 -828q-26 -59 -87.5 -59t-88.5 59l-385 828q-8 16 -8 37z" />
<glyph unicode="w" d="M59 926q0 43 26 70.5t69 27.5q76 0 94 -68l137 -618l158 434q20 68 92 68t92 -68l158 -434l137 618q18 68 94 68q43 0 68.5 -27.5t25.5 -70.5q0 -16 -4 -31l-207 -827q-18 -68 -94 -68q-68 0 -92 68l-178 491l-178 -491q-24 -68 -92 -68q-76 0 -95 68l-207 827 q-4 14 -4 31z" />
<glyph unicode="x" d="M205 82q0 39 28 74l287 356l-287 356q-28 34 -28 71q0 32 27.5 58.5t60.5 26.5q47 0 86 -49l256 -322l256 322q39 49 86 49q33 0 60.5 -26.5t27.5 -55.5q0 -39 -29 -74l-286 -356l286 -356q29 -35 29 -74q0 -29 -27.5 -55.5t-60.5 -26.5q-47 0 -86 49l-256 320l-256 -320 q-39 -49 -86 -49q-33 0 -60.5 26.5t-27.5 55.5z" />
<glyph unicode="y" d="M98 -305q0 37 22.5 58.5t55.5 21.5q16 0 45 -10.5t51 -10.5q88 0 143.5 60.5t110.5 193.5l11 25l-379 854q-8 16 -8 37q0 66 59 92q16 8 39 8q63 0 90 -59l303 -691l301 691q27 59 90 59q23 0 39 -8q59 -27 59 -92q0 -12 -8 -37l-389 -856q-104 -231 -205.5 -336 t-255.5 -105q-174 0 -174 105z" />
<glyph unicode="z" d="M180 92q0 35 21 62l579 706h-471q-102 0 -102 82t102 82h631q102 0 102 -92q0 -31 -20 -62l-578 -706h521q102 0 102 -82t-102 -82h-682q-47 0 -75 24.5t-28 67.5z" />
<glyph unicode="{" d="M166 586q0 37 21.5 59.5t60.5 22.5q92 0 147.5 68.5t55.5 199.5v467q0 39 27.5 67.5t76.5 28.5h330q94 0 94 -82t-94 -82h-250v-358q0 -176 -37 -256t-149 -135q113 -55 149.5 -135t36.5 -256v-359h250q94 0 94 -82t-94 -82h-330q-49 0 -76.5 29t-27.5 68v467 q0 131 -55.5 199.5t-147.5 68.5q-39 0 -60.5 22.5t-21.5 59.5z" />
<glyph unicode="|" d="M547 -70v1575q0 82 88 82t88 -82v-1575q0 -82 -88 -82t-88 82z" />
<glyph unicode="}" d="M166 -246q0 82 94 82h250v359q0 176 37 255.5t149 135.5q-113 55 -149.5 135t-36.5 256v358h-250q-94 0 -94 82t94 82h330q49 0 76.5 -28.5t27.5 -67.5v-467q0 -131 55.5 -199.5t147.5 -68.5q39 0 60.5 -22.5t21.5 -59.5t-21.5 -59.5t-60.5 -22.5q-92 0 -147.5 -68.5 t-55.5 -199.5v-467q0 -39 -27.5 -68t-76.5 -29h-330q-94 0 -94 82z" />
<glyph unicode="~" d="M188 608q0 39 35 74q88 92 228 92q78 0 200.5 -59.5t194.5 -59.5q68 0 119 47q35 31 69 31q33 0 53.5 -20.5t20.5 -55.5q0 -39 -35 -73q-88 -92 -227 -92q-84 0 -205 59t-190 59q-68 0 -119 -47q-33 -31 -70 -31q-33 0 -53.5 20.5t-20.5 55.5z" />
<glyph unicode="&#xa0;" />
<glyph unicode="&#xa1;" d="M469 878.5q0 71.5 48 118.5t118 47t118 -47t48 -118.5t-48 -118.5t-118 -47t-118 47t-48 118.5zM508 -272l37 739q4 109 90 108.5t90 -108.5l37 -739q-4 -137 -127 -137t-127 137z" />
<glyph unicode="&#xa2;" d="M121 717q0 209 115.5 356.5t316.5 171.5v117q0 92 76 92t76 -92v-117q174 -16 303 -149q41 -41 41 -86q0 -41 -24 -68t-64.5 -27t-75.5 46q-53 72 -106.5 96t-149.5 24q-145 0 -236.5 -104.5t-91.5 -260t91 -261t237 -105.5q96 0 149 25.5t107 97.5q35 45 75.5 45 t64.5 -26.5t24 -67.5q0 -45 -41 -86q-125 -133 -303 -152v-114q0 -92 -76 -92t-76 92v114q-201 25 -316.5 173.5t-115.5 357.5zM553 508v416q33 18 76 18q45 0 76 -18v-416q-33 -16 -76 -16q-39 0 -76 16z" />
<glyph unicode="&#xa3;" d="M78 82q0 66 80 82q174 35 174 278v215h-74q-43 0 -71.5 21.5t-28.5 60.5t28.5 60.5t71.5 21.5h74v236q0 188 88 286.5t246 98.5q231 0 319 -195q12 -25 12 -47q0 -41 -31.5 -67.5t-68.5 -26.5q-51 0 -72 47q-29 76 -63.5 100.5t-95.5 24.5q-80 0 -117 -52t-37 -163v-242 h197q43 0 71.5 -21.5t28.5 -60.5t-28.5 -60.5t-71.5 -21.5h-197v-215q0 -197 -100 -278h467v168q0 43 21.5 71.5t60 28.5t60 -28.5t21.5 -71.5v-250q0 -82 -94 -82h-790q-37 0 -58.5 24.5t-21.5 57.5z" />
<glyph unicode="&#xa4;" d="M178 465q0 39 37 76l43 43q-59 96 -59 202q0 113 59 201l-43 45q-37 37 -37 76q0 29 24.5 53.5t53.5 24.5q39 0 76 -37l43 -47q66 41 145 53v-147q-72 -18 -119 -80t-47 -141.5t46 -141t120 -82.5v-145q-78 8 -145 51l-43 -45q-37 -37 -76 -37q-29 0 -53.5 24.5 t-24.5 53.5zM635 418v145q72 20 119 83t47 140q0 80 -47 141.5t-119 80.5v147q74 -12 141 -53l47 47q37 37 76 37q29 0 53.5 -24.5t24.5 -53.5q0 -39 -37 -76l-45 -45q61 -90 61 -201q0 -109 -61 -202l45 -43q37 -37 37 -76q0 -29 -24.5 -53.5t-53.5 -24.5q-39 0 -76 37 l-47 45q-70 -43 -141 -51z" />
<glyph unicode="&#xa5;" d="M92 1331q0 45 30 74t75 29q59 0 86 -45l352 -558l352 558q27 45 86 45q45 0 75 -29t30 -74q0 -37 -19 -63l-311 -469h119q104 0 104 -86t-104 -86h-234v-164h234q104 0 104 -86t-104 -86h-234v-185q0 -45 -27.5 -75.5t-70.5 -30.5t-70.5 30.5t-27.5 75.5v185h-234 q-104 0 -104 86t104 86h234v164h-234q-104 0 -104 86t104 86h119l-311 469q-18 27 -19 63z" />
<glyph unicode="&#xa6;" d="M547 -70v623q0 82 88 82t88 -82v-623q0 -82 -88 -82t-88 82zM547 883v622q0 82 88 82t88 -82v-622q0 -82 -88 -82t-88 82z" />
<glyph unicode="&#xa7;" d="M186 -205q0 47 29 71.5t72 24.5q57 0 86 -59q41 -80 90 -107.5t123 -27.5q84 0 136 54t52 153q0 86 -60.5 146.5t-145.5 100.5l-170 83q-85 44 -145 120t-60 183q-1 75 32 151q92 -61 156 -88q-8 -27 -8 -65q0 -68 60.5 -115t145.5 -83t170 -80t145 -130t60 -209 q0 -182 -103 -283.5t-265 -101.5q-141 0 -228.5 47t-150.5 152q-20 33 -21 63zM193 1069q0 182 103 283.5t265 101.5q141 0 228.5 -47t150.5 -152q20 -33 21 -63q0 -47 -29 -71.5t-72 -24.5q-57 0 -86 59q-41 80 -90 107.5t-123 27.5q-84 0 -136 -54t-52 -153 q0 -86 60.5 -146t145.5 -100l170 -84q85 -44 145 -120t60 -182q1 -76 -32 -152q-92 61 -156 88q8 27 8 66q0 68 -60.5 114.5t-145.5 82.5t-170 80t-145 130t-60 209z" />
<glyph unicode="&#xa8;" d="M225 1718q0 53 36 89t85 36q51 0 88 -37t37 -88q0 -49 -37 -85t-88 -36q-49 0 -85 36t-36 85zM616 1718q0 53 36 89t85 36q53 0 89 -36t36 -89q0 -49 -37 -85t-88 -36q-49 0 -85 37t-36 84z" />
<glyph unicode="&#xa9;" d="M53 725q0 233 152.5 394t374.5 181v-143q-172 -18 -269.5 -142t-97.5 -290q0 -168 97.5 -291t269.5 -141v-143q-223 23 -375 182.5t-152 392.5zM344 725q0 125 83 209t212 84q154 0 227 -84q18 -20 19 -49q0 -27 -18.5 -44.5t-45.5 -17.5q-31 0 -43 21q-45 68 -139 67 q-74 0 -119 -51t-45 -135t45 -135t119 -51q94 0 139 67q12 20 43 21q27 0 45.5 -17.5t18.5 -44.5q0 -29 -19 -49q-74 -84 -227 -84q-129 0 -212 84t-83 209zM698 150v143q172 18 270.5 141t98.5 291q0 166 -98.5 290t-270.5 142v143q221 -20 375 -181t154 -394t-153.5 -393 t-375.5 -182z" />
<glyph unicode="&#xaa;" d="M242 1030q0 160 83 275.5t232 134.5v-140q-76 -20 -118 -92t-42 -178q0 -109 42 -180.5t118 -91.5v-142q-154 18 -234.5 134t-80.5 280zM672 618v140q76 20 119 92t43 180q0 106 -43 178t-119 92v138q104 -21 157 -101q2 39 26 64.5t54 25.5q37 0 60.5 -21.5t23.5 -57.5 v-637q0 -37 -23.5 -58.5t-60.5 -21.5q-31 0 -53 26.5t-27 63.5q-53 -78 -157 -103z" />
<glyph unicode="&#xab;" d="M96 534.5q0 32.5 33 65.5l379 387q33 33 70 33q33 0 53 -20.5t20 -53.5q0 -39 -35 -76l-321 -335l321 -336q35 -37 35 -76q0 -33 -20.5 -53.5t-52.5 -20.5q-37 0 -70 33l-379 387q-33 33 -33 65.5zM485 534.5q0 32.5 33 65.5l379 387q33 33 70 33q33 0 53 -20.5t20 -53.5 q0 -39 -34 -76l-322 -335l322 -336q35 -37 34 -76q0 -33 -20.5 -53.5t-52.5 -20.5q-37 0 -70 33l-379 387q-33 33 -33 65.5z" />
<glyph unicode="&#xac;" d="M113 799q0 43 31.5 66.5t80.5 23.5h779q35 0 58 -26.5t23 -65.5v-387q0 -43 -21.5 -72t-60 -29t-60 29t-21.5 72v299h-697q-49 0 -80.5 23.5t-31.5 66.5z" />
<glyph unicode="&#xad;" d="M213 616q0 86 104 86h639q104 0 104.5 -86t-104.5 -86h-639q-104 0 -104 86z" />
<glyph unicode="&#xae;" d="M53 725q0 233 152.5 394t374.5 181v-143q-172 -18 -269.5 -142t-97.5 -290q0 -168 97.5 -291t269.5 -141v-143q-223 23 -375 182.5t-152 392.5zM426 500v450q0 27 17 44.5t44 17.5h60v-512q0 -29 -17.5 -45.5t-44.5 -16.5q-59 0 -59 62zM637 662v96h37q53 0 74.5 16.5 t21.5 63.5t-21.5 63.5t-74.5 16.5h-37v94h61q92 0 142.5 -47t50.5 -127q0 -125 -125 -166l111 -137q10 -16 10 -33q0 -31 -17.5 -47.5t-44.5 -16.5q-25 0 -43 25zM698 150v143q172 18 270.5 141t98.5 291q0 166 -98.5 290t-270.5 142v143q221 -20 375 -181t154 -394 t-153.5 -393t-375.5 -182z" />
<glyph unicode="&#xaf;" d="M346 1720q0 82 100 82h312q100 0 100 -80q0 -82 -100 -82h-312q-100 0 -100 80z" />
<glyph unicode="&#xb0;" d="M246 1134.5q0 122.5 72.5 210t191.5 105.5v-135q-55 -16 -85 -64t-30 -116q0 -141 115 -177v-135q-119 16 -191.5 102.5t-72.5 209zM621 823v135q55 14 86.5 62.5t31.5 114t-31.5 114.5t-86.5 66v135q121 -18 194.5 -105.5t73.5 -210t-74 -208.5t-194 -103z" />
<glyph unicode="&#xb1;" d="M119 86q0 86 104 86h826q104 0 104 -86t-104 -86h-826q-104 0 -104 86zM119 803q0 86 104 86h326v325q0 104 86 104.5t86 -104.5v-325h328q104 0 104 -86t-104 -86h-328v-328q0 -104 -86 -104t-86 104v328h-326q-104 0 -104 86z" />
<glyph unicode="&#xb2;" d="M391 811v29q0 102 60.5 163.5t164.5 104.5q76 33 108 59.5t32 67.5q0 96 -103 96q-47 0 -77.5 -27.5t-38.5 -72.5q-10 -66 -66 -66q-31 0 -48 16.5t-17 41.5q0 96 69.5 158.5t171.5 62.5q119 0 179.5 -53.5t60.5 -145.5q0 -82 -47 -134t-138 -95l-80 -40 q-30 -15 -57.5 -43t-34.5 -59h326q59 0 59 -59t-59 -59h-412q-23 0 -38 16t-15 39z" />
<glyph unicode="&#xb3;" d="M379 958q0 31 18.5 48.5t46.5 17.5q57 0 66 -66q8 -51 34.5 -72.5t80.5 -21.5q51 0 79.5 29t28.5 74q0 94 -98 94h-19q-59 0 -59 59q0 27 15.5 43.5t43.5 16.5h21q78 0 78 71q0 33 -25.5 53.5t-71.5 20.5q-76 0 -90 -68q-12 -53 -61 -53q-25 0 -44.5 16.5t-19.5 43.5 q0 80 68 130t147 50q223 0 224 -193q0 -94 -88 -125q111 -27 110 -159q0 -96 -69.5 -159t-169.5 -63q-111 0 -178.5 60.5t-67.5 152.5z" />
<glyph unicode="&#xb4;" d="M389 1722q0 53 55 82l250 127q29 14 56 15q37 0 62.5 -26t25.5 -60q0 -53 -45 -78l-277 -142q-25 -10 -41 -10q-37 0 -61.5 28t-24.5 64z" />
<glyph unicode="&#xb5;" d="M219 -309v1233q0 43 25.5 71.5t66.5 28.5t66.5 -28.5t25.5 -71.5v-537q0 -129 47.5 -186.5t155.5 -57.5q135 0 212 109.5t77 286.5v385q0 43 25.5 71.5t66.5 28.5t66.5 -28.5t25.5 -71.5v-824q0 -43 -25.5 -71.5t-66.5 -28.5t-66.5 28.5t-25.5 71.5v41 q-23 -66 -108 -113.5t-181 -47.5q-117 0 -203 36v-325q0 -43 -25.5 -72t-66.5 -29t-66.5 29t-25.5 72z" />
<glyph unicode="&#xb6;" d="M176 1073.5q0 149.5 104.5 255t254.5 105.5h503q104 0 104.5 -86t-104.5 -86v-1332q0 -82 -88 -82t-88 82v1332h-151v-1332q0 -82 -88 -82t-88 82v785q-150 0 -254.5 104.5t-104.5 254z" />
<glyph unicode="&#xb7;" d="M469 614.5q0 69.5 48 117.5t118 48t118 -48t48 -117.5t-48 -117.5t-118 -48t-118 48t-48 117.5z" />
<glyph unicode="&#xb8;" d="M428 -436q0 24 10 51l76 195q27 72 80 71q37 0 59.5 -21.5t22.5 -56.5q0 -25 -10 -51l-76 -194q-27 -72 -80 -72q-35 0 -58.5 21.5t-23.5 56.5z" />
<glyph unicode="&#xb9;" d="M414 1247q0 29 24 47l176 117q33 23 64 23q55 0 55 -60v-540q0 -31 -17.5 -54.5t-48 -23.5t-48 23.5t-17.5 54.5v432l-100 -66q-12 -10 -33 -10q-55 0 -55 57z" />
<glyph unicode="&#xba;" d="M246 1030q0 164 87 276.5t236 133.5v-142q-78 -18 -123 -88.5t-45 -179.5q0 -111 45.5 -181.5t122.5 -90.5v-140q-150 20 -236.5 133t-86.5 279zM684 618v140q78 20 123 91t45 181q0 109 -45 179.5t-123 88.5v142q150 -20 237 -133t87 -277q0 -166 -87 -278.5 t-237 -133.5z" />
<glyph unicode="&#xbb;" d="M96 123q0 39 35 76l322 336l-322 335q-35 37 -35 76q0 33 20.5 53.5t53.5 20.5q37 0 70 -33l378 -387q33 -33 33 -65.5t-33 -65.5l-378 -387q-33 -33 -70 -33q-33 0 -53.5 20.5t-20.5 53.5zM485 123q0 39 35 76l322 336l-322 335q-35 37 -35 76q0 33 20.5 53.5t53.5 20.5 q37 0 70 -33l379 -387q33 -33 33 -65.5t-33 -65.5l-379 -387q-33 -33 -70 -33q-33 0 -53.5 20.5t-20.5 53.5z" />
<glyph unicode="&#xbc;" d="M106 1247q0 29 25 47l176 117q33 23 64 23q55 0 55 -60v-540q0 -31 -17.5 -54.5t-48 -23.5t-48 23.5t-17.5 54.5v432l-100 -66q-12 -10 -33 -10q-55 0 -56 57zM123 401q0 37 37 62l860 600q25 18 47 18q27 0 45 -21.5t18 -45.5q0 -39 -36 -64l-861 -600q-25 -18 -47 -18 q-29 0 -46 21.5t-17 47.5zM580 195q0 16 10 32l207 305v-194l-58 -84h58v-119h-164q-25 0 -39 17.5t-14 42.5zM874 78v569q27 31 64 31q29 0 48.5 -16.5t19.5 -38.5v-369h65q53 0 53 -55q0 -63 -53 -64h-65v-57q0 -31 -17.5 -54.5t-48.5 -23.5t-48.5 23.5t-17.5 54.5z" />
<glyph unicode="&#xbd;" d="M106 1247q0 29 25 47l176 117q33 23 64 23q55 0 55 -60v-540q0 -31 -17.5 -54.5t-48 -23.5t-48 23.5t-17.5 54.5v432l-100 -66q-12 -10 -33 -10q-55 0 -56 57zM123 401q0 37 37 62l860 600q25 18 47 18q27 0 45 -21.5t18 -45.5q0 -39 -36 -64l-861 -600q-25 -18 -47 -18 q-29 0 -46 21.5t-17 47.5zM707 55v29q0 102 60 163.5t165 104.5q76 33 107.5 59.5t31.5 67.5q0 96 -102 96q-47 0 -78 -27.5t-39 -72.5q-10 -66 -66 -65q-31 0 -48 16t-17 41q0 96 69.5 158.5t172.5 62.5q119 0 179 -53t60 -146q0 -82 -47 -134t-137 -95l-81 -40 q-30 -15 -57.5 -42.5t-33.5 -58.5h325q59 0 59 -59.5t-59 -59.5h-411q-23 0 -38 16.5t-15 38.5z" />
<glyph unicode="&#xbe;" d="M51 958q0 31 18.5 48.5t47.5 17.5q57 0 65 -66q8 -51 35 -72.5t80 -21.5q51 0 80 29t29 74q0 94 -99 94h-18q-59 0 -60 59q0 27 15.5 43.5t44.5 16.5h20q78 0 78 71q0 33 -25.5 53.5t-70.5 20.5q-76 0 -90 -68q-12 -53 -62 -53q-25 0 -44 16.5t-19 43.5q0 80 67.5 130 t147.5 50q223 0 223 -193q0 -94 -88 -125q111 -27 111 -159q0 -96 -70 -159t-170 -63q-111 0 -178.5 60.5t-67.5 152.5zM123 401q0 37 37 62l860 600q25 18 47 18q27 0 45 -21.5t18 -45.5q0 -39 -36 -64l-861 -600q-25 -18 -47 -18q-29 0 -46 21.5t-17 47.5zM580 195 q0 16 10 32l207 305v-194l-58 -84h58v-119h-164q-25 0 -39 17.5t-14 42.5zM874 78v569q27 31 64 31q29 0 48.5 -16.5t19.5 -38.5v-369h65q53 0 53 -55q0 -63 -53 -64h-65v-57q0 -31 -17.5 -54.5t-48.5 -23.5t-48.5 23.5t-17.5 54.5z" />
<glyph unicode="&#xbf;" d="M233 -80q0 63 23 114.5t57 83.5l75 68l75 70q35 33 57.5 85t22.5 116q0 98 92 98t92 -98q0 -76 -31.5 -143.5t-77 -117t-91.5 -92.5t-77.5 -90t-31.5 -94q0 -98 60.5 -151.5t156.5 -53.5q113 0 165 57.5t52 147.5q0 35 26.5 55.5t65.5 20.5q92 0 92 -82 q0 -135 -109.5 -239.5t-291.5 -104.5q-170 0 -286 92t-116 258zM469 858q0 72 48 119t118 47t118 -47t48 -119t-48 -119t-118 -47t-118 47t-48 119z" />
<glyph unicode="&#xc0;" d="M82 98q0 23 8 47l367 967l100 -276l-84 -244h176l64 -180h-307l-136 -344q-27 -68 -90 -68q-45 0 -71.5 26.5t-26.5 71.5zM410 1819q0 35 25.5 60.5t62.5 25.5q27 0 55 -15l250 -127q55 -29 55 -82q0 -37 -24.5 -64.5t-61.5 -27.5q-16 0 -41 10l-276 142q-45 25 -45 78z M539 1323l8 23q31 88 88 88q25 0 43 -15.5t25.5 -30t19.5 -42.5l457 -1201q8 -25 8 -47q0 -45 -26.5 -71.5t-71.5 -26.5q-64 0 -91 68z" />
<glyph unicode="&#xc1;" d="M82 98q0 23 8 47l367 967l100 -276l-84 -244h176l64 -180h-307l-136 -344q-27 -68 -90 -68q-45 0 -71.5 26.5t-26.5 71.5zM414 1681q0 53 55 82l250 127q29 14 55 15q37 0 62.5 -26t25.5 -60q0 -53 -45 -78l-276 -142q-25 -10 -41 -10q-37 0 -61.5 28t-24.5 64zM539 1323 l8 23q31 88 88 88q25 0 43 -15.5t25.5 -30t19.5 -42.5l457 -1201q8 -25 8 -47q0 -45 -26.5 -71.5t-71.5 -26.5q-64 0 -91 68z" />
<glyph unicode="&#xc2;" d="M82 98q0 23 8 47l367 967l100 -276l-84 -244h176l64 -180h-307l-136 -344q-27 -68 -90 -68q-45 0 -71.5 26.5t-26.5 71.5zM319 1681q0 41 39 74l209 164q35 27 68 27t67 -27l209 -164q39 -33 39 -74q0 -39 -24.5 -65.5t-63.5 -26.5q-29 0 -53 21l-174 137l-174 -137 q-27 -20 -53 -21q-39 0 -64 26.5t-25 65.5zM539 1323l8 23q31 88 88 88q25 0 43 -15.5t25.5 -30t19.5 -42.5l457 -1201q8 -25 8 -47q0 -45 -26.5 -71.5t-71.5 -26.5q-64 0 -91 68z" />
<glyph unicode="&#xc3;" d="M82 98q0 23 8 47l367 967l100 -276l-84 -244h176l64 -180h-307l-136 -344q-27 -68 -90 -68q-45 0 -71.5 26.5t-26.5 71.5zM274 1663q0 31 27 59q49 53 91 77t106 24q59 0 141 -52.5t133 -52.5q49 0 92 43q29 29 62 29q29 0 49 -21.5t20 -50.5q0 -31 -26 -59 q-49 -53 -91 -76.5t-106 -23.5q-59 0 -141 52t-133 52q-49 0 -92 -43q-29 -29 -62 -29q-29 0 -49.5 21.5t-20.5 50.5zM539 1323l8 23q31 88 88 88q25 0 43 -15.5t25.5 -30t19.5 -42.5l457 -1201q8 -25 8 -47q0 -45 -26.5 -71.5t-71.5 -26.5q-64 0 -91 68z" />
<glyph unicode="&#xc4;" d="M82 98q0 23 8 47l367 967l100 -276l-84 -244h176l64 -180h-307l-136 -344q-27 -68 -90 -68q-45 0 -71.5 26.5t-26.5 71.5zM317 1698q0 53 36 89t85 36q53 0 89 -37t36 -88q0 -49 -37 -85t-88 -36q-49 0 -85 36t-36 85zM539 1323l8 23q31 88 88 88q25 0 43 -15.5t25.5 -30 t19.5 -42.5l457 -1201q8 -25 8 -47q0 -45 -26.5 -71.5t-71.5 -26.5q-64 0 -91 68zM709 1698q0 53 35.5 89t84.5 36q53 0 89 -36t36 -89q0 -49 -36.5 -85t-88.5 -36q-49 0 -84.5 37t-35.5 84z" />
<glyph unicode="&#xc5;" d="M82 98q0 23 8 47l367 967l100 -276l-84 -244h176l64 -180h-307l-136 -344q-27 -68 -90 -68q-45 0 -71.5 26.5t-26.5 71.5zM420 1751q0 76 48 134.5t122 74.5v-125q-49 -27 -49 -84q0 -61 49 -84v-127q-74 16 -122 74.5t-48 136.5zM539 1323l8 23q31 88 88 88 q25 0 43 -15.5t25.5 -30t19.5 -42.5l457 -1201q8 -25 8 -47q0 -45 -26.5 -71.5t-71.5 -26.5q-64 0 -91 68zM680 1540v127q49 25 49 84q0 55 -49 84v127q74 -16 122 -75.5t48 -135.5q0 -78 -48 -136.5t-122 -74.5z" />
<glyph unicode="&#xc6;" d="M29 100q0 18 6 41l284 1205q20 88 89 88h120l-305 -1344q-20 -90 -100 -90q-94 0 -94 100zM422 412l41 180h151v661l43 181h416q106 0 106.5 -90.5t-106.5 -90.5h-262v-426h205q102 0 102 -90t-102 -90h-205v-467h293q109 0 108.5 -90t-108.5 -90h-379q-47 0 -79 31.5 t-32 79.5v301h-192z" />
<glyph unicode="&#xc7;" d="M106 717q0 340 157 538.5t433 198.5q141 0 244.5 -39t204.5 -139q37 -37 37 -80q0 -41 -32 -70.5t-71 -29.5q-37 0 -67 32q-129 145 -316 146q-135 0 -226 -85t-127 -205t-36 -267.5t36 -267t127 -204.5t226 -85q186 0 316 145q31 33 67 33q39 0 71 -29.5t32 -70.5 q0 -43 -37 -80q-100 -100 -203.5 -139t-245.5 -39q-276 0 -433 198.5t-157 538.5zM563 -436q0 24 10 51l76 195q27 72 80 71q37 0 59.5 -21.5t22.5 -56.5q0 -25 -10 -51l-76 -194q-27 -72 -80 -72q-35 0 -58.5 21.5t-23.5 56.5z" />
<glyph unicode="&#xc8;" d="M152 111v1212q0 47 31.5 79t78.5 32h725q106 0 106.5 -90.5t-106.5 -90.5h-639v-426h471q102 0 102.5 -90t-102.5 -90h-471v-467h670q109 0 108.5 -90t-108.5 -90h-756q-47 0 -78.5 31.5t-31.5 79.5zM389 1778q0 35 25.5 60.5t62.5 25.5q27 0 55 -15l250 -127 q55 -29 56 -82q0 -37 -25 -64.5t-61 -27.5q-16 1 -41 11l-277 141q-45 25 -45 78z" />
<glyph unicode="&#xc9;" d="M152 111v1212q0 47 31.5 79t78.5 32h725q106 0 106.5 -90.5t-106.5 -90.5h-639v-426h471q102 0 102.5 -90t-102.5 -90h-471v-467h670q109 0 108.5 -90t-108.5 -90h-756q-47 0 -78.5 31.5t-31.5 79.5zM414 1681q0 53 55 82l250 127q29 14 55 15q37 0 62.5 -26t25.5 -60 q0 -53 -45 -78l-276 -142q-25 -10 -41 -10q-37 0 -61.5 28t-24.5 64z" />
<glyph unicode="&#xca;" d="M152 111v1212q0 47 31.5 79t78.5 32h725q106 0 106.5 -90.5t-106.5 -90.5h-639v-426h471q102 0 102.5 -90t-102.5 -90h-471v-467h670q109 0 108.5 -90t-108.5 -90h-756q-47 0 -78.5 31.5t-31.5 79.5zM319 1681q0 41 39 74l209 164q35 27 68 27t67 -27l209 -164 q39 -33 39 -74q0 -39 -24.5 -65.5t-63.5 -26.5q-29 0 -53 21l-174 137l-174 -137q-27 -20 -53 -21q-39 0 -64 26.5t-25 65.5z" />
<glyph unicode="&#xcb;" d="M152 111v1212q0 47 31.5 79t78.5 32h725q106 0 106.5 -90.5t-106.5 -90.5h-639v-426h471q102 0 102.5 -90t-102.5 -90h-471v-467h670q109 0 108.5 -90t-108.5 -90h-756q-47 0 -78.5 31.5t-31.5 79.5zM332 1698q0 53 35.5 89t85.5 36q51 0 88 -37t37 -88q0 -49 -37 -85 t-88 -36q-49 0 -85 36t-36 85zM723 1698q0 53 36 89t85 36q53 0 89 -36t36 -89q0 -49 -37 -85t-88 -36q-49 0 -85 37t-36 84z" />
<glyph unicode="&#xcc;" d="M190 90q0 90 111 90h217v1073h-217q-111 0 -111 90.5t111 90.5h631q111 0 110.5 -90.5t-110.5 -90.5h-217v-1073h217q111 0 110.5 -90t-110.5 -90h-631q-111 0 -111 90zM397 1819q0 35 26 60.5t62 25.5q27 0 56 -15l250 -127q55 -29 55 -82q0 -37 -24.5 -64.5 t-61.5 -27.5q-16 0 -41 10l-277 142q-45 25 -45 78z" />
<glyph unicode="&#xcd;" d="M190 90q0 90 111 90h217v1073h-217q-111 0 -111 90.5t111 90.5h631q111 0 110.5 -90.5t-110.5 -90.5h-217v-1073h217q111 0 110.5 -90t-110.5 -90h-631q-111 0 -111 90zM397 1681q0 53 56 82l249 127q29 14 56 15q37 0 62.5 -26t25.5 -60q0 -53 -45 -78l-277 -142 q-25 -10 -41 -10q-37 0 -61.5 28t-24.5 64z" />
<glyph unicode="&#xce;" d="M190 90q0 90 111 90h217v1073h-217q-111 0 -111 90.5t111 90.5h631q111 0 110.5 -90.5t-110.5 -90.5h-217v-1073h217q111 0 110.5 -90t-110.5 -90h-631q-111 0 -111 90zM303 1681q0 41 39 74l209 164q35 27 67.5 27t67.5 -27l209 -164q39 -33 39 -74q0 -39 -24.5 -65.5 t-63.5 -26.5q-29 0 -53 21l-175 137l-174 -137q-27 -20 -53 -21q-39 0 -63.5 26.5t-24.5 65.5z" />
<glyph unicode="&#xcf;" d="M190 90q0 90 111 90h217v1073h-217q-111 0 -111 90.5t111 90.5h631q111 0 110.5 -90.5t-110.5 -90.5h-217v-1073h217q111 0 110.5 -90t-110.5 -90h-631q-111 0 -111 90zM301 1698q0 53 36 89t85 36q53 0 89 -37t36 -88q0 -49 -37 -85t-88 -36q-49 0 -85 36t-36 85z M692 1698q0 53 36 89t85 36q53 0 89 -36t36 -89q0 -49 -37 -85t-88 -36q-49 0 -85 37t-36 84z" />
<glyph unicode="&#xd0;" d="M-2 717q0 90 104 90h70v516q0 47 32 79t79 32h86v-627h69q104 0 104.5 -90t-104.5 -90h-69v-627h-84q-49 0 -81 31.5t-32 79.5v516h-70q-104 0 -104 90zM516 0v180h119q168 0 258 146.5t90 390.5t-90 390t-258 146h-119v181h115q260 0 404.5 -199t144.5 -518.5 t-144.5 -518t-404.5 -198.5h-115z" />
<glyph unicode="&#xd1;" d="M137 111v1214q8 109 94 109q55 0 91 -45l614 -973v907q0 47 26.5 79t69.5 32q45 0 73 -32t28 -79v-1214q0 -45 -28 -77t-71 -32q-57 0 -92 45l-608 973v-907q0 -47 -27.5 -79t-70.5 -32q-45 0 -72 32t-27 79zM274 1663q0 31 27 59q49 53 91 77t106 24q59 0 141 -52.5 t133 -52.5q49 0 92 43q29 29 62 29q29 0 49 -21.5t20 -50.5q0 -31 -26 -59q-49 -53 -91 -76.5t-106 -23.5q-59 0 -141 52t-133 52q-49 0 -92 -43q-29 -29 -62 -29q-29 0 -49.5 21.5t-20.5 50.5z" />
<glyph unicode="&#xd2;" d="M61 717q0 303 129 503.5t371 229.5v-180q-147 -31 -223 -180.5t-76 -372.5q0 -225 76 -374.5t223 -178.5v-180q-242 29 -371 230.5t-129 502.5zM416 1819q0 35 25.5 60.5t62.5 25.5q27 0 55 -15l250 -127q55 -29 55 -82q0 -37 -24.5 -64.5t-61.5 -27.5q-16 0 -41 10 l-276 142q-45 25 -45 78zM709 -16v180q147 31 223 180.5t76 372.5q0 225 -76 374.5t-223 178.5v180q242 -29 370.5 -230.5t128.5 -502.5q0 -303 -129 -504t-370 -229z" />
<glyph unicode="&#xd3;" d="M61 717q0 303 129 503.5t371 229.5v-180q-147 -31 -223 -180.5t-76 -372.5q0 -225 76 -374.5t223 -178.5v-180q-242 29 -371 230.5t-129 502.5zM414 1681q0 53 55 82l250 127q29 14 55 15q37 0 62.5 -26t25.5 -60q0 -53 -45 -78l-276 -142q-25 -10 -41 -10 q-37 0 -61.5 28t-24.5 64zM709 -16v180q147 31 223 180.5t76 372.5q0 225 -76 374.5t-223 178.5v180q242 -29 370.5 -230.5t128.5 -502.5q0 -303 -129 -504t-370 -229z" />
<glyph unicode="&#xd4;" d="M61 717q0 303 129 503.5t371 229.5v-180q-147 -31 -223 -180.5t-76 -372.5q0 -225 76 -374.5t223 -178.5v-180q-242 29 -371 230.5t-129 502.5zM319 1681q0 41 39 74l209 164q35 27 68 27t67 -27l209 -164q39 -33 39 -74q0 -39 -24.5 -65.5t-63.5 -26.5q-29 0 -53 21 l-174 137l-174 -137q-27 -20 -53 -21q-39 0 -64 26.5t-25 65.5zM709 -16v180q147 31 223 180.5t76 372.5q0 225 -76 374.5t-223 178.5v180q242 -29 370.5 -230.5t128.5 -502.5q0 -303 -129 -504t-370 -229z" />
<glyph unicode="&#xd5;" d="M61 717q0 303 129 503.5t371 229.5v-180q-147 -31 -223 -180.5t-76 -372.5q0 -225 76 -374.5t223 -178.5v-180q-242 29 -371 230.5t-129 502.5zM274 1663q0 31 27 59q49 53 91 77t106 24q59 0 141 -52.5t133 -52.5q49 0 92 43q29 29 62 29q29 0 49 -21.5t20 -50.5 q0 -31 -26 -59q-49 -53 -91 -76.5t-106 -23.5q-59 0 -141 52t-133 52q-49 0 -92 -43q-29 -29 -62 -29q-29 0 -49.5 21.5t-20.5 50.5zM709 -16v180q147 31 223 180.5t76 372.5q0 225 -76 374.5t-223 178.5v180q242 -29 370.5 -230.5t128.5 -502.5q0 -303 -129 -504t-370 -229 z" />
<glyph unicode="&#xd6;" d="M61 717q0 303 129 503.5t371 229.5v-180q-147 -31 -223 -180.5t-76 -372.5q0 -225 76 -374.5t223 -178.5v-180q-242 29 -371 230.5t-129 502.5zM319 1698q0 53 36 89t85 36q51 0 88 -37t37 -88q0 -49 -36.5 -85t-88.5 -36q-49 0 -85 36t-36 85zM709 -16v180 q147 31 223 180.5t76 372.5q0 225 -76 374.5t-223 178.5v180q242 -29 370.5 -230.5t128.5 -502.5q0 -303 -129 -504t-370 -229zM711 1698q0 53 35.5 89t84.5 36q53 0 89 -36t36 -89q0 -49 -36.5 -85t-88.5 -36q-49 0 -84.5 37t-35.5 84z" />
<glyph unicode="&#xd7;" d="M199 305q0 37 41 78l233 231l-233 232q-41 41 -41 78q0 31 27.5 58.5t58.5 27.5q36 0 77 -41l232 -232l231 232q41 41 78 41q31 0 58.5 -28t27.5 -58q0 -37 -41 -78l-233 -232l233 -231q41 -41 41 -78q0 -31 -27.5 -58.5t-58.5 -27.5q-37 0 -78 41l-231 232l-232 -232 q-41 -41 -77 -41q-31 0 -58.5 27.5t-27.5 58.5z" />
<glyph unicode="&#xd8;" d="M61 717q0 303 129 503.5t371 229.5v-180q-147 -31 -223 -180.5t-76 -372.5q0 -225 76 -374.5t223 -178.5v-180q-168 20 -282 127l-52 -70q-31 -41 -73 -41q-41 0 -66 23.5t-25 62.5q0 31 21 57l82 111q-104 190 -105 463zM416 575l366 478q51 -68 72 -197l-369 -475 q-49 67 -69 194zM709 -16v180q147 31 223 180.5t76 372.5q0 225 -76 374.5t-223 178.5v180q164 -20 282 -127l51 70q31 41 74 41q41 0 65.5 -24t24.5 -62q0 -29 -24 -64l-78 -104q104 -190 104 -463q0 -303 -129 -504t-370 -229z" />
<glyph unicode="&#xd9;" d="M127 522v801q0 47 27.5 79t72.5 32q43 0 70 -32t27 -79v-795q0 -369 325 -368q322 0 322 368v795q0 47 26.5 79t71.5 32t71.5 -32t26.5 -79v-795q0 -248 -135 -398t-383 -150t-385 149t-137 393zM426 1819q0 35 25.5 60.5t62.5 25.5q27 0 55 -15l250 -127q55 -29 55 -82 q0 -37 -24.5 -64.5t-61.5 -27.5q-15 0 -40 10l-277 142q-45 25 -45 78z" />
<glyph unicode="&#xda;" d="M127 522v801q0 47 27.5 79t72.5 32q43 0 70 -32t27 -79v-795q0 -369 325 -368q322 0 322 368v795q0 47 26.5 79t71.5 32t71.5 -32t26.5 -79v-795q0 -248 -135 -398t-383 -150t-385 149t-137 393zM424 1681q0 53 55 82l250 127q29 14 55 15q37 0 62.5 -26t25.5 -60 q0 -53 -45 -78l-276 -142q-25 -10 -41 -10q-37 0 -61.5 28t-24.5 64z" />
<glyph unicode="&#xdb;" d="M127 522v801q0 47 27.5 79t72.5 32q43 0 70 -32t27 -79v-795q0 -369 325 -368q322 0 322 368v795q0 47 26.5 79t71.5 32t71.5 -32t26.5 -79v-795q0 -248 -135 -398t-383 -150t-385 149t-137 393zM319 1681q0 41 39 74l209 164q35 27 68 27t67 -27l209 -164q39 -33 39 -74 q0 -39 -24.5 -65.5t-63.5 -26.5q-29 0 -53 21l-174 137l-174 -137q-27 -20 -53 -21q-39 0 -64 26.5t-25 65.5z" />
<glyph unicode="&#xdc;" d="M127 522v801q0 47 27.5 79t72.5 32q43 0 70 -32t27 -79v-795q0 -369 325 -368q322 0 322 368v795q0 47 26.5 79t71.5 32t71.5 -32t26.5 -79v-795q0 -248 -135 -398t-383 -150t-385 149t-137 393zM332 1698q0 53 35.5 89t85.5 36q51 0 88 -37t37 -88q0 -49 -37 -85 t-88 -36q-49 0 -85 36t-36 85zM723 1698q0 53 36 89t85 36q53 0 89 -36t36 -89q0 -49 -37 -85t-88 -36q-49 0 -85 37t-36 84z" />
<glyph unicode="&#xdd;" d="M92 1333q0 53 45 86q23 14 60 15q57 0 86 -43l352 -560l352 558q33 45 86 45q35 0 64 -21q41 -29 41 -82q0 -37 -19 -63l-426 -641v-521q0 -45 -27.5 -75.5t-70.5 -30.5t-70.5 30.5t-27.5 75.5v521l-426 643q-18 25 -19 63zM414 1681q0 53 55 82l250 127q29 14 55 15 q37 0 62.5 -26t25.5 -60q0 -53 -45 -78l-276 -142q-25 -10 -41 -10q-37 0 -61.5 28t-24.5 64z" />
<glyph unicode="&#xde;" d="M186 111v1212q0 49 26 80t73 31q45 0 71.5 -31t26.5 -80v-1212q0 -49 -26.5 -80t-71.5 -31q-47 0 -73 30.5t-26 80.5zM530 274v181h211q250 0 250 262t-250 262h-211v180h175q236 0 359.5 -112.5t123.5 -329.5t-124 -330t-359 -113h-175z" />
<glyph unicode="&#xdf;" d="M80 942q0 82 96 82h123q0 217 102.5 323.5t270.5 106.5q178 0 283.5 -93t105.5 -294q0 -164 -119 -279q213 -98 213 -368q0 -207 -125 -313.5t-340 -106.5h-65v164h65q281 0 281 256t-271 256h-75v164h71q70 2 125.5 69.5t55.5 157.5q0 223 -197 223t-197 -266v-922 q0 -45 -24.5 -73.5t-67.5 -28.5q-41 0 -66.5 29.5t-25.5 72.5v758h-123q-96 0 -96 82z" />
<glyph unicode="&#xe0;" d="M141 512q0 203 108.5 353t301.5 175v-168q-102 -27 -163.5 -124t-61.5 -236q0 -141 60 -237.5t165 -122.5v-168q-197 25 -303.5 174t-106.5 354zM397 1409q0 35 26 60.5t62 25.5q27 0 56 -14l250 -127q55 -29 55 -82q0 -37 -24.5 -64.5t-61.5 -27.5q-16 0 -41 10 l-277 141q-45 25 -45 78zM690 -16v168q102 27 163.5 124t61.5 236q0 141 -60.5 238t-164.5 122v168q150 -25 221 -122q4 49 28 77.5t62 28.5q43 0 71 -26.5t28 -75.5v-820q0 -49 -28 -75.5t-71 -26.5q-39 0 -62.5 28.5t-27.5 77.5q-72 -98 -221 -122z" />
<glyph unicode="&#xe1;" d="M141 512q0 203 108.5 353t301.5 175v-168q-102 -27 -163.5 -124t-61.5 -236q0 -141 60 -237.5t165 -122.5v-168q-197 25 -303.5 174t-106.5 354zM397 1272q0 53 56 82l249 127q29 14 56 14q37 0 62.5 -25.5t25.5 -60.5q0 -53 -45 -78l-277 -141q-25 -10 -41 -10 q-37 0 -61.5 27.5t-24.5 64.5zM690 -16v168q102 27 163.5 124t61.5 236q0 141 -60.5 238t-164.5 122v168q150 -25 221 -122q4 49 28 77.5t62 28.5q43 0 71 -26.5t28 -75.5v-820q0 -49 -28 -75.5t-71 -26.5q-39 0 -62.5 28.5t-27.5 77.5q-72 -98 -221 -122z" />
<glyph unicode="&#xe2;" d="M141 512q0 203 108.5 353t301.5 175v-168q-102 -27 -163.5 -124t-61.5 -236q0 -141 60 -237.5t165 -122.5v-168q-197 25 -303.5 174t-106.5 354zM305 1272q0 41 39 74l209 163q35 27 67.5 27t67.5 -27l209 -163q39 -33 39 -74q0 -39 -24.5 -65.5t-63.5 -26.5 q-29 0 -53 20l-174 137l-175 -137q-27 -20 -53 -20q-39 0 -63.5 26.5t-24.5 65.5zM690 -16v168q102 27 163.5 124t61.5 236q0 141 -60.5 238t-164.5 122v168q150 -25 221 -122q4 49 28 77.5t62 28.5q43 0 71 -26.5t28 -75.5v-820q0 -49 -28 -75.5t-71 -26.5 q-39 0 -62.5 28.5t-27.5 77.5q-72 -98 -221 -122z" />
<glyph unicode="&#xe3;" d="M141 512q0 203 108.5 353t301.5 175v-168q-102 -27 -163.5 -124t-61.5 -236q0 -141 60 -237.5t165 -122.5v-168q-197 25 -303.5 174t-106.5 354zM274 1315q0 31 27 59q49 53 91 77t106 24q59 0 141 -52.5t133 -52.5q49 0 92 43q29 29 62 29q29 0 49 -21.5t20 -50.5 q0 -31 -26 -59q-49 -53 -91 -77t-106 -24q-59 0 -141 52.5t-133 52.5q-49 0 -92 -43q-29 -29 -62 -29q-29 0 -49.5 21.5t-20.5 50.5zM690 -16v168q102 27 163.5 124t61.5 236q0 141 -60.5 238t-164.5 122v168q150 -25 221 -122q4 49 28 77.5t62 28.5q43 0 71 -26.5t28 -75.5 v-820q0 -49 -28 -75.5t-71 -26.5q-39 0 -62.5 28.5t-27.5 77.5q-72 -98 -221 -122z" />
<glyph unicode="&#xe4;" d="M141 512q0 203 108.5 353t301.5 175v-168q-102 -27 -163.5 -124t-61.5 -236q0 -141 60 -237.5t165 -122.5v-168q-197 25 -303.5 174t-106.5 354zM305 1329q0 53 36 89t85 36q53 0 89 -37t36 -88q0 -49 -37 -85t-88 -36q-49 0 -85 36t-36 85zM690 -16v168 q102 27 163.5 124t61.5 236q0 141 -60.5 238t-164.5 122v168q150 -25 221 -122q4 49 28 77.5t62 28.5q43 0 71 -26.5t28 -75.5v-820q0 -49 -28 -75.5t-71 -26.5q-39 0 -62.5 28.5t-27.5 77.5q-72 -98 -221 -122zM696 1329q0 53 36 89t85 36q53 0 89 -36t36 -89 q0 -49 -37 -85t-88 -36q-49 0 -85 37t-36 84z" />
<glyph unicode="&#xe5;" d="M141 512q0 203 108.5 353t301.5 175v-168q-102 -27 -163.5 -124t-61.5 -236q0 -141 60 -237.5t165 -122.5v-168q-197 25 -303.5 174t-106.5 354zM406 1403q0 76 48 134t121 75v-125q-49 -27 -49 -84q0 -61 49 -84v-127q-74 16 -121.5 74.5t-47.5 136.5zM666 1192v127 q49 25 49 84q0 55 -49 84v127q74 -16 122 -75.5t48 -135.5q0 -78 -48.5 -136.5t-121.5 -74.5zM690 -16v168q102 27 163.5 124t61.5 236q0 141 -60.5 238t-164.5 122v168q150 -25 221 -122q4 49 28 77.5t62 28.5q43 0 71 -26.5t28 -75.5v-820q0 -49 -28 -75.5t-71 -26.5 q-39 0 -62.5 28.5t-27.5 77.5q-72 -98 -221 -122z" />
<glyph unicode="&#xe6;" d="M72 272q0 141 90 223.5t241 100.5v-164q-147 -29 -147 -160q0 -68 35 -98.5t84 -30.5q80 0 106.5 77t26.5 218v164q0 143 -29.5 211t-101.5 68q-55 0 -85 -27t-54 -88q-18 -45 -68 -45q-33 0 -59.5 22.5t-26.5 57.5q0 16 4 28q74 215 285 215q164 0 239 -110 q80 96 189 110v-163q-51 -20 -73.5 -89t-31.5 -190h105v-164h-105q0 -158 28 -226.5t128 -68.5q106 0 176 121q31 51 78 51q78 0 78 -84q0 -39 -29 -81q-66 -94 -128 -132t-175 -38q-172 0 -254 110q-80 -111 -223 -110q-135 0 -219 72.5t-84 219.5zM903 438v164h111 q-14 238 -111 279v163q299 -35 299 -503q0 -45 -27.5 -74t-74.5 -29h-197z" />
<glyph unicode="&#xe7;" d="M141 512q0 229 137.5 380.5t370.5 151.5q139 0 224 -39.5t155 -113.5q41 -41 41 -86q0 -41 -23.5 -67.5t-64.5 -26.5t-76 45q-53 74 -107.5 99.5t-148.5 25.5q-145 0 -236 -106.5t-91 -262.5t91 -262.5t236 -106.5q94 0 148.5 26t107.5 99q35 45 76 45t64.5 -26.5 t23.5 -67.5q0 -45 -41 -86q-70 -74 -155 -113.5t-224 -39.5q-233 0 -370.5 151.5t-137.5 380.5zM510 -436q0 24 10 51l76 195q27 72 80 71q37 0 59.5 -21.5t22.5 -56.5q0 -25 -10 -51l-76 -194q-27 -72 -80 -72q-35 0 -58.5 21.5t-23.5 56.5z" />
<glyph unicode="&#xe8;" d="M141 512q0 211 117 358t322 170v-168q-98 -23 -165 -97.5t-85 -172.5h250v-164h-250q16 -121 102 -208t217 -87q199 0 307 125q31 35 72 35t65.5 -29.5t24.5 -66.5t-33 -70q-164 -158 -436 -157q-233 0 -370.5 151.5t-137.5 380.5zM424 1409q0 35 25.5 60.5t62.5 25.5 q27 0 55 -14l250 -127q55 -29 55 -82q0 -37 -24.5 -64.5t-61.5 -27.5q-16 0 -41 10l-276 141q-45 25 -45 78zM719 438v164h235q-55 231 -235 270v168q190 -23 307 -163t117 -336q0 -49 -28 -76t-75 -27h-321z" />
<glyph unicode="&#xe9;" d="M141 512q0 211 117 358t322 170v-168q-98 -23 -165 -97.5t-85 -172.5h250v-164h-250q16 -121 102 -208t217 -87q199 0 307 125q31 35 72 35t65.5 -29.5t24.5 -66.5t-33 -70q-164 -158 -436 -157q-233 0 -370.5 151.5t-137.5 380.5zM428 1272q0 53 55 82l250 127 q29 14 55 14q37 0 63 -25.5t26 -60.5q-1 -53 -46 -78l-276 -141q-25 -10 -41 -10q-37 0 -61.5 27.5t-24.5 64.5zM719 438v164h235q-55 231 -235 270v168q190 -23 307 -163t117 -336q0 -49 -28 -76t-75 -27h-321z" />
<glyph unicode="&#xea;" d="M141 512q0 211 117 358t322 170v-168q-98 -23 -165 -97.5t-85 -172.5h250v-164h-250q16 -121 102 -208t217 -87q199 0 307 125q31 35 72 35t65.5 -29.5t24.5 -66.5t-33 -70q-164 -158 -436 -157q-233 0 -370.5 151.5t-137.5 380.5zM336 1272q0 41 39 74l209 163 q35 27 67.5 27t67.5 -27l209 -163q39 -33 39 -74q0 -39 -24.5 -65.5t-63.5 -26.5q-29 0 -54 20l-174 137l-174 -137q-27 -20 -53 -20q-39 0 -63.5 26.5t-24.5 65.5zM719 438v164h235q-55 231 -235 270v168q190 -23 307 -163t117 -336q0 -49 -28 -76t-75 -27h-321z" />
<glyph unicode="&#xeb;" d="M141 512q0 211 117 358t322 170v-168q-98 -23 -165 -97.5t-85 -172.5h250v-164h-250q16 -121 102 -208t217 -87q199 0 307 125q31 35 72 35t65.5 -29.5t24.5 -66.5t-33 -70q-164 -158 -436 -157q-233 0 -370.5 151.5t-137.5 380.5zM336 1329q0 53 36 89t85 36 q51 0 88 -37t37 -88q0 -49 -37 -85t-88 -36q-49 0 -85 36t-36 85zM719 438v164h235q-55 231 -235 270v168q190 -23 307 -163t117 -336q0 -49 -28 -76t-75 -27h-321zM727 1329q0 53 36 89t85 36q53 0 89 -36t36 -89q0 -49 -37 -85t-88 -36q-49 0 -85 37t-36 84z" />
<glyph unicode="&#xec;" d="M207 82q0 39 28.5 60.5t71.5 21.5h297v696h-229q-43 0 -72 21.5t-29 60.5t29 60.5t72 21.5h321q39 0 65.5 -23.5t26.5 -58.5v-778h297q43 0 72 -21.5t29 -60.5t-29 -60.5t-72 -21.5h-778q-43 0 -71.5 21.5t-28.5 60.5zM328 1409q0 35 25.5 60.5t62.5 25.5q27 0 55 -14 l250 -127q55 -29 55 -82q0 -37 -24.5 -64.5t-61.5 -27.5q-16 0 -41 10l-276 141q-45 25 -45 78z" />
<glyph unicode="&#xed;" d="M207 82q0 39 28.5 60.5t71.5 21.5h297v696h-229q-43 0 -72 21.5t-29 60.5t29 60.5t72 21.5h321q39 0 65.5 -23.5t26.5 -58.5v-778h297q43 0 72 -21.5t29 -60.5t-29 -60.5t-72 -21.5h-778q-43 0 -71.5 21.5t-28.5 60.5zM315 1272q0 53 56 82l250 127q29 14 55 14 q37 0 62.5 -25.5t25.5 -60.5q0 -53 -45 -78l-277 -141q-25 -10 -41 -10q-37 0 -61.5 27.5t-24.5 64.5z" />
<glyph unicode="&#xee;" d="M207 82q0 39 28.5 60.5t71.5 21.5h297v696h-229q-43 0 -72 21.5t-29 60.5t29 60.5t72 21.5h321q39 0 65.5 -23.5t26.5 -58.5v-778h297q43 0 72 -21.5t29 -60.5t-29 -60.5t-72 -21.5h-778q-43 0 -71.5 21.5t-28.5 60.5zM293 1272q0 41 39 74l209 163q35 27 67.5 27 t67.5 -27l209 -163q39 -33 39 -74q0 -39 -25 -65.5t-63 -26.5q-29 0 -54 20l-174 137l-174 -137q-27 -20 -53 -20q-39 0 -63.5 26.5t-24.5 65.5z" />
<glyph unicode="&#xef;" d="M207 82q0 39 28.5 60.5t71.5 21.5h297v696h-229q-43 0 -72 21.5t-29 60.5t29 60.5t72 21.5h321q39 0 65.5 -23.5t26.5 -58.5v-778h297q43 0 72 -21.5t29 -60.5t-29 -60.5t-72 -21.5h-778q-43 0 -71.5 21.5t-28.5 60.5zM279 1329q0 53 35.5 89t84.5 36q51 0 88 -37t37 -88 q0 -49 -36.5 -85t-88.5 -36q-49 0 -84.5 36t-35.5 85zM670 1329q0 53 35.5 89t85.5 36q53 0 88.5 -36t35.5 -89q0 -49 -36.5 -85t-87.5 -36q-49 0 -85 37t-36 84z" />
<glyph unicode="&#xf0;" d="M143 512q0 211 115 357t305 171v-168q-109 -25 -172 -120t-63 -240q0 -147 63.5 -242.5t171.5 -117.5v-168q-190 25 -305 171t-115 357zM340 1184q0 63 84 82l137 26q-10 6 -31.5 15.5t-29.5 13.5q-59 25 -60 78q0 37 27 65.5t72 28.5q27 0 55 -14q127 -66 211 -138 l141 29q10 2 29 2q37 0 61.5 -22.5t24.5 -59.5q0 -63 -84 -82l-39 -8q184 -246 184 -688q0 -211 -114.5 -357.5t-305.5 -170.5v168q109 23 172.5 118t63.5 242q0 145 -63.5 240.5t-172.5 119.5v168q86 -12 162 -53q-41 96 -116 174l-293 -57q-10 -2 -29 -2q-37 0 -61.5 23.5 t-24.5 58.5z" />
<glyph unicode="&#xf1;" d="M219 100v824q0 43 25.5 71.5t66.5 28.5t66.5 -28.5t25.5 -71.5v-41q23 66 108 113.5t181 47.5q387 0 387 -395v-549q0 -43 -25.5 -71.5t-66.5 -28.5t-66.5 28.5t-25.5 71.5v508q0 145 -45 209t-158 64q-141 0 -215 -107.5t-74 -288.5v-385q0 -43 -25.5 -71.5t-66.5 -28.5 t-66.5 28.5t-25.5 71.5zM274 1315q0 31 27 59q49 53 91 77t106 24q59 0 141 -52.5t133 -52.5q49 0 92 43q29 29 62 29q29 0 49 -21.5t20 -50.5q0 -31 -26 -59q-49 -53 -91 -77t-106 -24q-59 0 -141 52.5t-133 52.5q-49 0 -92 -43q-29 -29 -62 -29q-29 0 -49.5 21.5 t-20.5 50.5z" />
<glyph unicode="&#xf2;" d="M143 512q0 211 115 357t305 171v-168q-109 -25 -172 -120t-63 -240q0 -147 63.5 -242.5t171.5 -117.5v-168q-190 25 -305 171t-115 357zM410 1409q0 35 25.5 60.5t62.5 25.5q27 0 55 -14l250 -127q55 -29 55 -82q0 -37 -24.5 -64.5t-61.5 -27.5q-16 0 -41 10l-276 141 q-45 25 -45 78zM702 -16v168q109 23 172.5 118t63.5 242q0 145 -63.5 240t-172.5 120v168q190 -25 305 -171t115 -357t-114.5 -357.5t-305.5 -170.5z" />
<glyph unicode="&#xf3;" d="M143 512q0 211 115 357t305 171v-168q-109 -25 -172 -120t-63 -240q0 -147 63.5 -242.5t171.5 -117.5v-168q-190 25 -305 171t-115 357zM410 1272q0 53 55 82l250 127q29 14 55 14q37 0 62.5 -25.5t25.5 -60.5q0 -53 -45 -78l-276 -141q-25 -10 -41 -10q-37 0 -61.5 27.5 t-24.5 64.5zM702 -16v168q109 23 172.5 118t63.5 242q0 145 -63.5 240t-172.5 120v168q190 -25 305 -171t115 -357t-114.5 -357.5t-305.5 -170.5z" />
<glyph unicode="&#xf4;" d="M143 512q0 211 115 357t305 171v-168q-109 -25 -172 -120t-63 -240q0 -147 63.5 -242.5t171.5 -117.5v-168q-190 25 -305 171t-115 357zM317 1272q0 41 39 74l209 163q35 27 68 27t67 -27l209 -163q39 -33 39 -74q0 -39 -24.5 -65.5t-63.5 -26.5q-29 0 -53 20l-174 137 l-174 -137q-27 -20 -53 -20q-39 0 -64 26.5t-25 65.5zM702 -16v168q109 23 172.5 118t63.5 242q0 145 -63.5 240t-172.5 120v168q190 -25 305 -171t115 -357t-114.5 -357.5t-305.5 -170.5z" />
<glyph unicode="&#xf5;" d="M143 512q0 211 115 357t305 171v-168q-109 -25 -172 -120t-63 -240q0 -147 63.5 -242.5t171.5 -117.5v-168q-190 25 -305 171t-115 357zM274 1315q0 31 27 59q49 53 91 77t106 24q59 0 141 -52.5t133 -52.5q49 0 92 43q29 29 62 29q29 0 49 -21.5t20 -50.5q0 -31 -26 -59 q-49 -53 -91 -77t-106 -24q-59 0 -141 52.5t-133 52.5q-49 0 -92 -43q-29 -29 -62 -29q-29 0 -49.5 21.5t-20.5 50.5zM702 -16v168q109 23 172.5 118t63.5 242q0 145 -63.5 240t-172.5 120v168q190 -25 305 -171t115 -357t-114.5 -357.5t-305.5 -170.5z" />
<glyph unicode="&#xf6;" d="M143 512q0 211 115 357t305 171v-168q-109 -25 -172 -120t-63 -240q0 -147 63.5 -242.5t171.5 -117.5v-168q-190 25 -305 171t-115 357zM315 1329q0 53 36 89t85 36q51 0 88 -37t37 -88q0 -49 -37 -85t-88 -36q-49 0 -85 36t-36 85zM702 -16v168q109 23 172.5 118 t63.5 242q0 145 -63.5 240t-172.5 120v168q190 -25 305 -171t115 -357t-114.5 -357.5t-305.5 -170.5zM707 1329q0 53 35.5 89t84.5 36q53 0 89 -36t36 -89q0 -49 -36.5 -85t-88.5 -36q-49 0 -84.5 37t-35.5 84z" />
<glyph unicode="&#xf7;" d="M119 616q0 86 104 86h826q104 0 104 -86t-104 -86h-826q-104 0 -104 86zM469 258q0 70 48 118t118 48t118 -48t48 -118t-48 -118t-118 -48t-118 48t-48 118zM469 970.5q0 69.5 48 118t118 48.5t118 -48.5t48 -118t-48 -117.5t-118 -48t-118 48t-48 117.5z" />
<glyph unicode="&#xf8;" d="M143 512q0 211 115 357t305 171v-168q-109 -25 -172 -120t-63 -240q0 -147 63.5 -242.5t171.5 -117.5v-168q-113 16 -196 69l-17 -22q-27 -35 -61 -35q-41 0 -70 27.5t-29 62.5q0 25 21 51l31 39q-98 139 -99 336zM473 475l197 256q87 -22 116 -137l-225 -291 q-78 45 -88 172zM702 -16v168q109 23 172.5 118t63.5 242q0 145 -63.5 240t-172.5 120v168q90 -12 166 -53l6 8q27 35 62 35q41 0 69.5 -26.5t28.5 -65.5q0 -25 -20 -51l-10 -13q119 -147 118 -362q0 -211 -114.5 -357.5t-305.5 -170.5z" />
<glyph unicode="&#xf9;" d="M219 375v549q0 43 25.5 71.5t66.5 28.5t66.5 -28.5t25.5 -71.5v-508q0 -145 45.5 -209t157.5 -64q143 0 216 107.5t73 288.5v385q0 43 25.5 71.5t66.5 28.5t66.5 -28.5t25.5 -71.5v-824q0 -43 -25.5 -71.5t-66.5 -28.5t-66.5 28.5t-25.5 71.5v41q-23 -66 -108 -113.5 t-181 -47.5q-387 0 -387 395zM410 1409q0 35 25.5 60.5t62.5 25.5q27 0 55 -14l250 -127q55 -29 55 -82q0 -37 -24.5 -64.5t-61.5 -27.5q-16 0 -41 10l-276 141q-45 25 -45 78z" />
<glyph unicode="&#xfa;" d="M219 375v549q0 43 25.5 71.5t66.5 28.5t66.5 -28.5t25.5 -71.5v-508q0 -145 45.5 -209t157.5 -64q143 0 216 107.5t73 288.5v385q0 43 25.5 71.5t66.5 28.5t66.5 -28.5t25.5 -71.5v-824q0 -43 -25.5 -71.5t-66.5 -28.5t-66.5 28.5t-25.5 71.5v41q-23 -66 -108 -113.5 t-181 -47.5q-387 0 -387 395zM430 1272q0 53 55 82l250 127q29 14 56 14q37 0 62.5 -25.5t25.5 -60.5q0 -53 -45 -78l-277 -141q-25 -10 -41 -10q-37 0 -61.5 27.5t-24.5 64.5z" />
<glyph unicode="&#xfb;" d="M219 375v549q0 43 25.5 71.5t66.5 28.5t66.5 -28.5t25.5 -71.5v-508q0 -145 45.5 -209t157.5 -64q143 0 216 107.5t73 288.5v385q0 43 25.5 71.5t66.5 28.5t66.5 -28.5t25.5 -71.5v-824q0 -43 -25.5 -71.5t-66.5 -28.5t-66.5 28.5t-25.5 71.5v41q-23 -66 -108 -113.5 t-181 -47.5q-387 0 -387 395zM334 1272q0 41 39 74l209 163q35 27 67.5 27t67.5 -27l209 -163q39 -33 39 -74q0 -39 -25 -65.5t-63 -26.5q-29 0 -54 20l-174 137l-174 -137q-27 -20 -53 -20q-39 0 -63.5 26.5t-24.5 65.5z" />
<glyph unicode="&#xfc;" d="M219 375v549q0 43 25.5 71.5t66.5 28.5t66.5 -28.5t25.5 -71.5v-508q0 -145 45.5 -209t157.5 -64q143 0 216 107.5t73 288.5v385q0 43 25.5 71.5t66.5 28.5t66.5 -28.5t25.5 -71.5v-824q0 -43 -25.5 -71.5t-66.5 -28.5t-66.5 28.5t-25.5 71.5v41q-23 -66 -108 -113.5 t-181 -47.5q-387 0 -387 395zM326 1329q0 53 35.5 89t84.5 36q53 0 89 -37t36 -88q0 -49 -36.5 -85t-88.5 -36q-49 0 -84.5 36t-35.5 85zM717 1329q0 53 35.5 89t85.5 36q53 0 89 -36t36 -89q0 -49 -37 -85t-88 -36q-49 0 -85 37t-36 84z" />
<glyph unicode="&#xfd;" d="M98 -305q0 37 22.5 58.5t55.5 21.5q16 0 45 -10.5t51 -10.5q88 0 143.5 60.5t110.5 193.5l11 25l-379 854q-8 16 -8 37q0 66 59 92q16 8 39 8q63 0 90 -59l303 -691l301 691q27 59 90 59q23 0 39 -8q59 -27 59 -92q0 -12 -8 -37l-389 -856q-104 -231 -205.5 -336 t-255.5 -105q-174 0 -174 105zM440 1272q0 53 56 82l249 127q29 14 56 14q37 0 62.5 -25.5t25.5 -60.5q0 -53 -45 -78l-277 -141q-25 -10 -41 -10q-37 0 -61.5 27.5t-24.5 64.5z" />
<glyph unicode="&#xfe;" d="M162 -309v1642q0 43 25.5 72t66.5 29t66.5 -29t25.5 -72v-413q66 96 219 120v-163q-104 -23 -161.5 -116t-57.5 -235v-28q4 -143 59.5 -235.5t159.5 -115.5v-163q-158 27 -219 125v-418q0 -43 -25.5 -72t-66.5 -29t-66.5 29t-25.5 72zM705 -16v163q106 23 162.5 119 t56.5 246q0 147 -56.5 243.5t-162.5 121.5v163q190 -23 296.5 -162t106.5 -366q0 -213 -105 -358t-298 -170z" />
<glyph unicode="&#xff;" d="M98 -305q0 37 22.5 58.5t55.5 21.5q16 0 45 -10.5t51 -10.5q88 0 143.5 60.5t110.5 193.5l11 25l-379 854q-8 16 -8 37q0 66 59 92q16 8 39 8q63 0 90 -59l303 -691l301 691q27 59 90 59q23 0 39 -8q59 -27 59 -92q0 -12 -8 -37l-389 -856q-104 -231 -205.5 -336 t-255.5 -105q-174 0 -174 105zM324 1329q0 53 35.5 89t84.5 36q51 0 88 -37t37 -88q0 -49 -36.5 -85t-88.5 -36q-49 0 -84.5 36t-35.5 85zM715 1329q0 53 35.5 89t85.5 36q53 0 89 -36t36 -89q0 -49 -37 -85t-88 -36q-49 0 -85 37t-36 84z" />
<glyph unicode="&#x152;" d="M61 717q0 256 94.5 436t276.5 246v-209q-170 -125 -170 -473q0 -350 170 -475v-209q-182 66 -276.5 247t-94.5 437zM580 0v1434h528q106 0 106 -90.5t-106 -90.5h-332v-426h225q102 0 102.5 -90t-102.5 -90h-225v-467h342q109 0 109 -90t-109 -90h-538z" />
<glyph unicode="&#x153;" d="M143 512q0 166 74 294t207 189v-209q-100 -106 -100 -274q0 -133 59 -232.5t176 -127.5v884q57 8 92 8q51 0 92 -8v-434h213q-27 102 -75 168v223q125 -59 194.5 -180t69.5 -272q0 -45 -27.5 -74t-75.5 -29h-299v-286q131 18 215 116q31 35 72 35q43 0 66.5 -28.5 t23.5 -67.5q0 -41 -33 -70q-164 -158 -436 -157q-233 0 -370.5 151.5t-137.5 380.5z" />
<glyph unicode="&#x178;" d="M92 1333q0 53 45 86q23 14 60 15q57 0 86 -43l352 -560l352 558q33 45 86 45q35 0 64 -21q41 -29 41 -82q0 -37 -19 -63l-426 -641v-521q0 -45 -27.5 -75.5t-70.5 -30.5t-70.5 30.5t-27.5 75.5v521l-426 643q-18 25 -19 63zM317 1698q0 53 36 89t85 36q53 0 89 -37 t36 -88q0 -49 -37 -85t-88 -36q-49 0 -85 36t-36 85zM709 1698q0 53 35.5 89t84.5 36q53 0 89 -36t36 -89q0 -49 -36.5 -85t-88.5 -36q-49 0 -84.5 37t-35.5 84z" />
<glyph unicode="&#x2c6;" d="M299 1640q0 41 39 74l209 164q35 27 67.5 27t67.5 -27l209 -164q39 -33 39 -74q0 -39 -24.5 -65.5t-63.5 -26.5q-29 0 -54 21l-174 137l-174 -137q-27 -20 -53 -21q-39 0 -63.5 27t-24.5 65z" />
<glyph unicode="&#x2dc;" d="M272 1704q0 31 27 59q49 53 91 77t106 24q59 0 141 -52.5t133 -52.5q49 0 92 43q29 29 62 29q29 0 49 -21.5t20 -50.5q0 -31 -26 -59q-49 -53 -91 -77t-106 -24q-59 0 -141 52.5t-133 52.5q-50 0 -93 -43q-29 -29 -61 -29q-29 0 -49.5 21.5t-20.5 50.5z" />
<glyph unicode="&#x2000;" horiz-adv-x="981" />
<glyph unicode="&#x2001;" horiz-adv-x="1962" />
<glyph unicode="&#x2002;" horiz-adv-x="981" />
<glyph unicode="&#x2003;" horiz-adv-x="1962" />
<glyph unicode="&#x2004;" horiz-adv-x="654" />
<glyph unicode="&#x2005;" horiz-adv-x="490" />
<glyph unicode="&#x2006;" horiz-adv-x="327" />
<glyph unicode="&#x2007;" horiz-adv-x="327" />
<glyph unicode="&#x2008;" horiz-adv-x="245" />
<glyph unicode="&#x2009;" horiz-adv-x="392" />
<glyph unicode="&#x200a;" horiz-adv-x="109" />
<glyph unicode="&#x2010;" d="M213 616q0 86 104 86h639q104 0 104.5 -86t-104.5 -86h-639q-104 0 -104 86z" />
<glyph unicode="&#x2011;" d="M213 616q0 86 104 86h639q104 0 104.5 -86t-104.5 -86h-639q-104 0 -104 86z" />
<glyph unicode="&#x2012;" d="M213 616q0 86 104 86h639q104 0 104.5 -86t-104.5 -86h-639q-104 0 -104 86z" />
<glyph unicode="&#x2013;" d="M119 616q0 86 104 86h826q104 0 104 -86t-104 -86h-826q-104 0 -104 86z" />
<glyph unicode="&#x2014;" d="M41 616q0 86 104 86h979q104 0 104.5 -86t-104.5 -86h-979q-104 0 -104 86z" />
<glyph unicode="&#x2018;" d="M401 870v15q0 152 75 270.5t202 169.5q14 6 31 6q27 0 44 -16.5t17 -38.5q0 -41 -51 -59q-111 -39 -111 -140q0 -43 41 -61q86 -45 86 -146q0 -72 -48 -120t-117.5 -48t-119 48.5t-49.5 119.5z" />
<glyph unicode="&#x2019;" d="M442 780q0 41 52 60q111 39 110 139q0 43 -41 61q-86 45 -86 146q0 72 48 120t118 48t119 -48.5t49 -119.5v-15q0 -152 -74.5 -270.5t-201.5 -169.5q-14 -6 -31 -6q-27 0 -44.5 16.5t-17.5 38.5z" />
<glyph unicode="&#x201a;" d="M442 -264q0 41 52 59q111 39 110 139q0 44 -41 62q-86 45 -86 145q0 72 48 120t118 48t119 -48t49 -120v-14q0 -152 -74.5 -270.5t-201.5 -169.5q-14 -6 -31 -6q-27 0 -44.5 16t-17.5 39z" />
<glyph unicode="&#x201c;" d="M217 870v15q0 152 75 270.5t202 169.5q14 6 30 6q27 0 44.5 -16.5t17.5 -38.5q0 -41 -51 -59q-111 -39 -111 -140q0 -43 41 -61q86 -45 86 -146q0 -72 -48 -120t-118 -48t-119 48.5t-49 119.5zM627 870v15q0 152 74.5 270.5t201.5 169.5q14 6 31 6q27 0 44 -16.5 t17 -38.5q0 -41 -51 -59q-111 -39 -110 -140q-1 -43 40 -61q86 -45 87 -146q0 -72 -48.5 -120t-118 -48t-118.5 48.5t-49 119.5z" />
<glyph unicode="&#x201d;" d="M238 780q0 41 51 60q111 39 110 139q0 43 -41 61q-86 45 -86 146q0 72 48.5 120t118 48t118.5 -48.5t49 -119.5v-15q0 -152 -74.5 -270.5t-201.5 -169.5q-14 -6 -31 -6q-27 0 -44 16.5t-17 38.5zM647 780q0 41 51 60q111 39 111 139q0 43 -41 61q-86 45 -86 146 q0 72 48 120t118 48t119 -48.5t49 -119.5v-15q0 -152 -75 -270.5t-202 -169.5q-14 -6 -30 -6q-27 0 -44.5 16.5t-17.5 38.5z" />
<glyph unicode="&#x201e;" d="M238 -264q0 41 51 59q111 39 110 139q0 44 -41 62q-86 45 -86 145q0 72 48.5 120t118 48t118.5 -48t49 -120v-14q0 -152 -74.5 -270.5t-201.5 -169.5q-14 -6 -31 -6q-27 0 -44 16t-17 39zM647 -264q0 41 51 59q111 39 111 139q0 44 -41 62q-86 45 -86 145q0 72 48 120 t118 48t119 -48t49 -120v-14q0 -152 -75 -270.5t-202 -169.5q-14 -6 -30 -6q-27 0 -44.5 16t-17.5 39z" />
<glyph unicode="&#x2022;" d="M354 616.5q0 120.5 84 204.5t203 84t203 -84t84 -204.5t-84 -204.5t-203 -84t-203 84t-84 204.5z" />
<glyph unicode="&#x2026;" d="M23 166q0 72 48 119t117.5 47t117.5 -47t48 -119t-48 -119t-117.5 -47t-117.5 47t-48 119zM473 166q0 72 48 119t118 47t118 -47t48 -119t-48 -119t-118 -47t-118 47t-48 119zM924 166q0 72 48 119t117.5 47t117.5 -47t48 -119t-48 -119t-117.5 -47t-117.5 47t-48 119z " />
<glyph unicode="&#x202f;" horiz-adv-x="392" />
<glyph unicode="&#x2039;" d="M260 534.5q0 32.5 33 65.5l379 387q33 33 69 33q33 0 53.5 -20.5t20.5 -53.5q0 -39 -35 -76l-321 -335l321 -336q35 -37 35 -76q0 -33 -20.5 -53.5t-53.5 -20.5q-36 0 -69 33l-379 387q-33 33 -33 65.5z" />
<glyph unicode="&#x203a;" d="M322 123q0 39 34 76l322 336l-322 335q-35 37 -34 76q0 33 20 53.5t53 20.5q37 0 70 -33l379 -387q33 -33 33 -65.5t-33 -65.5l-379 -387q-33 -33 -70 -33q-33 0 -53 20.5t-20 53.5z" />
<glyph unicode="&#x205f;" horiz-adv-x="490" />
<glyph unicode="&#x20ac;" d="M70 559q0 86 104 86h68v143h-68q-104 0 -104 86.5t104 86.5h68q0 227 122.5 360t354.5 133q143 0 232 -47t159 -141q39 -53 39 -98.5t-24.5 -66t-59.5 -20.5q-49 0 -74 45q-92 160 -272 160q-152 0 -220.5 -86t-68.5 -223v-16h344q104 0 104.5 -86.5t-104.5 -86.5h-344 v-143h344q104 0 104.5 -86t-104.5 -86h-344v-16q0 -137 68.5 -223.5t220.5 -86.5q180 0 272 160q25 45 74 45q35 0 59.5 -20.5t24.5 -65.5t-39 -98q-70 -94 -159 -141t-232 -47q-231 0 -354 133t-123 360h-68q-104 0 -104 86z" />
<glyph unicode="&#x2122;" d="M14 1374.5q0 59.5 66 59.5h424q66 0 65.5 -59.5t-65.5 -59.5h-146v-553q0 -33 -19.5 -49.5t-45.5 -16.5q-68 0 -68 66v553h-145q-66 0 -66 59.5zM645 762v610q0 61 66 62q45 0 69 -48l162 -274l162 274q25 47 70 48q65 -1 65 -62v-610q0 -66 -68 -66q-27 0 -46 16.5 t-19 49.5v403l-121 -217q-14 -27 -43 -26.5t-43 26.5l-121 217v-403q0 -33 -19.5 -49.5t-45.5 -16.5q-68 0 -68 66z" />
<glyph unicode="&#x25fc;" horiz-adv-x="1025" d="M0 0v1025h1025v-1025h-1025z" />
<glyph unicode="&#xfb01;" d="M80 942q0 82 96 82h123q0 221 104.5 325.5t249.5 104.5q180 0 293 -90q59 -47 60 -96q0 -41 -24 -62.5t-62 -21.5q-31 0 -54 24q-47 51 -89 66.5t-115 15.5q-92 0 -135.5 -75.5t-43.5 -190.5h453q39 0 65.5 -23.5t26.5 -58.5v-840q0 -45 -24.5 -73.5t-67.5 -28.5 q-41 0 -66.5 29.5t-25.5 72.5v758h-361v-758q0 -45 -24.5 -73.5t-67.5 -28.5q-41 0 -66.5 29.5t-25.5 72.5v758h-123q-96 0 -96 82z" />
<glyph unicode="&#xfb02;" d="M80 942q0 82 96 82h123q0 221 100.5 315.5t253.5 94.5h283q92 0 92 -88v-1244q0 -45 -24.5 -73.5t-67.5 -28.5q-41 0 -66.5 29.5t-25.5 72.5v1168h-193q-86 0 -127 -68.5t-41 -177.5h125q96 0 96.5 -82t-96.5 -82h-125v-758q0 -45 -24.5 -73.5t-67.5 -28.5 q-41 0 -66.5 29.5t-25.5 72.5v758h-123q-96 0 -96 82z" />
</font>
</defs>
</svg>
