<?xml version="1.0" standalone="no"?>
<!DOCTYPE svg PUBLIC "-//W3C//DTD SVG 1.1//EN" "http://www.w3.org/Graphics/SVG/1.1/DTD/svg11.dtd" >
<svg xmlns="http://www.w3.org/2000/svg" xmlns:xlink="http://www.w3.org/1999/xlink" version="1.1">
<metadata></metadata>
<defs>
<font id="monostenf" horiz-adv-x="1269" >
<font-face units-per-em="2048" ascent="1536" descent="-512" />
<missing-glyph horiz-adv-x="500" />
<glyph horiz-adv-x="0" />
<glyph unicode="&#xd;" horiz-adv-x="0" />
<glyph unicode=" " />
<glyph unicode="!" d="M487 147.5q0 63.5 42 105.5t105.5 42t105.5 -42t42 -105.5t-42 -105.5t-105.5 -42t-105.5 42t-42 105.5zM528 1337q2 53 30 85t77 32t76.5 -31.5t29.5 -85.5l-30 -778q-4 -109 -76 -109t-76 109z" />
<glyph unicode="&#x22;" d="M365 1298q0 156 104 156t104 -156q0 -113 -33.5 -268.5t-70.5 -155.5t-70.5 155.5t-33.5 268.5zM713 1298q0 156 104.5 156t104.5 -156q0 -113 -34 -268.5t-71 -155.5t-70.5 155.5t-33.5 268.5z" />
<glyph unicode="#" d="M47 491.5q0 32.5 20.5 51t55.5 18.5h242l51 311h-293q-35 0 -55.5 18.5t-20.5 51.5t20.5 51.5t55.5 18.5h315l56 340q12 82 77 82q29 0 45.5 -18.5t16.5 -49.5v-14l-207 -1270q-12 -82 -78 -82q-29 0 -45 18.5t-16 49.5v14l55 340h-219q-35 0 -55.5 18.5t-20.5 51z M573 68v14l207 1270q12 82 78 82q29 0 45.5 -18.5t16.5 -49.5v-14l-56 -340h219q35 0 55.5 -18.5t20.5 -51.5t-20.5 -51.5t-55.5 -18.5h-241l-51 -311h294q35 0 55.5 -18.5t20.5 -51t-20.5 -51t-55.5 -18.5h-317l-55 -340q-12 -82 -78 -82q-29 0 -45.5 18.5t-16.5 49.5z" />
<glyph unicode="$" d="M86 326q0 33 20.5 53t51.5 20q47 0 80 -49q70 -106 137 -160.5t176 -66.5v1417q0 78 61.5 78t61.5 -78v-90q236 -27 360 -223q23 -37 23 -70t-20.5 -53.5t-51.5 -20.5q-49 0 -78 54q-80 152 -233 174v-1417q0 -78 -61.5 -78t-61.5 78v90q-301 27 -447 282q-18 33 -18 60z M141 1073q0 143 81 233.5t214 127.5v-146q-139 -53 -139 -213q0 -109 139 -180v-160q-295 115 -295 338zM788 0v145q166 61 166 252q0 147 -166 221v150q154 -57 238 -137t84 -221q0 -166 -88 -270.5t-234 -139.5z" />
<glyph unicode="%" d="M45 1134.5q0 120.5 74 210t192 105.5v-107q-70 -14 -107.5 -71t-37.5 -137q0 -82 38 -137.5t107 -69.5v-107q-119 16 -192.5 104.5t-73.5 209zM133 401q0 31 33 54l860 600q25 16 41 16q23 0 38 -18.5t15 -38.5q0 -33 -33 -56l-860 -602q-23 -14 -41 -14q-23 0 -38 18.5 t-15 40.5zM410 821v107q70 14 109.5 70.5t39.5 136t-40 137t-109 71.5v107q121 -16 195.5 -105.5t74.5 -210t-75 -208.5t-195 -105zM598 295q0 121 73.5 210t192.5 105v-106q-70 -14 -107.5 -71.5t-37.5 -137.5q0 -82 38 -137.5t107 -69.5v-104q-119 14 -192.5 102 t-73.5 209zM963 -16v104q70 14 109.5 70.5t39.5 136.5t-40 137t-109 72v106q121 -16 195.5 -105t74.5 -210t-75 -209t-195 -102z" />
<glyph unicode="&#x26;" d="M86 403q0 123 63.5 226.5t176.5 154.5q-74 51 -118 130t-44 171q0 137 90 241t227 124v-139q-76 -18 -123 -81t-47 -145q0 -84 47.5 -145t122.5 -80v-147q-113 -33 -178 -116t-65 -196q0 -109 63.5 -183.5t179.5 -94.5v-139q-188 16 -291.5 127.5t-103.5 291.5zM596 -16 v139q180 12 278 117l-278 473v151q74 20 118 81t44 140.5t-45 142t-117 83.5v139q133 -23 221 -126t88 -239q0 -94 -47 -176t-127 -133l232 -387q41 113 41 256q0 41 21.5 64.5t52 23.5t52 -22.5t21.5 -65.5q0 -229 -102 -401l61 -105q20 -35 20 -65q0 -35 -20 -54.5 t-49 -19.5q-45 0 -74 49l-41 70q-139 -123 -350 -135z" />
<glyph unicode="'" d="M528 1298q0 156 104.5 156t104.5 -156q0 -113 -33.5 -268.5t-70.5 -155.5t-71 155.5t-34 268.5z" />
<glyph unicode="(" d="M412 614.5q0 268.5 63.5 479.5t208.5 395q35 43 80 43q29 0 46 -16.5t17 -45.5q0 -33 -26 -67q-139 -176 -192.5 -356.5t-53.5 -432.5t53.5 -432t192.5 -356q27 -35 26 -68q0 -29 -17 -45t-46 -16q-45 0 -80 43q-145 184 -208.5 395t-63.5 479.5z" />
<glyph unicode=")" d="M414 -242q0 33 26 68q139 176 192.5 356t53.5 432t-53 432.5t-193 356.5q-27 35 -26 67q0 29 17.5 45.5t45.5 16.5q45 0 80 -43q145 -184 208.5 -395t63.5 -479.5t-63.5 -479.5t-208.5 -395q-35 -43 -80 -43q-29 0 -46 16.5t-17 44.5z" />
<glyph unicode="*" d="M215 707q0 39 55 69l252 146l-252 145q-55 31 -55 70q0 14 8 28q16 29 47 29q25 0 62 -20l252 -146v291q0 90 61.5 90t61.5 -90v-291l251 146q37 20 62 20q31 0 47 -29q8 -14 8 -28q0 -39 -55 -70l-252 -145l252 -146q55 -31 55 -69q0 -14 -8 -29q-16 -29 -47 -29 q-25 0 -62 21l-251 145v-291q0 -90 -61.5 -90t-61.5 90v291l-252 -145q-37 -20 -62 -21q-31 0 -47 29q-8 14 -8 29z" />
<glyph unicode="+" d="M201 616.5q0 63.5 88 63.5h305v305q0 88 63.5 88t63.5 -88v-305h305q88 0 88 -63.5t-88 -63.5h-305v-305q0 -88 -63.5 -88t-63.5 88v305h-305q-88 0 -88 63.5z" />
<glyph unicode="," d="M477 -174q0 33 25 51q41 29 51 56.5t10 84.5q-76 39 -76 129q0 61 42 104.5t108 43.5q61 0 103 -43t42 -105v-14q-4 -141 -182 -319q-37 -37 -72 -37q-23 0 -37 14t-14 35z" />
<glyph unicode="-" d="M223 616.5q0 63.5 88 63.5h647q88 0 88.5 -63.5t-88.5 -63.5h-647q-88 0 -88 63.5z" />
<glyph unicode="." d="M487 147.5q0 63.5 42 105.5t105.5 42t105.5 -42t42 -105.5t-42 -105.5t-105.5 -42t-105.5 42t-42 105.5z" />
<glyph unicode="/" d="M49 63q0 29 23 58l987 1278q29 35 63 35q63 0 64 -64q0 -28 -23 -57l-987 -1278q-29 -35 -63 -35q-63 0 -64 63z" />
<glyph unicode="0" d="M188 469v494q0 207 102.5 338t291.5 149v-127q-125 -16 -185.5 -100t-60.5 -211v-592q0 -127 60.5 -211t185.5 -100v-127q-188 18 -291 149t-103 338zM440 379v192l394 484v-193zM692 -18v127q125 16 185.5 100t60.5 211v592q0 127 -60.5 211t-185.5 100v127 q188 -18 290.5 -150.5t102.5 -336.5v-494q0 -205 -102 -337t-291 -150z" />
<glyph unicode="1" d="M231 1102q0 37 35 59l377 246q43 27 64 27q55 0 55 -80v-1227h285q94 0 94 -63.5t-94 -63.5h-717q-94 0 -94 63.5t94 63.5h284v1087l-260 -167q-29 -16 -51 -17q-31 0 -51.5 20.5t-20.5 51.5z" />
<glyph unicode="2" d="M195 100v58q0 154 114.5 292t278.5 244q156 100 229.5 181t73.5 182q0 123 -61.5 196.5t-186.5 73.5q-121 0 -188.5 -76.5t-75.5 -191.5q-4 -53 -18.5 -78t-53.5 -25q-72 0 -71 101q0 174 122.5 285.5t284.5 111.5q178 0 286.5 -102.5t108.5 -280.5q0 -256 -374 -487 q-147 -90 -240.5 -214t-93.5 -243h657q94 0 94 -63.5t-94 -63.5h-694q-47 0 -72.5 27.5t-25.5 72.5z" />
<glyph unicode="3" d="M141 430q0 88 72 88q35 0 54.5 -19.5t23.5 -70.5q12 -145 89 -233.5t234 -88.5q162 0 240 88.5t78 235.5q0 127 -85 202t-226 75h-74q-94 0 -94 63.5t94 63.5h61q123 0 197 65.5t74 177.5q0 121 -72 185.5t-205 64.5q-102 0 -176 -69.5t-82 -186.5q-2 -33 -22.5 -50 t-49.5 -17q-33 0 -53 21.5t-20 57.5q0 147 117.5 259t285.5 112q193 0 308.5 -101.5t115.5 -275.5q0 -104 -63.5 -188t-139.5 -107q119 -41 187.5 -131t68.5 -211q0 -217 -127 -338.5t-338 -121.5q-209 0 -341 124.5t-132 325.5z" />
<glyph unicode="4" d="M94 440q0 25 15 47l522 766v-241l-355 -520h355v-127h-455q-35 0 -58.5 21.5t-23.5 53.5zM741 100v1315q29 39 74 39q74 0 74 -92v-870h158q94 0 94 -63.5t-94 -63.5h-158v-265q0 -100 -74 -100t-74 100z" />
<glyph unicode="5" d="M172 393q0 37 20.5 58.5t49.5 21.5q27 0 48 -20.5t25 -61.5q12 -129 88 -207t218 -78q160 0 234.5 101.5t74.5 271.5q0 158 -81 249t-228 91q-86 0 -150.5 -31.5t-148.5 -103.5q-23 -18 -50 -18q-72 0 -71 77l2 21l78 579q12 90 98 91h549q94 0 94 -63.5t-94 -63.5h-516 l-66 -457q45 37 126 66.5t153 29.5q203 0 327.5 -118.5t124.5 -348.5q0 -221 -120.5 -360t-335.5 -139q-201 0 -325 121.5t-124 291.5z" />
<glyph unicode="6" d="M176 500v409q0 248 134 396.5t356 148.5q289 0 417 -219q18 -35 19 -61q0 -31 -19.5 -49.5t-46.5 -18.5q-49 0 -78 53q-90 168 -292 168q-168 0 -255 -126t-87 -312v-98q20 47 100 95t174 60v-127q-135 -16 -204.5 -110t-69.5 -244q0 -152 69.5 -246t204.5 -110v-127 q-199 16 -310.5 150t-111.5 368zM709 -18v127q135 16 204.5 110t69.5 246q0 150 -69.5 244t-204.5 110v127q199 -16 310 -142t111 -339q0 -205 -117.5 -336t-303.5 -147z" />
<glyph unicode="7" d="M133 1370.5q0 63.5 94 63.5h770q55 0 81 -32t5 -79l-503 -1266q-20 -47 -63.5 -56t-69.5 26t-3 90l492 1190h-709q-94 0 -94 63.5z" />
<glyph unicode="8" d="M172 414q0 246 207 360q-74 47 -120 133t-46 168q0 164 100.5 261.5t266.5 113.5v-127q-106 -16 -165 -86t-59 -160q0 -92 58.5 -160.5t165.5 -85.5v-122q-123 -16 -192 -96.5t-69 -198.5q0 -121 69 -204t192 -99v-127q-178 14 -293 123.5t-115 306.5zM690 -16v127 q123 16 191.5 99t68.5 204q0 119 -68.5 198.5t-191.5 96.5v122q106 16 164.5 85t58.5 161q0 90 -58 160t-165 86v127q166 -16 266.5 -113.5t100.5 -261.5q0 -82 -46 -168t-120 -133q207 -114 207 -360q0 -197 -115 -306.5t-293 -123.5z" />
<glyph unicode="9" d="M197 971q0 205 117.5 336t303.5 147v-127q-135 -16 -204.5 -110.5t-69.5 -245.5q0 -150 69.5 -244t204.5 -111v-127q-199 16 -310 142.5t-111 339.5zM225 262q0 31 19.5 49.5t46.5 18.5q49 0 78 -54q90 -168 293 -167q168 0 255 125.5t87 312.5v98q-20 -47 -100.5 -95 t-174.5 -61v127q135 16 205 110.5t70 244.5q0 152 -70 246t-205 110v127q199 -16 310.5 -150.5t111.5 -367.5v-410q0 -248 -134 -396t-355 -148q-289 0 -418 219q-18 33 -19 61z" />
<glyph unicode=":" d="M487 147.5q0 63.5 42 105.5t105.5 42t105.5 -42t42 -105.5t-42 -105.5t-105.5 -42t-105.5 42t-42 105.5zM487 897.5q0 63.5 42 105t105.5 41.5t105.5 -41.5t42 -105t-42 -105.5t-105.5 -42t-105.5 42t-42 105.5z" />
<glyph unicode=";" d="M477 -174q0 33 25 51q41 29 51 56.5t10 84.5q-76 39 -76 129q0 61 42 104.5t108 43.5q61 0 103 -43t42 -105v-14q-4 -141 -182 -319q-37 -37 -72 -37q-23 0 -37 14t-14 35zM487 897.5q0 63.5 42 105t105.5 41.5t105.5 -41.5t42 -105t-42 -105.5t-105.5 -42t-105.5 42 t-42 105.5z" />
<glyph unicode="&#x3c;" d="M186 524.5q0 32.5 31 55.5l643 436q35 20 55 20q25 0 40.5 -15t15.5 -36q0 -35 -39 -63l-582 -398l582 -397q39 -29 39 -64q0 -20 -15.5 -35.5t-40.5 -15.5q-20 0 -55 21l-643 436q-31 23 -31 55.5z" />
<glyph unicode="=" d="M201 473.5q0 63.5 88 63.5h737q88 0 88 -63.5t-88 -63.5h-737q-88 0 -88 63.5zM201 862.5q0 63.5 88 63.5h737q88 0 88 -63.5t-88 -63.5h-737q-88 0 -88 63.5z" />
<glyph unicode="&#x3e;" d="M289 63q0 35 39 64l581 397l-581 398q-39 29 -39 63q0 20 15 35.5t40 15.5q20 0 55 -20l643 -436q31 -23 31 -55.5t-31 -55.5l-643 -436q-35 -20 -55 -21q-25 0 -40 15.5t-15 35.5z" />
<glyph unicode="?" d="M254 1112q0 135 105.5 238.5t287.5 103.5q168 0 273.5 -87t105.5 -245q0 -68 -31.5 -131t-66.5 -99t-97 -89q-125 -111 -124 -248q0 -104 -72 -104t-72 104q0 113 50.5 194.5t138.5 157.5q131 113 131 207q0 106 -63.5 161.5t-172.5 55.5q-115 0 -180.5 -65.5 t-69.5 -159.5q-4 -78 -71 -78q-72 0 -72 84zM487 147.5q0 63.5 42 105.5t105.5 42t105.5 -42t42 -105.5t-42 -105.5t-105.5 -42t-105.5 42t-42 105.5z" />
<glyph unicode="@" d="M74 547q0 338 170 539.5t456 201.5q213 0 335 -104.5t122 -309.5v-606q0 -88 -65 -88q-62 0 -72 92q-55 -86 -158 -104v123q152 37 152 256q0 100 -39 168.5t-113 87.5v123q96 -14 152 -82v30q0 152 -88 221.5t-226 69.5q-229 0 -356 -164.5t-127 -453.5 q0 -283 137.5 -451t405.5 -168q143 0 260 68q20 12 41 12q25 0 41 -16.5t16 -40.5q0 -45 -51 -70q-145 -76 -307 -76q-313 0 -499.5 203t-186.5 539zM446 547q0 158 83 261t227 118v-123q-82 -18 -124 -89t-42 -167q0 -98 42 -168t124 -88v-123q-145 14 -227.5 112.5 t-82.5 266.5z" />
<glyph unicode="A" d="M100 78q0 16 6 39l394 1063l73 -205l-143 -404h289l49 -139h-389l-133 -375q-20 -57 -74 -57q-33 0 -52.5 21.5t-19.5 56.5zM563 1348l10 28q19 58 61 58h1q41 0 61 -58l467 -1259q6 -23 6 -39q0 -35 -19.5 -56.5t-51.5 -21.5q-54 0 -74 57z" />
<glyph unicode="B" d="M209 96v1241q0 45 27.5 71t72.5 26h51v-1434h-51q-45 0 -72.5 25.5t-27.5 70.5zM475 0v139h297q117 0 176.5 70t59.5 188q0 113 -58.5 185.5t-183.5 72.5h-291v140h246q106 0 164.5 70.5t58.5 179t-58.5 179t-164.5 70.5h-246v140h230q184 0 289.5 -100.5t105.5 -272.5 q0 -123 -53.5 -203t-131.5 -115q117 -37 182.5 -126t65.5 -224q0 -166 -99 -279.5t-276 -113.5h-313z" />
<glyph unicode="C" d="M125 717q0 332 147.5 534.5t423.5 202.5q133 0 230.5 -38t208.5 -150q34 -34 34 -70q0 -33 -21.5 -53.5t-51.5 -20.5q-35 0 -66 33q-76 90 -155.5 125t-178.5 35q-143 0 -240.5 -92.5t-136 -221.5t-38.5 -284.5t38.5 -284.5t136 -221t240.5 -92q98 0 178 34.5t156 125.5 q30 32 64 32h2q31 0 52 -20.5t21 -50.5q0 -37 -34 -72q-111 -113 -208.5 -150.5t-230.5 -37.5q-276 0 -423.5 202.5t-147.5 534.5z" />
<glyph unicode="D" d="M193 96v1241q0 45 27.5 71t72.5 26h51v-1434h-51q-45 0 -72.5 25.5t-27.5 70.5zM459 0v139h176q127 0 214 86t122 211t35 280.5t-35 280.5t-122 211t-214 86h-176v140h170q254 0 393 -207t139 -510t-139 -510t-393 -207h-170z" />
<glyph unicode="E" d="M164 96v1241q0 45 27.5 71t72.5 26h725q92 0 92 -70t-92 -70h-674v-487h498q92 0 92 -69.5t-92 -69.5h-498v-529h703q92 0 92 -69.5t-92 -69.5h-754q-45 0 -72.5 25.5t-27.5 70.5z" />
<glyph unicode="F" d="M164 100v1237q0 45 27.5 71t72.5 26h740q92 0 92 -70t-92 -70h-689v-506h514q93 0 93 -70q0 -69 -93 -69h-514v-549q0 -100 -75.5 -100t-75.5 100z" />
<glyph unicode="G" d="M70 719q0 201 59 362.5t194 267t328 105.5q266 0 439 -188q38 -41 38 -78q0 -26 -16 -49q-23 -31 -54 -31q-14 0 -30 6q-20 8 -37 29q-139 172 -340 172q-109 0 -194.5 -56.5t-135 -146.5t-75 -190.5t-25.5 -202.5q0 -104 22.5 -204.5t68.5 -192t131 -147.5t196 -56 q233 0 348 151v359h-297q-92 0 -92 69.5t92 69.5h348q45 0 73 -25.5t28 -70.5v-572q0 -100 -76 -100t-76 100q-63 -57 -162.5 -88.5t-183.5 -31.5q-145 0 -257 60t-179.5 164.5t-101 234.5t-33.5 280z" />
<glyph unicode="H" d="M158 100v1233q0 101 76 101q75 0 75 -101v-532h647v532q0 101 76 101h1q75 0 75 -101v-1233q0 -100 -76 -100t-76 100v562h-647v-562q0 -100 -75.5 -100t-75.5 100z" />
<glyph unicode="I" d="M227 69.5q0 69.5 92 69.5h240v1155h-240q-92 0 -92 70t92 70h631q92 0 92 -70t-92 -70h-239v-1155h239q92 0 92 -69.5t-92 -69.5h-631q-92 0 -92 69.5z" />
<glyph unicode="J" d="M127 225q0 33 21.5 54.5t56.5 21.5q37 0 59 -29q51 -59 77 -83.5t83 -47t139 -22.5q291 0 291 467v747q0 100 76 101h1q75 0 75 -101v-790q0 -563 -443 -563q-145 0 -233 40.5t-180 139.5q-23 25 -23 65z" />
<glyph unicode="K" d="M178 100v1233q0 101 76 101h1q75 0 75 -101v-639l567 701q31 39 70 39q29 0 49 -17.5t20 -48.5t-26 -63l-346 -420l487 -760q18 -31 18 -62q0 -29 -20.5 -46t-50.5 -17q-43 0 -76 49l-459 711l-233 -281v-379q0 -100 -76 -100t-76 100z" />
<glyph unicode="L" d="M268 96v1237q0 101 76 101h1q75 0 75 -101v-1194h674q92 0 92 -69.5t-92 -69.5h-725q-45 0 -73 25.5t-28 70.5z" />
<glyph unicode="M" d="M141 100v1239q0 94 72 95q47 0 72 -45l350 -717l350 717q25 45 72 45q71 -1 71 -95v-1239q0 -100 -75.5 -100t-75.5 100v959l-264 -531q-29 -51 -78 -51t-78 51l-264 531v-959q0 -100 -76 -100t-76 100z" />
<glyph unicode="N" d="M162 100v1233q0 43 21.5 72t62.5 29q51 0 88 -52l622 -1071v1022q0 101 76 101h1q75 0 75 -101v-1233q0 -43 -21.5 -71.5t-62.5 -28.5q-51 0 -88 51l-623 1071v-1022q0 -100 -75.5 -100t-75.5 100z" />
<glyph unicode="O" d="M70 717q0 307 131 510t377 225v-139q-170 -25 -261.5 -187.5t-91.5 -408.5q0 -248 91.5 -410t261.5 -186v-139q-246 23 -377 224.5t-131 510.5zM692 -18v139q170 25 261 186.5t91 409.5q0 246 -91 408.5t-261 187.5v139q246 -23 377 -225.5t131 -509.5q0 -309 -131 -511 t-377 -224z" />
<glyph unicode="P" d="M201 100v1237q0 45 27.5 71t72.5 26h51v-1334q0 -100 -75.5 -100t-75.5 100zM467 569v140h289q129 0 195.5 78.5t66.5 213.5q0 133 -66.5 213t-195.5 80h-289v140h252q217 0 336 -117t119 -316q0 -209 -117 -320.5t-338 -111.5h-252z" />
<glyph unicode="Q" d="M70 717q0 307 131 510t377 225v-139q-170 -25 -261.5 -187.5t-91.5 -408.5q0 -248 91.5 -410t261.5 -186v-139q-246 23 -377 224.5t-131 510.5zM692 -18v139q119 18 203 108l-107 107q-40 40 -40 74q0 29 22.5 51t48.5 22q35 0 76 -41l84 -84q65 150 65 359 q0 246 -91 408.5t-261 187.5v139q246 -23 377 -225.5t131 -509.5q0 -281 -108 -473l98 -97q41 -41 41 -75q0 -27 -22.5 -49.5t-49.5 -22.5q-35 0 -76 41l-84 82q-123 -123 -307 -141z" />
<glyph unicode="R" d="M184 100v1237q0 45 28 71t73 26h51v-1334q0 -100 -76 -100t-76 100zM451 586v139h266q131 0 206.5 81t75.5 204t-75.5 203.5t-206.5 80.5h-266v140h249q213 0 334 -114t121 -310q0 -147 -80 -255t-221 -153l307 -481q18 -31 19 -58q0 -29 -18.5 -46t-47.5 -17 q-51 0 -82 51l-346 535h-235z" />
<glyph unicode="S" d="M86 326q0 33 20.5 53t51.5 20q47 0 80 -49q80 -121 160.5 -176t224.5 -55q158 0 244.5 70.5t86.5 207.5q0 53 -20.5 94t-48 68t-84 52.5t-97 39t-118.5 35.5q-209 61 -327 147.5t-118 239.5q0 188 134.5 284.5t326.5 96.5q289 0 432 -227q23 -37 23 -70t-20.5 -53.5 t-51.5 -20.5q-49 0 -78 54q-51 96 -124.5 137t-180.5 41q-145 0 -225 -59.5t-80 -180.5q0 -43 22.5 -78.5t50 -60.5t86 -50.5t96.5 -38.5t114 -38q86 -27 135 -45.5t116.5 -53t103.5 -72.5t62.5 -96.5t26.5 -131.5q0 -211 -138 -320.5t-349 -109.5h-2q-351 0 -517 286 q-18 33 -18 60z" />
<glyph unicode="T" d="M60 1364q0 70 92 70h966q92 0 92 -70t-92 -70h-407v-1194q0 -100 -76 -100t-76 100v1194h-407q-92 0 -92 70z" />
<glyph unicode="U" d="M139 522v811q0 101 76 101h1q75 0 75 -101v-805q0 -215 90 -312t268 -97q176 0 265.5 97t89.5 312v805q0 101 76 101q75 0 75 -101v-805q0 -262 -132 -405t-373.5 -143t-376 143t-134.5 399z" />
<glyph unicode="V" d="M96 1364q0 31 21.5 50.5t52.5 19.5q57 0 78 -60l389 -1091l389 1091q20 59 78 60q31 0 52.5 -19.5t21.5 -50.5q0 -14 -7 -33l-462 -1274q-20 -57 -72 -57t-72 57l-463 1274q-6 18 -6 33z" />
<glyph unicode="W" d="M61 1339q0 94 72 95q66 0 76 -72l117 -975l229 807q20 70 79.5 70t80.5 -70l229 -807l117 975q10 72 76 72q71 0 71 -92q0 -15 -2 -27l-168 -1249q-10 -66 -69 -66q-50 0 -70 66l-264 931l-264 -931q-20 -66 -70 -66q-59 0 -70 66l-168 1249q-2 12 -2 24z" />
<glyph unicode="X" d="M86 66q0 29 18 53l433 614l-408 582q-18 25 -18 53.5t19.5 47t45.5 18.5q41 0 68 -39l377 -539l376 539q27 39 68 39q27 0 46 -19.5t19 -46.5q0 -29 -18 -53l-407 -582l432 -614q18 -25 18 -53.5t-19.5 -47t-45.5 -18.5q-41 0 -68 39l-401 573l-402 -573q-27 -39 -67 -39 q-27 0 -46.5 19.5t-19.5 46.5z" />
<glyph unicode="Y" d="M94.5 1360q-0.5 31 21 52.5t52.5 21.5q47 0 76 -45l391 -598l391 598q29 45 76 45q31 0 52.5 -21.5t21.5 -52.5t-21 -60l-444 -659v-541q0 -100 -76 -100t-76 100v541l-444 659q-20 29 -20.5 60z" />
<glyph unicode="Z" d="M113 82q0 27 16 53l797 1159h-701q-53 0 -76.5 12.5t-23.5 55.5t24.5 57.5t75.5 14.5h801q45 0 72.5 -22.5t27.5 -57.5q0 -27 -18 -56l-789 -1159h738q51 0 76.5 -14t25.5 -55t-25.5 -55.5t-76.5 -14.5h-858q-41 0 -63.5 23.5t-22.5 58.5z" />
<glyph unicode="[" d="M418 -266v1704q0 61 65 61h381q80 0 80 -61.5t-80 -61.5h-303v-1581h303q80 0 80 -61.5t-80 -61.5h-381q-66 0 -65 62z" />
<glyph unicode="\" d="M49 1370q0 63 64 64q35 0 63 -35l987 -1278q23 -29 23 -58q0 -63 -64 -63q-34 0 -63 35l-987 1278q-23 29 -23 57z" />
<glyph unicode="]" d="M418 -266.5q0 61.5 80 61.5h303v1581h-303q-80 0 -80 61.5t80 61.5h381q66 0 65 -61v-1704q0 -61 -65 -62h-381q-80 0 -80 61.5z" />
<glyph unicode="^" d="M106 725q0 20 21 55l453 643q23 31 55 31t55 -31l453 -643q20 -35 20 -55q0 -25 -15 -40t-36 -15q-35 0 -63 39l-414 581l-414 -581q-29 -39 -63 -39q-20 0 -36 15t-16 40z" />
<glyph unicode="_" d="M201 -63.5q0 63.5 88 63.5h737q88 0 88 -63.5t-88 -63.5h-737q-88 0 -88 63.5z" />
<glyph unicode="`" d="M410 1864q0 27 16 44t47 17q14 0 39 -10l252 -129q51 -25 51 -72q0 -27 -16.5 -44t-46.5 -17q-14 0 -39 10l-252 129q-51 27 -51 72z" />
<glyph unicode="a" d="M152 512q0 215 106.5 362.5t306.5 165.5v-122q-127 -20 -198.5 -130t-71.5 -276t71.5 -275.5t198.5 -130.5v-122q-193 16 -303 153t-110 375zM672 -16v122q129 18 203.5 128t74.5 278t-74.5 277.5t-203.5 128.5v122q184 -22 278 -153v47q0 90 72 90t72 -90v-844 q0 -90 -72 -90t-72 90v43q-37 -55 -112.5 -97t-165.5 -52z" />
<glyph unicode="b" d="M225 90v1253q0 90 72 90t72 -90v-456q98 133 266 153v-122q-129 -20 -197.5 -129t-68.5 -277t69.5 -277.5t196.5 -128.5v-122q-86 10 -159 52t-107 97v-43q0 -90 -72 -90t-72 90zM741 -16v122q123 23 189.5 131.5t66.5 274.5t-66.5 275.5t-189.5 130.5v122 q199 -18 299.5 -164.5t100.5 -363.5q0 -240 -105.5 -376t-294.5 -152z" />
<glyph unicode="c" d="M152 512q0 233 129.5 382.5t367.5 149.5q129 0 206 -36.5t144 -106.5q39 -41 39 -80q0 -61 -61 -61q-35 0 -64 37q-100 125 -264 125q-174 0 -264 -114t-90 -296t90 -296t264 -114q164 0 264 125q29 37 64 37q61 0 61 -61q0 -39 -39 -80q-68 -70 -144.5 -106.5 t-205.5 -36.5q-238 0 -367.5 149.5t-129.5 382.5z" />
<glyph unicode="d" d="M170 512q0 217 100.5 363.5t298.5 164.5v-122q-123 -20 -189.5 -130t-66.5 -276t66.5 -274.5t189.5 -131.5v-122q-188 16 -293.5 152t-105.5 376zM676 -16v122q127 18 196.5 128t69.5 278t-68.5 276.5t-197.5 129.5v122q168 -20 266 -153v456q0 91 72 91q71 0 71 -91 v-1253q0 -90 -71.5 -90t-71.5 90v43q-35 -55 -107.5 -97t-158.5 -52z" />
<glyph unicode="e" d="M152 512q0 201 123.5 354.5t320.5 173.5v-122q-121 -20 -200 -117.5t-93 -218.5h293v-123h-297q6 -141 100.5 -249t241.5 -108q215 0 340 142q26 32 64 32h2q27 0 47 -19t20 -48q0 -35 -31 -64q-98 -94 -199.5 -129.5t-234.5 -35.5q-227 0 -362 154.5t-135 377.5z M702 459v123h285q-20 135 -92 226t-193 110v122q190 -18 309 -157.5t119 -341.5q0 -82 -90 -82h-338z" />
<glyph unicode="f" d="M123 962.5q0 61.5 88 61.5h276v70q0 172 89.5 266t234.5 94q154 0 276 -90q37 -25 37 -61q0 -27 -17 -43.5t-44 -16.5t-51 19q-89 69 -192 69h-3q-186 0 -186 -256v-51h395q88 0 88 -61.5t-88 -61.5h-395v-811q0 -90 -72 -90t-72 90v811h-276q-88 0 -88 61.5z" />
<glyph unicode="g" d="M127 512q0 238 109.5 376t302.5 154v-127q-125 -20 -197 -129.5t-72 -273.5t71 -274.5t198 -131.5v-122q-201 18 -306.5 164.5t-105.5 363.5zM164 -125q0 29 18.5 47.5t44.5 18.5q43 0 72 -50q55 -100 129 -149t188 -49q295 0 295 383v61q-98 -135 -266 -153v122 q127 18 196.5 128t69.5 278q0 166 -69.5 275.5t-196.5 130.5v122q182 -20 266 -149v43q0 90 72 90t72 -90v-830q0 -254 -107.5 -394t-331.5 -140q-309 0 -440 256q-12 27 -12 49z" />
<glyph unicode="h" d="M233 90v1253q0 91 72 91h1q71 0 71 -91v-479q41 72 133 126t195 54q180 0 269 -98t89 -311v-545q0 -90 -71.5 -90t-71.5 90v522q0 164 -51.5 237t-176.5 73q-147 0 -231 -126t-84 -335v-371q0 -90 -72 -90t-72 90z" />
<glyph unicode="i" d="M225 61.5q0 61.5 88 61.5h322v778h-244q-88 0 -88 61.5t88 61.5h322q66 0 65 -61v-840h309q89 0 89 -62q0 -61 -89 -61h-774q-88 0 -88 61.5zM573 1319q0 47 34 81t81 34t81 -34t34 -81t-34 -81t-81 -34t-81 34t-34 81z" />
<glyph unicode="j" d="M223 -274q0 27 19.5 45t46.5 18q29 0 57 -22q92 -74 207 -74q80 0 120 47t40 156v1005h-254q-88 0 -88 61.5t88 61.5h332q66 0 65 -61v-1065q0 -174 -84 -251t-223 -77q-162 0 -281 84q-45 33 -45 72zM643 1304.5q0 53.5 38 91.5t91 38t91 -38t38 -91.5t-38 -91 t-91 -37.5t-91 37.5t-38 91z" />
<glyph unicode="k" d="M283 90v1253q-1 91 71 91h1q71 0 71 -91v-796l422 444q27 33 65 33q27 0 45.5 -17.5t18.5 -43.5q0 -31 -27 -60l-256 -266l348 -514q20 -29 21 -57q0 -31 -18.5 -48.5t-45.5 -17.5q-41 0 -71 45l-330 490l-172 -179v-266q0 -90 -71.5 -90t-71.5 90z" />
<glyph unicode="l" d="M225 61.5q0 61.5 88 61.5h322v1188h-244q-88 0 -88 61.5t88 61.5h322q66 0 65 -62v-1249h309q89 0 89 -62q0 -61 -89 -61h-774q-88 0 -88 61.5z" />
<glyph unicode="m" d="M111 90v844q0 90 71.5 90t71.5 -90v-31q63 141 217 141q180 0 236 -159q61 159 225 159h2q125 0 188.5 -78.5t63.5 -207.5v-668q0 -90 -72 -90t-72 90v617q0 111 -32.5 163t-104.5 52q-84 0 -133 -93.5t-49 -236.5v-502q0 -90 -71.5 -90t-71.5 90v623q0 209 -144 209 q-90 0 -136 -104.5t-46 -252.5v-475q0 -90 -71.5 -90t-71.5 90z" />
<glyph unicode="n" d="M233 90v844q0 90 72 90t72 -90v-70q41 72 133 126t195 54q180 0 269 -98t89 -311v-545q0 -90 -71.5 -90t-71.5 90v522q0 164 -51.5 237t-176.5 73q-147 0 -231 -126t-84 -335v-371q0 -90 -72 -90t-72 90z" />
<glyph unicode="o" d="M160 512q0 217 110.5 363.5t309.5 164.5v-122q-125 -23 -201 -132.5t-76 -273.5t76 -273.5t201 -132.5v-122q-199 18 -309.5 164.5t-110.5 363.5zM686 -16v122q125 23 201 132.5t76 273.5t-76 273.5t-201 132.5v122q199 -18 309.5 -164.5t110.5 -363.5t-110.5 -363.5 t-309.5 -164.5z" />
<glyph unicode="p" d="M225 -319v1253q0 90 72 90t72 -90v-43q35 55 107.5 97t158.5 52v-122q-127 -18 -196.5 -128t-69.5 -278t68.5 -276.5t197.5 -129.5v-122q-168 20 -266 153v-456q0 -90 -72 -91h-1q-71 0 -71 91zM741 -16v122q123 20 189.5 130t66.5 276t-66.5 274.5t-189.5 131.5v122 q188 -16 294 -152t106 -376q0 -217 -100.5 -363.5t-299.5 -164.5z" />
<glyph unicode="q" d="M170 512q0 240 105.5 376t293.5 152v-122q-123 -23 -189.5 -131.5t-66.5 -274.5t66.5 -275.5t189.5 -130.5v-122q-199 18 -299 164.5t-100 363.5zM676 -16v122q129 20 197.5 129t68.5 277t-69.5 277.5t-196.5 128.5v122q86 -10 158.5 -52t107.5 -97v43q0 90 71.5 90 t71.5 -90v-1253q0 -90 -71.5 -90t-71.5 90v456q-98 -133 -266 -153z" />
<glyph unicode="r" d="M324 90v844q0 90 71.5 90t71.5 -90v-70q35 66 128 123t202 57q236 0 325 -194q10 -25 11 -41q0 -74 -74 -74q-49 0 -76 60q-55 127 -195 127q-147 0 -234 -125t-87 -297v-410q0 -90 -71.5 -90t-71.5 90z" />
<glyph unicode="s" d="M223 236q0 29 21.5 47t50.5 18q45 0 72 -39q35 -49 64.5 -78.5t92 -55.5t148.5 -26q274 0 274 193q0 41 -22.5 69.5t-79 48t-95 28t-128.5 22.5q-76 12 -130.5 28.5t-110.5 46t-85 80t-29 119.5q0 145 114 226t269 81q123 0 208 -35.5t151 -123.5q23 -28 23 -58 q1 -31 -19 -51q-18 -18 -47 -18q-45 0 -76 47q-78 117 -240 117q-113 0 -176 -52.5t-63 -132.5q0 -27 9 -48t31.5 -37.5t44 -27t61.5 -19.5t64.5 -14t73.5 -13q82 -12 144.5 -30t124 -47.5t94.5 -77.5t33 -112q0 -156 -112 -243.5t-306 -87.5q-283 0 -422 188q-27 35 -27 68 z" />
<glyph unicode="t" d="M123 962.5q0 61.5 88 61.5h276v340q0 90 72 90t72 -90v-340h395q88 0 88 -61.5t-88 -61.5h-395v-598q0 -201 178 -201q74 0 115 16.5t92 55.5q25 18 47 19q25 0 41 -17.5t16 -42.5q0 -37 -39 -65q-68 -47 -131 -67.5t-157 -20.5q-141 0 -223.5 77.5t-82.5 227.5v616h-276 q-88 0 -88 61.5z" />
<glyph unicode="u" d="M238 389v545q0 90 71.5 90t71.5 -90v-522q0 -164 51 -237t176 -73q147 0 231.5 126t84.5 335v371q0 90 71.5 90t71.5 -90v-844q0 -90 -71.5 -90t-71.5 90v70q-41 -72 -133.5 -126t-194.5 -54q-180 0 -269 98t-89 311z" />
<glyph unicode="v" d="M176 954q0 31 20.5 50.5t49.5 19.5q55 0 82 -61l317 -721l318 721q27 61 81 61q29 0 49.5 -19.5t20.5 -50.5q0 -23 -10 -43l-397 -870q-19 -41 -62 -41t-61 41l-398 870q-10 20 -10 43z" />
<glyph unicode="w" d="M76 944q0 37 22.5 58.5t53.5 21.5q57 0 71 -68l158 -690l182 514q23 60 72 60h1q48 0 71 -60l182 -514l158 690q14 68 71 68q31 0 53.5 -21.5t22.5 -58.5q0 -10 -4 -31l-215 -847q-16 -66 -70 -66q-55 0 -78 63l-192 551l-193 -551q-22 -63 -77 -63q-53 0 -70 66 l-215 847q-4 20 -4 31z" />
<glyph unicode="x" d="M222 1006q18 18 48 18q39 0 68 -37l291 -364l291 364q29 37 67 37q31 0 48.5 -18.5t17.5 -47t-25 -59.5l-309 -387l309 -387q25 -31 25 -59.5t-17.5 -47t-48.5 -18.5q-39 0 -67 37l-291 362l-291 -362q-29 -37 -68 -37q-31 0 -48 18.5t-17 47t24 59.5l310 387l-310 387 q-25 30 -25 58q0 30 18 49z" />
<glyph unicode="y" d="M104 -350q0 31 18.5 47t47.5 16q12 0 40 -10t56 -10q96 0 158.5 80t142.5 262l-395 874q-6 18 -6 35q0 35 21.5 57.5t52.5 22.5q45 0 71 -57l332 -760l324 758q27 59 80 59q29 0 49 -19.5t20 -50.5q0 -20 -12 -49l-379 -848q-47 -106 -74.5 -162.5t-73 -129t-86 -108.5 t-100 -61.5t-129.5 -25.5q-158 0 -158 80z" />
<glyph unicode="z" d="M186 78q0 29 21 51l641 772h-543q-88 0 -88 61.5t88 61.5h641q86 0 86 -80q0 -31 -20 -53l-637 -768h590q88 0 88 -61.5t-88 -61.5h-693q-41 0 -63.5 21.5t-22.5 56.5z" />
<glyph unicode="{" d="M182 585.5q0 61.5 80 61.5q90 0 145.5 64.5t55.5 201.5v525q0 61 65 61h353q80 0 80 -61.5t-80 -61.5h-275v-481q0 -250 -186 -309q186 -59 186 -310v-481h275q80 0 80 -61.5t-80 -61.5h-353q-66 0 -65 62v524q0 137 -55.5 201.5t-145.5 64.5q-80 0 -80 61.5z" />
<glyph unicode="|" d="M563 -72v1577q0 35 20.5 58.5t51.5 23.5t51.5 -23.5t20.5 -58.5v-1577q0 -35 -20.5 -58.5t-51.5 -23.5t-51.5 23.5t-20.5 58.5z" />
<glyph unicode="}" d="M309 -266.5q0 61.5 80 61.5h275v481q0 250 186 310q-186 59 -186 309v481h-275q-80 0 -80 61.5t80 61.5h352q66 0 66 -61v-525q0 -137 55.5 -201.5t145.5 -64.5q79 0 79 -61.5t-79 -61.5q-90 0 -145.5 -64.5t-55.5 -201.5v-524q0 -61 -66 -62h-352q-80 0 -80 61.5z" />
<glyph unicode="~" d="M209 608q0 31 29 60q84 84 213 84q90 0 208.5 -57.5t186.5 -57.5q76 0 133 53q29 25 55 25q23 0 38 -15.5t15 -42.5q0 -31 -28 -59q-84 -84 -213 -84q-92 0 -211 57.5t-184 57.5q-77 -1 -134 -54q-27 -25 -55 -24q-23 0 -38 15.5t-15 41.5z" />
<glyph unicode="&#xa0;" />
<glyph unicode="&#xa1;" d="M487 897.5q0 63.5 42 105t105.5 41.5t105.5 -41.5t42 -105t-42 -105.5t-105.5 -42t-105.5 42t-42 105.5zM528 -293l31 778q4 109 76 109t76 -109l30 -778q-2 -53 -29.5 -85t-76.5 -32t-77 32t-30 85z" />
<glyph unicode="&#xa2;" d="M135 717q0 217 112.5 364.5t319.5 167.5v127q0 78 61.5 78t61.5 -78v-127q102 -8 168 -45t125 -98q39 -41 39 -80q0 -61 -61 -61q-35 0 -64 36q-100 125 -264 125q-174 0 -264 -113.5t-90 -295.5t90 -296t264 -114q164 0 264 125q29 37 64 37q61 0 61 -61q0 -39 -39 -80 q-59 -61 -124.5 -98t-168.5 -46v-127q0 -78 -61.5 -77.5t-61.5 77.5v127q-209 23 -320.5 170.5t-111.5 362.5zM567 418v598q25 8 60 8q39 0 63 -8v-598q-25 -8 -63 -8q-35 0 -60 8z" />
<glyph unicode="&#xa3;" d="M121 59q0 41 47 60q92 37 131 101.5t39 187.5v290h-84q-88 0 -88 61.5t88 61.5h84v248q0 184 91 278.5t237 94.5q211 0 309 -209q12 -29 12 -49q0 -35 -19.5 -52.5t-45.5 -17.5q-47 0 -70 55q-59 150 -186 150q-84 0 -134.5 -61.5t-50.5 -182.5v-254h224q88 0 88 -61.5 t-88 -61.5h-224v-286q0 -111 -27.5 -181.5t-103.5 -107.5h559v221q0 88 61.5 88t61.5 -88v-283q1 -61 -65 -61h-785q-61 0 -61 59z" />
<glyph unicode="&#xa4;" d="M190 451q0 33 37 65l52 51q-68 94 -68 217t68 217l-52 52q-37 33 -37 65q0 20 18.5 39t39.5 19q29 0 65 -37l52 -52q76 53 163 62v-113q-90 -16 -143 -87t-53 -165q0 -96 53 -165.5t143 -88.5v-112q-94 12 -163 63l-52 -51q-37 -37 -65 -37q-20 0 -39 18.5t-19 39.5z M635 418v112q88 18 142 88t54 166q0 94 -54 165t-142 87v113q84 -9 164 -62l51 52q37 37 65 37q20 0 39 -18.5t19 -39.5q0 -33 -37 -65l-51 -52q68 -94 67.5 -216.5t-67.5 -217.5l51 -51q37 -33 37 -65q0 -20 -18.5 -39t-39.5 -19q-29 0 -65 37l-51 51q-72 -51 -164 -63z " />
<glyph unicode="&#xa5;" d="M94.5 1360q-0.5 31 21 52.5t52.5 21.5q47 0 76 -45l391 -598l391 598q29 45 76 45q31 0 52.5 -21.5t21.5 -52.5t-21 -60l-358 -532h166q88 0 88 -63.5t-88 -63.5h-252v-201h252q88 0 88 -63.5t-88 -63.5h-252v-213q0 -100 -76 -100t-76 100v213h-252q-88 0 -88 63.5 t88 63.5h252v201h-252q-88 0 -88 63.5t88 63.5h166l-358 532q-20 29 -20.5 60z" />
<glyph unicode="&#xa6;" d="M563 -72v623q0 35 20.5 58.5t51.5 23.5t51.5 -23.5t20.5 -58.5v-623q0 -35 -20.5 -58.5t-51.5 -23.5t-51.5 23.5t-20.5 58.5zM563 883v622q0 35 20.5 58.5t51.5 23.5t51.5 -23.5t20.5 -58.5v-622q0 -35 -20.5 -58.5t-51.5 -23.5t-51.5 23.5t-20.5 58.5z" />
<glyph unicode="&#xa7;" d="M182.5 -167.5q-0.5 28.5 19 47t46.5 18.5q45 0 74 -50q96 -156 256 -155q98 0 157.5 60.5t59.5 168.5q0 100 -71 159.5t-210 121.5q-76 33 -118 55.5t-96 64.5t-79.5 96t-25.5 126q0 100 69 196q47 -51 107 -77q-33 -49 -33 -115q0 -84 61.5 -132.5t276.5 -148.5 q262 -121 262 -342q0 -182 -102.5 -269t-257.5 -87q-233 0 -375 205q-20 29 -20.5 57.5zM201 1098q0 182 102.5 269t257.5 87q233 0 375 -205q20 -29 20 -57.5t-19 -47t-46 -18.5q-45 0 -74 50q-96 156 -256 155q-98 0 -157.5 -60.5t-59.5 -168.5q0 -100 70.5 -159.5 t210.5 -121.5q76 -33 117.5 -55.5t96 -64.5t80 -96t25.5 -126q0 -100 -70 -196q-47 51 -106 77q33 49 33 115q0 84 -61.5 132.5t-276.5 148.5q-262 121 -262 342z" />
<glyph unicode="&#xa8;" d="M242 1718q0 43 29.5 74t74.5 31t75 -31t30 -74t-30 -73.5t-75 -30.5t-74.5 30.5t-29.5 73.5zM635 1718q0 43 29.5 74t74.5 31t75 -31t30 -74t-30 -73.5t-75 -30.5t-74.5 30.5t-29.5 73.5z" />
<glyph unicode="&#xa9;" d="M59 725q0 233 154 393t375 178v-112q-188 -16 -295 -147.5t-107 -311.5t106.5 -310t295.5 -147v-112q-221 18 -375 177t-154 392zM352 725q0 127 80 210t207 83q147 0 225 -90q18 -25 18.5 -45.5t-13 -33.5t-31.5 -13q-27 0 -41 22q-51 72 -158 72q-82 0 -133 -54.5 t-51 -150.5q0 -92 51 -146.5t133 -54.5q106 0 158 72q14 23 41 22q18 0 31.5 -14t13.5 -35q0 -18 -19 -43q-78 -90 -225 -90q-127 0 -207 83t-80 206zM690 156v112q188 16 296 146.5t108 310.5t-107.5 311t-296.5 148v112q221 -18 376 -179t155 -392t-155 -391t-376 -178z " />
<glyph unicode="&#xaa;" d="M250 1030q0 166 79 278.5t232 131.5v-107q-90 -18 -139 -98t-49 -205t49 -202.5t139 -98.5v-113q-145 16 -228 124t-83 290zM664 616v113q92 16 143 96t51 205q0 127 -51 208t-143 97v105q128 -15 198 -111v29q0 70 60 69q61 0 61 -69v-658q0 -70 -61 -69q-59 0 -60 69 v27q-57 -92 -198 -111z" />
<glyph unicode="&#xab;" d="M172 535q0 27 29 55l377 381q25 25 57 24q25 0 41 -16t16 -43q0 -29 -22 -51l-334 -350l334 -351q23 -23 22 -51q0 -27 -16.5 -43t-40.5 -16q-32 -1 -57 24l-377 381q-29 27 -29 56zM520 535q0 27 29 55l377 381q25 25 57 24q25 0 41 -16t16 -43q0 -29 -22 -51l-334 -350 l334 -351q23 -23 22 -51q0 -27 -16 -43t-41 -16q-32 -1 -57 24l-377 381q-29 27 -29 56z" />
<glyph unicode="&#xac;" d="M133 802.5q0 69.5 92 69.5h754q45 0 72.5 -25.5t27.5 -70.5v-346q0 -100 -75.5 -100t-75.5 100v303h-703q-92 0 -92 69.5z" />
<glyph unicode="&#xad;" d="M223 616.5q0 63.5 88 63.5h647q88 0 88.5 -63.5t-88.5 -63.5h-647q-88 0 -88 63.5z" />
<glyph unicode="&#xae;" d="M59 725q0 233 154 393t375 178v-112q-188 -16 -295 -147.5t-107 -311.5t106.5 -310t295.5 -147v-112q-221 18 -375 177t-154 392zM442 494v462q1 56 56 56h34v-518q0 -55 -47 -56q-43 0 -43 56zM598 676v74h88q109 0 109 94t-109 94h-88v74h100q90 0 138.5 -47t48.5 -121 q0 -125 -135 -162l129 -172q12 -14 12 -33q0 -16 -11.5 -27.5t-27.5 -11.5q-25 0 -43 25l-156 213h-55zM690 156v112q188 16 296 146.5t108 310.5t-107.5 311t-296.5 148v112q221 -18 376 -179t155 -392t-155 -391t-376 -178z" />
<glyph unicode="&#xaf;" d="M361 1720.5q0 61.5 90 61.5h303q90 0 90 -61.5t-90 -61.5h-303q-90 0 -90 61.5z" />
<glyph unicode="&#xb0;" d="M254 1134.5q0 122.5 70.5 206.5t189.5 101v-101q-66 -16 -103.5 -72t-37.5 -134q0 -76 38 -131.5t103 -71.5v-101q-119 14 -189.5 97.5t-70.5 206zM616 829v103q68 14 107 70.5t39 132.5q0 78 -39 134t-107 72v101q121 -14 193 -99.5t72 -208t-72 -206.5t-193 -99z" />
<glyph unicode="&#xb1;" d="M201 63.5q0 63.5 88 63.5h737q88 0 88 -63.5t-88 -63.5h-737q-88 0 -88 63.5zM201 804.5q0 63.5 88 63.5h305v306q0 88 63.5 88t63.5 -88v-306h305q88 0 88 -63.5t-88 -63.5h-305v-305q0 -88 -63.5 -88t-63.5 88v305h-305q-88 0 -88 63.5z" />
<glyph unicode="&#xb2;" d="M395 811v29q0 158 223 256q84 37 121 68.5t37 80.5t-34.5 79t-94.5 30q-55 0 -90 -34t-41 -87q-6 -55 -55 -55q-23 0 -37 15t-14 40q0 86 68.5 148.5t168.5 62.5q113 0 173.5 -56.5t60.5 -144.5q0 -76 -51.5 -128t-149.5 -97q-84 -39 -125 -76t-49 -90h346q55 0 55 -49 q0 -47 -55 -47h-403q-23 0 -38.5 16t-15.5 39z" />
<glyph unicode="&#xb3;" d="M389 958q0 55 49 56q51 0 56 -56q12 -123 131 -122q55 0 89 32t34 93q0 49 -31 81.5t-82 32.5h-19q-53 0 -53 45t53 45h15q96 0 96 99q0 37 -26.5 63.5t-75.5 26.5q-82 0 -107 -86q-10 -37 -38.5 -46.5t-49 10t-12.5 52.5q41 160 207 160q94 0 150 -51.5t56 -128.5 q0 -94 -90 -140q111 -41 111 -157q0 -94 -62.5 -158t-164.5 -64q-104 0 -170 61.5t-66 151.5z" />
<glyph unicode="&#xb4;" d="M410 1714q0 47 51 72l252 129q25 10 39 10q31 0 47 -17.5t16 -43.5q0 -45 -51 -72l-252 -129q-25 -10 -39 -10q-31 0 -47 17.5t-16 43.5z" />
<glyph unicode="&#xb5;" d="M238 -319v1253q0 90 71.5 90t71.5 -90v-522q0 -164 51 -237t176 -73q147 0 231.5 126t84.5 335v371q0 90 71.5 90t71.5 -90v-844q0 -90 -71.5 -90t-71.5 90v70q-41 -72 -133.5 -126t-194.5 -54q-133 0 -215 51v-350q0 -90 -71.5 -90.5t-71.5 90.5z" />
<glyph unicode="&#xb6;" d="M199 1106q0 135 95 231.5t230 96.5h551q92 0 92 -70t-92 -70h-18v-1345q0 -100 -76 -100.5t-76 100.5v1345h-229v-1345q0 -100 -76 -100.5t-76 100.5v829q-135 0 -230 96.5t-95 231.5z" />
<glyph unicode="&#xb7;" d="M487 614.5q0 63.5 42 105.5t105.5 42t105.5 -42t42 -105.5t-42 -105.5t-105.5 -42t-105.5 42t-42 105.5z" />
<glyph unicode="&#xb8;" d="M446 -428q1 23 9 41l77 201q23 55 72 55q27 0 44.5 -16.5t17.5 -47.5q0 -23 -9 -41l-77 -200q-23 -55 -72 -56q-27 0 -44.5 16.5t-17.5 47.5z" />
<glyph unicode="&#xb9;" d="M424 1253q0 20 27 41l161 111q45 29 66 29q41 0 41 -45v-570q0 -63 -49 -63t-49 63v481l-125 -79q-16 -10 -31 -11q-18 0 -29.5 12.5t-11.5 30.5z" />
<glyph unicode="&#xba;" d="M258 1030q0 166 83 278.5t234 131.5v-107q-92 -18 -143 -98t-51 -205q0 -127 51 -208t143 -97v-109q-152 18 -234.5 133t-82.5 281zM678 616v109q90 16 142 97t52 208q0 125 -51 205t-143 98v107q152 -18 234.5 -131t82.5 -279t-84 -280.5t-233 -133.5z" />
<glyph unicode="&#xbb;" d="M229 133q0 29 23 51l334 351l-334 350q-23 23 -23 51q0 27 16.5 43t41.5 16q33 0 57 -24l377 -381q29 -29 29 -55q0 -29 -29 -56l-377 -381q-25 -25 -57 -24q-25 0 -41.5 16t-16.5 43zM578 133q0 29 22 51l334 351l-334 350q-23 23 -22 51q0 27 16 43t41 16q33 0 57 -24 l377 -381q29 -29 29 -55q0 -29 -29 -56l-377 -381q-25 -25 -57 -24q-25 0 -41 16t-16 43z" />
<glyph unicode="&#xbc;" d="M117 1253q0 20 26 41l162 111q45 29 66 29q41 0 41 -45v-570q0 -63 -49.5 -63t-49.5 63v481l-125 -79q-16 -10 -30 -11q-18 0 -29.5 12.5t-11.5 30.5zM133 401q0 31 33 54l860 600q25 16 41 16q23 0 38 -18.5t15 -38.5q0 -33 -33 -56l-860 -602q-23 -14 -41 -14 q-23 0 -38 18.5t-15 40.5zM588 184q0 16 8 27l225 342v-160l-100 -155h100v-95h-188q-18 0 -31.5 11.5t-13.5 29.5zM891 78v575q23 23 51 23q20 0 33.5 -13.5t13.5 -33.5v-391h78q51 0 51 -47.5t-51 -47.5h-78v-65q0 -78 -49 -78t-49 78z" />
<glyph unicode="&#xbd;" d="M117 1253q0 20 26 41l162 111q45 29 66 29q41 0 41 -45v-570q0 -63 -49.5 -63t-49.5 63v481l-125 -79q-16 -10 -30 -11q-18 0 -29.5 12.5t-11.5 30.5zM133 401q0 31 33 54l860 600q25 16 41 16q23 0 38 -18.5t15 -38.5q0 -33 -33 -56l-860 -602q-23 -14 -41 -14 q-23 0 -38 18.5t-15 40.5zM662 55v29q0 158 223 256q84 37 120.5 68.5t36.5 81t-34.5 79t-94.5 29.5q-55 0 -90 -34t-41 -87q-6 -55 -55 -55q-23 0 -37 15.5t-14 39.5q0 86 68.5 148.5t168.5 62.5q113 0 173.5 -56.5t60.5 -144.5q0 -76 -51.5 -128t-149.5 -97 q-84 -39 -125 -75.5t-49 -90.5h346q55 0 56 -49q-1 -47 -56 -47h-403q-23 0 -38 16.5t-15 38.5z" />
<glyph unicode="&#xbe;" d="M59 958q0 55 50 56q51 0 55 -56q12 -123 131 -122q55 0 89 32t34 93q0 49 -31 81.5t-82 32.5h-18q-53 0 -53.5 45t53.5 45h14q96 0 96 99q0 37 -26.5 63.5t-75.5 26.5q-82 0 -107 -86q-10 -37 -38.5 -46.5t-49 10t-12.5 52.5q20 78 74.5 119t132.5 41q94 0 150.5 -51.5 t56.5 -128.5q0 -94 -90 -140q111 -41 110 -157q0 -94 -62.5 -158t-164.5 -64q-104 0 -170 61.5t-66 151.5zM133 401q0 31 33 54l860 600q25 16 41 16q23 0 38 -18.5t15 -38.5q0 -33 -33 -56l-860 -602q-23 -14 -41 -14q-23 0 -38 18.5t-15 40.5zM588 184q0 16 8 27l225 342 v-160l-100 -155h100v-95h-188q-18 0 -31.5 11.5t-13.5 29.5zM891 78v575q23 23 51 23q20 0 33.5 -13.5t13.5 -33.5v-391h78q51 0 51 -47.5t-51 -47.5h-78v-65q0 -78 -49 -78t-49 78z" />
<glyph unicode="&#xbf;" d="M254 -98q0 68 31.5 131t66.5 99t97 89q125 111 124 248q0 104 72 104t72 -104q0 -113 -50.5 -194.5t-138.5 -157.5q-131 -113 -131 -207q0 -106 63.5 -161.5t172.5 -55.5q115 0 180.5 65.5t69.5 159.5q4 78 71 78q72 0 72 -84q0 -135 -105.5 -238.5t-287.5 -103.5 q-168 0 -273.5 87t-105.5 245zM498 876.5q0 63.5 42 105.5t105.5 42t105.5 -42t42 -105.5t-42 -105.5t-105.5 -42t-105.5 42t-42 105.5z" />
<glyph unicode="&#xc0;" d="M100 78q0 16 6 39l394 1063l73 -205l-143 -404h289l49 -139h-389l-133 -375q-20 -57 -74 -57q-33 0 -52.5 21.5t-19.5 56.5zM432 1823q0 27 16.5 44t47.5 17q14 0 39 -10l251 -129q51 -25 52 -72q0 -27 -16.5 -44t-47.5 -17q-14 0 -39 10l-252 129q-51 27 -51 72z M563 1348l10 28q20 57 61.5 57.5t61.5 -57.5l467 -1259q6 -23 6 -39q0 -35 -19.5 -56.5t-51.5 -21.5q-54 0 -74 57z" />
<glyph unicode="&#xc1;" d="M100 78q0 16 6 39l394 1063l73 -205l-143 -404h289l49 -139h-389l-133 -375q-20 -57 -74 -57q-33 0 -52.5 21.5t-19.5 56.5zM432 1673q0 47 51 72l252 129q25 10 39 10q31 0 47.5 -17.5t16.5 -43.5q-1 -45 -52 -72l-251 -129q-25 -10 -39 -10q-31 0 -47.5 17.5 t-16.5 43.5zM563 1348l10 28q20 57 61.5 57.5t61.5 -57.5l467 -1259q6 -23 6 -39q0 -35 -19.5 -56.5t-51.5 -21.5q-54 0 -74 57z" />
<glyph unicode="&#xc2;" d="M100 78q0 16 6 39l394 1063l73 -205l-143 -404h289l49 -139h-389l-133 -375q-20 -57 -74 -57q-33 0 -52.5 21.5t-19.5 56.5zM348 1624q0 33 33 59l197 156q31 25 57.5 25t56.5 -25l197 -156q33 -27 33 -59q0 -63 -66 -63q-27 0 -45 16l-176 141l-176 -141 q-18 -16 -45 -16q-66 0 -66 63zM563 1348l10 28q20 57 61.5 57.5t61.5 -57.5l467 -1259q6 -23 6 -39q0 -35 -19.5 -56.5t-51.5 -21.5q-54 0 -74 57z" />
<glyph unicode="&#xc3;" d="M100 78q0 16 6 39l394 1063l73 -205l-143 -404h289l49 -139h-389l-133 -375q-20 -57 -74 -57q-33 0 -52.5 21.5t-19.5 56.5zM291 1669q0 29 22 53q88 94 195 95q63 0 105 -29t77 -57.5t82 -28.5q53 0 102 53q23 25 52 25q53 0 53 -54q0 -29 -23 -53q-88 -94 -194 -94 q-66 0 -107 28.5t-75.5 57.5t-81.5 29q-54 -1 -103 -54q-23 -25 -51 -24q-53 0 -53 53zM563 1348l10 28q20 57 61.5 57.5t61.5 -57.5l467 -1259q6 -23 6 -39q0 -35 -19.5 -56.5t-51.5 -21.5q-54 0 -74 57z" />
<glyph unicode="&#xc4;" d="M100 78q0 16 6 39l394 1063l73 -205l-143 -404h289l49 -139h-389l-133 -375q-20 -57 -74 -57q-33 0 -52.5 21.5t-19.5 56.5zM334 1677q0 43 29.5 74t74.5 31t75 -31t30 -74t-30 -73.5t-75 -30.5t-74.5 30.5t-29.5 73.5zM563 1348l10 28q20 57 61.5 57.5t61.5 -57.5 l467 -1259q6 -23 6 -39q0 -35 -19.5 -56.5t-51.5 -21.5q-54 0 -74 57zM727 1677q0 43 29.5 74t75 31t75 -31t29.5 -74t-29.5 -73.5t-75 -30.5t-75 30.5t-29.5 73.5z" />
<glyph unicode="&#xc5;" d="M100 78q0 16 6 39l394 1063l73 -205l-143 -404h289l49 -139h-389l-133 -375q-20 -57 -74 -57q-33 0 -52.5 21.5t-19.5 56.5zM426 1751q0 78 49 135.5t123 69.5v-94q-80 -23 -80 -111q0 -90 80 -113v-94q-76 14 -124 71.5t-48 135.5zM563 1348l10 28q20 57 61.5 57.5 t61.5 -57.5l467 -1259q6 -23 6 -39q0 -35 -19.5 -56.5t-51.5 -21.5q-54 0 -74 57zM672 1544v94q80 23 80 113q0 88 -80 111v94q74 -12 123 -69.5t49 -135.5t-49.5 -135t-122.5 -72z" />
<glyph unicode="&#xc6;" d="M39 82q0 10 4 35l295 1259q12 58 63 58h99l-303 -1358q-16 -76 -80 -76q-78 0 -78 82zM371 432l30 139h127v562l68 301h494q92 0 92 -70t-92 -70h-410v-487h330q92 0 92 -69.5t-92 -69.5h-330v-529h438q92 0 92 -69.5t-92 -69.5h-489q-45 0 -73 25.5t-28 70.5v336h-157z " />
<glyph unicode="&#xc7;" d="M125 717q0 332 147.5 534.5t423.5 202.5q133 0 230.5 -38t208.5 -150q35 -35 34 -72q0 -31 -21.5 -51.5t-51.5 -20.5q-35 0 -66 33q-76 90 -155.5 125t-178.5 35q-143 0 -240.5 -92.5t-136 -221.5t-38.5 -284.5t38.5 -284.5t136 -221t240.5 -92q98 0 178 34.5t156 125.5 q31 33 66 32q31 0 52 -20.5t21 -50.5q0 -37 -34 -72q-111 -113 -208.5 -150.5t-230.5 -37.5q-276 0 -423.5 202.5t-147.5 534.5zM553 -428q0 23 8 41l78 201q23 55 72 55q27 0 44 -16.5t17 -47.5q0 -23 -8 -41l-78 -200q-23 -55 -72 -56q-27 0 -44 16.5t-17 47.5z" />
<glyph unicode="&#xc8;" d="M164 96v1241q0 45 27.5 71t72.5 26h725q92 0 92 -70t-92 -70h-674v-487h498q92 0 92 -69.5t-92 -69.5h-498v-529h703q92 0 92 -69.5t-92 -69.5h-754q-45 0 -72.5 25.5t-27.5 70.5zM432 1823q0 27 16.5 44t47.5 17q14 0 39 -10l251 -129q51 -25 52 -72q0 -27 -16.5 -44 t-47.5 -17q-14 0 -39 10l-252 129q-51 27 -51 72z" />
<glyph unicode="&#xc9;" d="M164 96v1241q0 45 27.5 71t72.5 26h725q92 0 92 -70t-92 -70h-674v-487h498q92 0 92 -69.5t-92 -69.5h-498v-529h703q92 0 92 -69.5t-92 -69.5h-754q-45 0 -72.5 25.5t-27.5 70.5zM432 1673q0 47 51 72l252 129q25 10 39 10q31 0 47.5 -17.5t16.5 -43.5q-1 -45 -52 -72 l-251 -129q-25 -10 -39 -10q-31 0 -47.5 17.5t-16.5 43.5z" />
<glyph unicode="&#xca;" d="M164 96v1241q0 45 27.5 71t72.5 26h725q92 0 92 -70t-92 -70h-674v-487h498q92 0 92 -69.5t-92 -69.5h-498v-529h703q92 0 92 -69.5t-92 -69.5h-754q-45 0 -72.5 25.5t-27.5 70.5zM348 1624q0 33 33 59l197 156q31 25 57.5 25t56.5 -25l197 -156q33 -27 33 -59 q0 -63 -66 -63q-27 0 -45 16l-176 141l-176 -141q-18 -16 -45 -16q-66 0 -66 63z" />
<glyph unicode="&#xcb;" d="M164 96v1241q0 45 27.5 71t72.5 26h725q92 0 92 -70t-92 -70h-674v-487h498q92 0 92 -69.5t-92 -69.5h-498v-529h703q92 0 92 -69.5t-92 -69.5h-754q-45 0 -72.5 25.5t-27.5 70.5zM334 1677q0 43 29.5 74t74.5 31t75 -31t30 -74t-30 -73.5t-75 -30.5t-74.5 30.5 t-29.5 73.5zM727 1677q0 43 29.5 74t75 31t75 -31t29.5 -74t-29.5 -73.5t-75 -30.5t-75 30.5t-29.5 73.5z" />
<glyph unicode="&#xcc;" d="M227 69.5q0 69.5 92 69.5h240v1155h-240q-92 0 -92 70t92 70h631q92 0 92 -70t-92 -70h-239v-1155h239q92 0 92 -69.5t-92 -69.5h-631q-92 0 -92 69.5zM432 1823q0 27 16.5 44t47.5 17q14 0 39 -10l251 -129q51 -25 52 -72q0 -27 -16.5 -44t-47.5 -17q-14 0 -39 10 l-252 129q-51 27 -51 72z" />
<glyph unicode="&#xcd;" d="M227 69.5q0 69.5 92 69.5h240v1155h-240q-92 0 -92 70t92 70h631q92 0 92 -70t-92 -70h-239v-1155h239q92 0 92 -69.5t-92 -69.5h-631q-92 0 -92 69.5zM432 1673q0 47 51 72l252 129q25 10 39 10q31 0 47.5 -17.5t16.5 -43.5q-1 -45 -52 -72l-251 -129q-25 -10 -39 -10 q-31 0 -47.5 17.5t-16.5 43.5z" />
<glyph unicode="&#xce;" d="M227 69.5q0 69.5 92 69.5h240v1155h-240q-92 0 -92 70t92 70h631q92 0 92 -70t-92 -70h-239v-1155h239q92 0 92 -69.5t-92 -69.5h-631q-92 0 -92 69.5zM348 1624q0 33 33 59l197 156q31 25 57.5 25t56.5 -25l197 -156q33 -27 33 -59q0 -63 -66 -63q-27 0 -45 16l-176 141 l-176 -141q-18 -16 -45 -16q-66 0 -66 63z" />
<glyph unicode="&#xcf;" d="M227 69.5q0 69.5 92 69.5h240v1155h-240q-92 0 -92 70t92 70h631q92 0 92 -70t-92 -70h-239v-1155h239q92 0 92 -69.5t-92 -69.5h-631q-92 0 -92 69.5zM334 1677q0 43 29.5 74t74.5 31t75 -31t30 -74t-30 -73.5t-75 -30.5t-74.5 30.5t-29.5 73.5zM727 1677q0 43 29.5 74 t75 31t75 -31t29.5 -74t-29.5 -73.5t-75 -30.5t-75 30.5t-29.5 73.5z" />
<glyph unicode="&#xd0;" d="M10 716.5q0 69.5 92 69.5h91v551q0 45 27.5 71t72.5 26h51v-648h90q92 0 92 -69.5t-92 -69.5h-90v-647h-51q-45 0 -72.5 25.5t-27.5 70.5v551h-91q-92 0 -92 69.5zM459 0v139h176q127 0 214 86t122 211t35 280.5t-35 280.5t-122 211t-214 86h-176v140h170q254 0 393 -207 t139 -510t-139 -510t-393 -207h-170z" />
<glyph unicode="&#xd1;" d="M162 100v1233q0 43 21.5 72t62.5 29q51 0 88 -52l622 -1071v1022q0 100 76 100.5t76 -100.5v-1233q0 -43 -21.5 -71.5t-62.5 -28.5q-51 0 -88 51l-623 1071v-1022q0 -100 -75.5 -100t-75.5 100zM291 1669q0 29 22 53q88 94 195 95q63 0 105 -29t77 -57.5t82 -28.5 q53 0 102 53q23 25 52 25q53 0 53 -54q0 -29 -23 -53q-88 -94 -194 -94q-66 0 -107 28.5t-75.5 57.5t-81.5 29q-54 -1 -103 -54q-23 -25 -51 -24q-53 0 -53 53z" />
<glyph unicode="&#xd2;" d="M70 717q0 307 131 510t377 225v-139q-170 -25 -261.5 -187.5t-91.5 -408.5q0 -248 91.5 -410t261.5 -186v-139q-246 23 -377 224.5t-131 510.5zM432 1823q0 27 16.5 44t47.5 17q14 0 39 -10l251 -129q51 -25 52 -72q0 -27 -16.5 -44t-47.5 -17q-14 0 -39 10l-252 129 q-51 27 -51 72zM692 -18v139q170 25 261 186.5t91 409.5q0 246 -91 408.5t-261 187.5v139q246 -23 377 -225.5t131 -509.5q0 -309 -131 -511t-377 -224z" />
<glyph unicode="&#xd3;" d="M70 717q0 307 131 510t377 225v-139q-170 -25 -261.5 -187.5t-91.5 -408.5q0 -248 91.5 -410t261.5 -186v-139q-246 23 -377 224.5t-131 510.5zM432 1673q0 47 51 72l252 129q25 10 39 10q31 0 47.5 -17.5t16.5 -43.5q-1 -45 -52 -72l-251 -129q-25 -10 -39 -10 q-31 0 -47.5 17.5t-16.5 43.5zM692 -18v139q170 25 261 186.5t91 409.5q0 246 -91 408.5t-261 187.5v139q246 -23 377 -225.5t131 -509.5q0 -309 -131 -511t-377 -224z" />
<glyph unicode="&#xd4;" d="M70 717q0 307 131 510t377 225v-139q-170 -25 -261.5 -187.5t-91.5 -408.5q0 -248 91.5 -410t261.5 -186v-139q-246 23 -377 224.5t-131 510.5zM348 1624q0 33 33 59l197 156q31 25 57.5 25t56.5 -25l197 -156q33 -27 33 -59q0 -63 -66 -63q-27 0 -45 16l-176 141 l-176 -141q-18 -16 -45 -16q-66 0 -66 63zM692 -18v139q170 25 261 186.5t91 409.5q0 246 -91 408.5t-261 187.5v139q246 -23 377 -225.5t131 -509.5q0 -309 -131 -511t-377 -224z" />
<glyph unicode="&#xd5;" d="M70 717q0 307 131 510t377 225v-139q-170 -25 -261.5 -187.5t-91.5 -408.5q0 -248 91.5 -410t261.5 -186v-139q-246 23 -377 224.5t-131 510.5zM291 1669q0 29 22 53q88 94 195 95q63 0 105 -29t77 -57.5t82 -28.5q53 0 102 53q23 25 52 25q53 0 53 -54q0 -29 -23 -53 q-88 -94 -194 -94q-66 0 -107 28.5t-75.5 57.5t-81.5 29q-54 -1 -103 -54q-23 -25 -51 -24q-53 0 -53 53zM692 -18v139q170 25 261 186.5t91 409.5q0 246 -91 408.5t-261 187.5v139q246 -23 377 -225.5t131 -509.5q0 -309 -131 -511t-377 -224z" />
<glyph unicode="&#xd6;" d="M70 717q0 307 131 510t377 225v-139q-170 -25 -261.5 -187.5t-91.5 -408.5q0 -248 91.5 -410t261.5 -186v-139q-246 23 -377 224.5t-131 510.5zM334 1677q0 43 29.5 74t74.5 31t75 -31t30 -74t-30 -73.5t-75 -30.5t-74.5 30.5t-29.5 73.5zM692 -18v139q170 25 261 186.5 t91 409.5q0 246 -91 408.5t-261 187.5v139q246 -23 377 -225.5t131 -509.5q0 -309 -131 -511t-377 -224zM727 1677q0 43 29.5 74t75 31t75 -31t29.5 -74t-29.5 -73.5t-75 -30.5t-75 30.5t-29.5 73.5z" />
<glyph unicode="&#xd7;" d="M315 334q0 31 37 67l215 215l-215 215q-37 37 -37 68q0 25 16.5 42t43.5 17q30 1 67 -36l215 -215l215 215q37 37 68 36q27 0 43 -17t16 -42q0 -31 -36 -68l-215 -215l215 -215q37 -37 36 -67q0 -25 -16 -42.5t-43 -17.5q-31 0 -68 37l-215 215l-215 -215 q-37 -37 -67 -37q-27 0 -43.5 17.5t-16.5 42.5z" />
<glyph unicode="&#xd8;" d="M66 63q0 29 22 58l92 117q-110 192 -110 479q0 307 131 510t377 225v-139q-170 -25 -261.5 -187.5t-91.5 -408.5q0 -248 91.5 -410t261.5 -186v-139q-188 18 -314 145l-71 -92q-29 -35 -64 -35q-63 0 -63 63zM348 461l500 645q43 -51 72 -129l-500 -649q-45 57 -72 133z M692 -18v139q170 25 261 186.5t91 409.5q0 246 -91 408.5t-261 187.5v139q186 -18 312 -145l71 92q29 35 64 35q63 0 63 -64q0 -29 -22 -57l-93 -119q113 -197 113 -477q0 -309 -131 -511t-377 -224z" />
<glyph unicode="&#xd9;" d="M139 522v811q0 100 76 100.5t76 -100.5v-805q0 -215 90 -312t268 -97q176 0 265.5 97t89.5 312v805q0 100 75.5 100.5t75.5 -100.5v-805q0 -262 -132 -405t-373.5 -143t-376 143t-134.5 399zM432 1823q0 27 16.5 44t47.5 17q14 0 39 -10l251 -129q51 -25 52 -72 q0 -27 -16.5 -44t-47.5 -17q-14 0 -39 10l-252 129q-51 27 -51 72z" />
<glyph unicode="&#xda;" d="M139 522v811q0 100 76 100.5t76 -100.5v-805q0 -215 90 -312t268 -97q176 0 265.5 97t89.5 312v805q0 100 75.5 100.5t75.5 -100.5v-805q0 -262 -132 -405t-373.5 -143t-376 143t-134.5 399zM432 1673q0 47 51 72l252 129q25 10 39 10q31 0 47.5 -17.5t16.5 -43.5 q-1 -45 -52 -72l-251 -129q-25 -10 -39 -10q-31 0 -47.5 17.5t-16.5 43.5z" />
<glyph unicode="&#xdb;" d="M139 522v811q0 100 76 100.5t76 -100.5v-805q0 -215 90 -312t268 -97q176 0 265.5 97t89.5 312v805q0 100 75.5 100.5t75.5 -100.5v-805q0 -262 -132 -405t-373.5 -143t-376 143t-134.5 399zM362 1624q0 33 33 59l197 156q31 25 57.5 25t57.5 -25l196 -156q33 -27 33 -59 q0 -63 -66 -63q-27 0 -45 16l-176 141l-176 -141q-18 -16 -45 -16q-66 0 -66 63z" />
<glyph unicode="&#xdc;" d="M139 522v811q0 100 76 100.5t76 -100.5v-805q0 -215 90 -312t268 -97q176 0 265.5 97t89.5 312v805q0 100 75.5 100.5t75.5 -100.5v-805q0 -262 -132 -405t-373.5 -143t-376 143t-134.5 399zM334 1696q0 43 29.5 73.5t74.5 30.5t75 -30.5t30 -73.5t-30 -74t-75 -31 t-74.5 31t-29.5 74zM727 1696q0 43 29.5 73.5t75 30.5t75 -30.5t29.5 -73.5t-29.5 -74t-75 -31t-75 31t-29.5 74z" />
<glyph unicode="&#xdd;" d="M94.5 1360q-0.5 31 21 52.5t52.5 21.5q47 0 76 -45l391 -598l391 598q29 45 76 45q31 0 52.5 -21.5t21.5 -52.5t-21 -60l-444 -659v-541q0 -100 -76 -100t-76 100v541l-444 659q-20 29 -20.5 60zM432 1673q0 47 51 72l252 129q25 10 39 10q31 0 47.5 -17.5t16.5 -43.5 q-1 -45 -52 -72l-251 -129q-25 -10 -39 -10q-31 0 -47.5 17.5t-16.5 43.5z" />
<glyph unicode="&#xde;" d="M201 100v1233q0 100 75.5 100t75.5 -100v-1233q0 -100 -75.5 -100t-75.5 100zM467 285v139h289q129 0 195.5 79t66.5 214t-66.5 214t-195.5 79h-289v139h252q221 0 338 -111.5t117 -320.5q0 -207 -118 -319.5t-337 -112.5h-252z" />
<glyph unicode="&#xdf;" d="M84 962.5q0 61.5 88 61.5h141v14q0 205 113 310.5t268 105.5q162 0 262.5 -93t100.5 -263q0 -201 -152 -316q242 -106 242 -364q0 -201 -119 -309.5t-336 -108.5h-121v123h111q322 0 322 295q0 129 -82 203.5t-230 74.5h-121v123h105q111 0 174 71t63 193.5t-58 185 t-161 62.5q-109 0 -173 -73.5t-64 -206.5v-961q0 -90 -72 -90t-72 90v811h-141q-88 0 -88 61.5z" />
<glyph unicode="&#xe0;" d="M152 512q0 215 106.5 362.5t306.5 165.5v-122q-127 -20 -198.5 -130t-71.5 -276t71.5 -275.5t198.5 -130.5v-122q-193 16 -303 153t-110 375zM432 1434q0 27 16.5 44t47.5 17q14 0 39 -10l251 -129q51 -25 52 -72q0 -27 -16.5 -44t-47.5 -17q-14 0 -39 10l-252 129 q-51 27 -51 72zM672 -16v122q129 18 203.5 128t74.5 278t-74.5 277.5t-203.5 128.5v122q184 -22 278 -153v47q0 90 72 90t72 -90v-844q0 -90 -72 -90t-72 90v43q-37 -55 -112.5 -97t-165.5 -52z" />
<glyph unicode="&#xe1;" d="M152 512q0 215 106.5 362.5t306.5 165.5v-122q-127 -20 -198.5 -130t-71.5 -276t71.5 -275.5t198.5 -130.5v-122q-193 16 -303 153t-110 375zM432 1284q0 47 51 72l252 129q25 10 39 10q31 0 47.5 -17.5t16.5 -43.5q-1 -45 -52 -72l-251 -129q-25 -10 -39 -10 q-31 0 -47.5 17t-16.5 44zM672 -16v122q129 18 203.5 128t74.5 278t-74.5 277.5t-203.5 128.5v122q184 -22 278 -153v47q0 90 72 90t72 -90v-844q0 -90 -72 -90t-72 90v43q-37 -55 -112.5 -97t-165.5 -52z" />
<glyph unicode="&#xe2;" d="M152 512q0 215 106.5 362.5t306.5 165.5v-122q-127 -20 -198.5 -130t-71.5 -276t71.5 -275.5t198.5 -130.5v-122q-193 16 -303 153t-110 375zM348 1235q0 33 33 59l197 156q31 25 57.5 25t56.5 -25l197 -156q33 -27 33 -59q0 -63 -66 -64q-27 0 -45 17l-176 141 l-176 -141q-18 -16 -45 -17q-66 0 -66 64zM672 -16v122q129 18 203.5 128t74.5 278t-74.5 277.5t-203.5 128.5v122q184 -22 278 -153v47q0 90 72 90t72 -90v-844q0 -90 -72 -90t-72 90v43q-37 -55 -112.5 -97t-165.5 -52z" />
<glyph unicode="&#xe3;" d="M152 512q0 215 106.5 362.5t306.5 165.5v-122q-127 -20 -198.5 -130t-71.5 -276t71.5 -275.5t198.5 -130.5v-122q-193 16 -303 153t-110 375zM291 1300q0 29 22 54q88 94 195 94q63 0 105 -28.5t77 -57.5t82 -29q53 0 102 53q23 25 52 25q53 0 53 -53q0 -29 -23 -53 q-88 -94 -194 -95q-66 0 -107 29t-75.5 57.5t-81.5 28.5q-54 0 -103 -53q-23 -25 -51 -25q-53 0 -53 53zM672 -16v122q129 18 203.5 128t74.5 278t-74.5 277.5t-203.5 128.5v122q184 -22 278 -153v47q0 90 72 90t72 -90v-844q0 -90 -72 -90t-72 90v43q-37 -55 -112.5 -97 t-165.5 -52z" />
<glyph unicode="&#xe4;" d="M152 512q0 215 106.5 362.5t306.5 165.5v-122q-127 -20 -198.5 -130t-71.5 -276t71.5 -275.5t198.5 -130.5v-122q-193 16 -303 153t-110 375zM334 1288q0 43 29.5 74t74.5 31t75 -31t30 -74t-30 -73.5t-75 -30.5t-74.5 30.5t-29.5 73.5zM672 -16v122q129 18 203.5 128 t74.5 278t-74.5 277.5t-203.5 128.5v122q184 -22 278 -153v47q0 90 72 90t72 -90v-844q0 -90 -72 -90t-72 90v43q-37 -55 -112.5 -97t-165.5 -52zM727 1288q0 43 29.5 74t75 31t75 -31t29.5 -74t-29.5 -73.5t-75 -30.5t-75 30.5t-29.5 73.5z" />
<glyph unicode="&#xe5;" d="M152 512q0 215 106.5 362.5t306.5 165.5v-122q-127 -20 -198.5 -130t-71.5 -276t71.5 -275.5t198.5 -130.5v-122q-193 16 -303 153t-110 375zM416 1382.5q0 77.5 49 135t123 69.5v-94q-80 -23 -80 -111q0 -90 80 -112v-94q-76 14 -124 71.5t-48 135zM662 1176v94 q79 22 79 112q0 88 -79 111v94q74 -12 123 -69.5t49 -135t-49.5 -135t-122.5 -71.5zM672 -16v122q129 18 203.5 128t74.5 278t-74.5 277.5t-203.5 128.5v122q184 -22 278 -153v47q0 90 72 90t72 -90v-844q0 -90 -72 -90t-72 90v43q-37 -55 -112.5 -97t-165.5 -52z" />
<glyph unicode="&#xe6;" d="M86 272q0 137 94 213t252 93v-127q-94 -14 -148.5 -60.5t-54.5 -118.5q0 -80 43 -119.5t103 -39.5q153 -1 153 194v348q0 250 -151 250q-96 0 -152 -135q-20 -47 -63 -47q-27 0 -47.5 20.5t-20.5 51.5q0 18 4 28q35 102 112 161.5t167 59.5q152 0 237 -141 q76 115 193 137v-139q-129 -33 -135 -319h135v-127h-135v-101q0 -109 49 -175t131 -66q106 0 190 145q29 47 72 47q27 0 45.5 -20.5t18.5 -51.5q0 -39 -25 -73q-59 -88 -125.5 -134t-175.5 -46q-86 0 -151.5 38.5t-98.5 96.5q-78 -135 -235 -135q-129 0 -205 72.5t-76 219.5 zM901 455v127h143q-16 281 -143 319v139q141 -20 216 -151t75 -332q0 -102 -92 -102h-199z" />
<glyph unicode="&#xe7;" d="M152 512q0 233 129.5 382.5t367.5 149.5q129 0 206 -36.5t144 -106.5q39 -41 39 -80q0 -61 -61 -61q-35 0 -64 37q-100 125 -264 125q-174 0 -264 -114t-90 -296t90 -296t264 -114q164 0 264 125q29 37 64 37q61 0 61 -61q0 -39 -39 -80q-68 -70 -144.5 -106.5 t-205.5 -36.5q-238 0 -367.5 149.5t-129.5 382.5zM512 -428q0 23 8 41l78 201q23 55 72 55q27 0 44 -16.5t17 -47.5q0 -23 -8 -41l-78 -200q-23 -55 -72 -56q-27 0 -44 16.5t-17 47.5z" />
<glyph unicode="&#xe8;" d="M152 512q0 201 123.5 354.5t320.5 173.5v-122q-121 -20 -200 -117.5t-93 -218.5h293v-123h-297q6 -141 100.5 -249t241.5 -108q215 0 340 142q27 33 66 32q27 0 47 -19t20 -48q0 -35 -31 -64q-98 -94 -199.5 -129.5t-234.5 -35.5q-227 0 -362 154.5t-135 377.5zM432 1434 q0 27 16.5 44t47.5 17q14 0 39 -10l251 -129q51 -25 52 -72q0 -27 -16.5 -44t-47.5 -17q-14 0 -39 10l-252 129q-51 27 -51 72zM702 459v123h285q-20 135 -92 226t-193 110v122q190 -18 309 -157.5t119 -341.5q0 -82 -90 -82h-338z" />
<glyph unicode="&#xe9;" d="M152 512q0 201 123.5 354.5t320.5 173.5v-122q-121 -20 -200 -117.5t-93 -218.5h293v-123h-297q6 -141 100.5 -249t241.5 -108q215 0 340 142q27 33 66 32q27 0 47 -19t20 -48q0 -35 -31 -64q-98 -94 -199.5 -129.5t-234.5 -35.5q-227 0 -362 154.5t-135 377.5zM432 1284 q0 47 51 72l252 129q25 10 39 10q31 0 47.5 -17.5t16.5 -43.5q-1 -45 -52 -72l-251 -129q-25 -10 -39 -10q-31 0 -47.5 17t-16.5 44zM702 459v123h285q-20 135 -92 226t-193 110v122q190 -18 309 -157.5t119 -341.5q0 -82 -90 -82h-338z" />
<glyph unicode="&#xea;" d="M152 512q0 201 123.5 354.5t320.5 173.5v-122q-121 -20 -200 -117.5t-93 -218.5h293v-123h-297q6 -141 100.5 -249t241.5 -108q215 0 340 142q27 33 66 32q27 0 47 -19t20 -48q0 -35 -31 -64q-98 -94 -199.5 -129.5t-234.5 -35.5q-227 0 -362 154.5t-135 377.5zM348 1235 q0 33 33 59l197 156q31 25 57.5 25t56.5 -25l197 -156q33 -27 33 -59q0 -63 -66 -64q-27 0 -45 17l-176 141l-176 -141q-18 -16 -45 -17q-66 0 -66 64zM702 459v123h285q-20 135 -92 226t-193 110v122q190 -18 309 -157.5t119 -341.5q0 -82 -90 -82h-338z" />
<glyph unicode="&#xeb;" d="M152 512q0 201 123.5 354.5t320.5 173.5v-122q-121 -20 -200 -117.5t-93 -218.5h293v-123h-297q6 -141 100.5 -249t241.5 -108q215 0 340 142q27 33 66 32q27 0 47 -19t20 -48q0 -35 -31 -64q-98 -94 -199.5 -129.5t-234.5 -35.5q-227 0 -362 154.5t-135 377.5zM334 1288 q0 43 29.5 74t74.5 31t75 -31t30 -74t-30 -73.5t-75 -30.5t-74.5 30.5t-29.5 73.5zM702 459v123h285q-20 135 -92 226t-193 110v122q190 -18 309 -157.5t119 -341.5q0 -82 -90 -82h-338zM727 1288q0 43 29.5 74t75 31t75 -31t29.5 -74t-29.5 -73.5t-75 -30.5t-75 30.5 t-29.5 73.5z" />
<glyph unicode="&#xec;" d="M225 61.5q0 61.5 88 61.5h322v778h-244q-88 0 -88 61.5t88 61.5h322q66 0 65 -61v-840h309q88 0 88.5 -61.5t-88.5 -61.5h-774q-88 0 -88 61.5zM432 1434q0 27 16.5 44t47.5 17q14 0 39 -10l251 -129q51 -25 52 -72q0 -27 -16.5 -44t-47.5 -17q-14 0 -39 10l-252 129 q-51 27 -51 72z" />
<glyph unicode="&#xed;" d="M225 61.5q0 61.5 88 61.5h322v778h-244q-88 0 -88 61.5t88 61.5h322q66 0 65 -61v-840h309q88 0 88.5 -61.5t-88.5 -61.5h-774q-88 0 -88 61.5zM432 1284q0 47 51 72l252 129q25 10 39 10q31 0 47.5 -17.5t16.5 -43.5q-1 -45 -52 -72l-251 -129q-25 -10 -39 -10 q-31 0 -47.5 17t-16.5 44z" />
<glyph unicode="&#xee;" d="M225 61.5q0 61.5 88 61.5h322v778h-244q-88 0 -88 61.5t88 61.5h322q66 0 65 -61v-840h309q88 0 88.5 -61.5t-88.5 -61.5h-774q-88 0 -88 61.5zM348 1235q0 33 33 59l197 156q31 25 57.5 25t56.5 -25l197 -156q33 -27 33 -59q0 -63 -66 -64q-27 0 -45 17l-176 141 l-176 -141q-18 -16 -45 -17q-66 0 -66 64z" />
<glyph unicode="&#xef;" d="M225 61.5q0 61.5 88 61.5h322v778h-244q-88 0 -88 61.5t88 61.5h322q66 0 65 -61v-840h309q88 0 88.5 -61.5t-88.5 -61.5h-774q-88 0 -88 61.5zM334 1288q0 43 29.5 74t74.5 31t75 -31t30 -74t-30 -73.5t-75 -30.5t-74.5 30.5t-29.5 73.5zM727 1288q0 43 29.5 74t75 31 t75 -31t29.5 -74t-29.5 -73.5t-75 -30.5t-75 30.5t-29.5 73.5z" />
<glyph unicode="&#xf0;" d="M160 512q0 215 110.5 362.5t309.5 165.5v-122q-125 -20 -199 -130t-74 -276t74 -274.5t199 -131.5v-122q-199 18 -309.5 164.5t-110.5 363.5zM369 1182q-1 47 77 63l193 39q-72 45 -125 70q-63 29 -63 78q0 25 20.5 42t50.5 17q33 0 64 -16q131 -68 227 -154l133 27 q25 4 35 4q29 0 48.5 -17.5t19.5 -46.5q0 -47 -78 -63l-58 -13q193 -252 193 -680v-20q0 -217 -110.5 -363.5t-309.5 -164.5v122q125 23 198.5 131.5t73.5 274.5t-74.5 275.5t-197.5 130.5v122q137 -14 223 -88q-49 129 -147 230l-291 -60q-25 -4 -35 -4q-29 0 -48 17.5 t-19 46.5z" />
<glyph unicode="&#xf1;" d="M233 90v844q0 90 72 90t72 -90v-70q41 72 133 126t195 54q180 0 269 -98t89 -311v-545q0 -90 -71.5 -90t-71.5 90v522q0 164 -51.5 237t-176.5 73q-147 0 -231 -126t-84 -335v-371q0 -90 -72 -90t-72 90zM291 1300q0 29 22 54q88 94 195 94q63 0 105 -28.5t77 -57.5 t82 -29q53 0 102 53q23 25 52 25q53 0 53 -53q0 -29 -23 -53q-88 -94 -194 -95q-66 0 -107 29t-75.5 57.5t-81.5 28.5q-54 0 -103 -53q-23 -25 -51 -25q-53 0 -53 53z" />
<glyph unicode="&#xf2;" d="M160 512q0 217 110.5 363.5t309.5 164.5v-122q-125 -23 -201 -132.5t-76 -273.5t76 -273.5t201 -132.5v-122q-199 18 -309.5 164.5t-110.5 363.5zM432 1434q0 27 16.5 44t47.5 17q14 0 39 -10l251 -129q51 -25 52 -72q0 -27 -16.5 -44t-47.5 -17q-14 0 -39 10l-252 129 q-51 27 -51 72zM686 -16v122q125 23 201 132.5t76 273.5t-76 273.5t-201 132.5v122q199 -18 309.5 -164.5t110.5 -363.5t-110.5 -363.5t-309.5 -164.5z" />
<glyph unicode="&#xf3;" d="M160 512q0 217 110.5 363.5t309.5 164.5v-122q-125 -23 -201 -132.5t-76 -273.5t76 -273.5t201 -132.5v-122q-199 18 -309.5 164.5t-110.5 363.5zM432 1284q0 47 51 72l252 129q25 10 39 10q31 0 47.5 -17.5t16.5 -43.5q-1 -45 -52 -72l-251 -129q-25 -10 -39 -10 q-31 0 -47.5 17t-16.5 44zM686 -16v122q125 23 201 132.5t76 273.5t-76 273.5t-201 132.5v122q199 -18 309.5 -164.5t110.5 -363.5t-110.5 -363.5t-309.5 -164.5z" />
<glyph unicode="&#xf4;" d="M160 512q0 217 110.5 363.5t309.5 164.5v-122q-125 -23 -201 -132.5t-76 -273.5t76 -273.5t201 -132.5v-122q-199 18 -309.5 164.5t-110.5 363.5zM348 1235q0 33 33 59l197 156q31 25 57.5 25t56.5 -25l197 -156q33 -27 33 -59q0 -63 -66 -64q-27 0 -45 17l-176 141 l-176 -141q-18 -16 -45 -17q-66 0 -66 64zM686 -16v122q125 23 201 132.5t76 273.5t-76 273.5t-201 132.5v122q199 -18 309.5 -164.5t110.5 -363.5t-110.5 -363.5t-309.5 -164.5z" />
<glyph unicode="&#xf5;" d="M160 512q0 217 110.5 363.5t309.5 164.5v-122q-125 -23 -201 -132.5t-76 -273.5t76 -273.5t201 -132.5v-122q-199 18 -309.5 164.5t-110.5 363.5zM291 1300q0 29 22 54q88 94 195 94q63 0 105 -28.5t77 -57.5t82 -29q53 0 102 53q23 25 52 25q53 0 53 -53q0 -29 -23 -53 q-88 -94 -194 -95q-66 0 -107 29t-75.5 57.5t-81.5 28.5q-54 0 -103 -53q-23 -25 -51 -25q-53 0 -53 53zM686 -16v122q125 23 201 132.5t76 273.5t-76 273.5t-201 132.5v122q199 -18 309.5 -164.5t110.5 -363.5t-110.5 -363.5t-309.5 -164.5z" />
<glyph unicode="&#xf6;" d="M160 512q0 217 110.5 363.5t309.5 164.5v-122q-125 -23 -201 -132.5t-76 -273.5t76 -273.5t201 -132.5v-122q-199 18 -309.5 164.5t-110.5 363.5zM334 1288q0 43 29.5 74t74.5 31t75 -31t30 -74t-30 -73.5t-75 -30.5t-74.5 30.5t-29.5 73.5zM686 -16v122 q125 23 201 132.5t76 273.5t-76 273.5t-201 132.5v122q199 -18 309.5 -164.5t110.5 -363.5t-110.5 -363.5t-309.5 -164.5zM727 1288q0 43 29.5 74t75 31t75 -31t29.5 -74t-29.5 -73.5t-75 -30.5t-75 30.5t-29.5 73.5z" />
<glyph unicode="&#xf7;" d="M178 616.5q0 63.5 88 63.5h738q88 0 88 -63.5t-88 -63.5h-738q-88 0 -88 63.5zM487 241.5q0 63.5 42 105.5t105.5 42t105.5 -42t42 -105.5t-42 -105.5t-105.5 -42t-105.5 42t-42 105.5zM487 991.5q0 63.5 42 105.5t105.5 42t105.5 -42t42 -105.5t-42 -105.5t-105.5 -42 t-105.5 42t-42 105.5z" />
<glyph unicode="&#xf8;" d="M160 512q0 217 109.5 363.5t310.5 164.5v-122q-125 -23 -201 -132.5t-76 -273.5t76 -273.5t201 -132.5v-122q-127 12 -213 71l-17 -20q-27 -35 -63 -35q-63 0 -64 63q0 27 23 58l20 29q-106 143 -106 362zM426 354l326 422q59 -38 88 -106l-326 -424q-57 35 -88 108z M686 -16v122q125 20 201 131t76 275t-76 273.5t-201 132.5v122q119 -12 213 -73l16 22q27 35 64 35q63 0 63 -63q0 -27 -22 -58l-23 -29q109 -143 109 -362q0 -215 -110.5 -362.5t-309.5 -165.5z" />
<glyph unicode="&#xf9;" d="M238 389v545q0 90 71.5 90t71.5 -90v-522q0 -164 51 -237t176 -73q147 0 231.5 126t84.5 335v371q0 90 71.5 90t71.5 -90v-844q0 -90 -71.5 -90t-71.5 90v70q-41 -72 -133.5 -126t-194.5 -54q-180 0 -269 98t-89 311zM432 1434q0 27 16.5 44t47.5 17q14 0 39 -10 l251 -129q51 -25 52 -72q0 -27 -16.5 -44t-47.5 -17q-14 0 -39 10l-252 129q-51 27 -51 72z" />
<glyph unicode="&#xfa;" d="M238 389v545q0 90 71.5 90t71.5 -90v-522q0 -164 51 -237t176 -73q147 0 231.5 126t84.5 335v371q0 90 71.5 90t71.5 -90v-844q0 -90 -71.5 -90t-71.5 90v70q-41 -72 -133.5 -126t-194.5 -54q-180 0 -269 98t-89 311zM432 1284q0 47 51 72l252 129q25 10 39 10 q31 0 47.5 -17.5t16.5 -43.5q-1 -45 -52 -72l-251 -129q-25 -10 -39 -10q-31 0 -47.5 17t-16.5 44z" />
<glyph unicode="&#xfb;" d="M238 389v545q0 90 71.5 90t71.5 -90v-522q0 -164 51 -237t176 -73q147 0 231.5 126t84.5 335v371q0 90 71.5 90t71.5 -90v-844q0 -90 -71.5 -90t-71.5 90v70q-41 -72 -133.5 -126t-194.5 -54q-180 0 -269 98t-89 311zM356 1235q0 33 33 59l197 156q31 25 57.5 25 t56.5 -25l197 -156q33 -27 33 -59q0 -63 -66 -64q-27 0 -45 17l-176 141l-176 -141q-18 -16 -45 -17q-66 0 -66 64z" />
<glyph unicode="&#xfc;" d="M238 389v545q0 90 71.5 90t71.5 -90v-522q0 -164 51 -237t176 -73q147 0 231.5 126t84.5 335v371q0 90 71.5 90t71.5 -90v-844q0 -90 -71.5 -90t-71.5 90v70q-41 -72 -133.5 -126t-194.5 -54q-180 0 -269 98t-89 311zM334 1288q0 43 29.5 74t74.5 31t75 -31t30 -74 t-30 -73.5t-75 -30.5t-74.5 30.5t-29.5 73.5zM727 1288q0 43 29.5 74t75 31t75 -31t29.5 -74t-29.5 -73.5t-75 -30.5t-75 30.5t-29.5 73.5z" />
<glyph unicode="&#xfd;" d="M104 -350q0 31 18.5 47t47.5 16q12 0 40 -10t56 -10q96 0 158.5 80t142.5 262l-395 874q-6 18 -6 35q0 35 21.5 57.5t52.5 22.5q45 0 71 -57l332 -760l324 758q27 59 80 59q29 0 49 -19.5t20 -50.5q0 -20 -12 -49l-379 -848q-47 -106 -74.5 -162.5t-73 -129t-86 -108.5 t-100 -61.5t-129.5 -25.5q-158 0 -158 80zM432 1284q0 47 51 72l252 129q25 10 39 10q31 0 47.5 -17.5t16.5 -43.5q-1 -45 -52 -72l-251 -129q-25 -10 -39 -10q-31 0 -47.5 17t-16.5 44z" />
<glyph unicode="&#xfe;" d="M178 -319v1662q0 90 72 90t72 -90v-456q98 133 266 153v-122q-129 -20 -197.5 -129t-68.5 -277t69.5 -277.5t196.5 -128.5v-122q-86 10 -159 52t-107 97v-452q0 -90 -72 -90.5t-72 90.5zM694 -16v122q123 23 189.5 131.5t66.5 274.5t-66.5 275.5t-189.5 130.5v122 q199 -18 299.5 -164.5t100.5 -363.5q0 -240 -105.5 -376t-294.5 -152z" />
<glyph unicode="&#xff;" d="M104 -350q0 31 18.5 47t47.5 16q12 0 40 -10t56 -10q96 0 158.5 80t142.5 262l-395 874q-6 18 -6 35q0 35 21.5 57.5t52.5 22.5q45 0 71 -57l332 -760l324 758q27 59 80 59q29 0 49 -19.5t20 -50.5q0 -20 -12 -49l-379 -848q-47 -106 -74.5 -162.5t-73 -129t-86 -108.5 t-100 -61.5t-129.5 -25.5q-158 0 -158 80zM346 1288q0 43 30 74t75 31t74.5 -31t29.5 -74t-29.5 -73.5t-74.5 -30.5t-75 30.5t-30 73.5zM739 1288q0 43 30 74t75 31t74.5 -31t29.5 -74t-29.5 -73.5t-74.5 -30.5t-75 30.5t-30 73.5z" />
<glyph unicode="&#x152;" d="M70 716.5q0 282.5 109.5 471t320.5 233.5v-139q-137 -43 -206 -191.5t-69 -373.5q0 -227 68.5 -375.5t206.5 -189.5v-140q-211 47 -320.5 234.5t-109.5 470zM614 0v1434h490q92 0 92 -70t-92 -70h-338v-487h231q92 0 92.5 -69.5t-92.5 -69.5h-231v-529h360 q92 0 92.5 -69.5t-92.5 -69.5h-512z" />
<glyph unicode="&#x153;" d="M152 512q0 176 85 310t236 190v-140q-80 -51 -127 -146t-47 -214q0 -160 78 -269.5t203 -136.5v932q37 6 75 6q35 0 72 -6v-456h266q-31 203 -159 290v140q139 -53 221 -179t82 -292q0 -82 -90 -82h-320v-353q156 20 260 138q33 35 68 35q27 0 46 -19.5t19 -48.5 q0 -37 -30 -66q-98 -94 -200 -129.5t-235 -35.5q-227 0 -365 152.5t-138 379.5z" />
<glyph unicode="&#x178;" d="M94.5 1360q-0.5 31 21 52.5t52.5 21.5q47 0 76 -45l391 -598l391 598q29 45 76 45q31 0 52.5 -21.5t21.5 -52.5t-21 -60l-444 -659v-541q0 -100 -76 -100t-76 100v541l-444 659q-20 29 -20.5 60zM334 1698q0 43 29.5 73.5t74.5 30.5t75 -30.5t30 -73.5t-30 -74t-75 -31 t-74.5 31t-29.5 74zM727 1698q0 43 29.5 73.5t75 30.5t75 -30.5t29.5 -73.5t-29.5 -74t-75 -31t-75 31t-29.5 74z" />
<glyph unicode="&#x2c6;" d="M328 1645q0 33 32 59l197 156q31 25 57.5 24.5t57.5 -24.5l196 -156q33 -27 33 -59q0 -63 -65 -64q-27 0 -45 16l-177 142l-176 -142q-18 -16 -45 -16q-66 0 -65 64z" />
<glyph unicode="&#x2dc;" d="M289 1710q0 29 22 53q88 94 195 95q63 0 105 -29t77 -57.5t82 -28.5q53 0 102 53q23 25 52 25q53 0 53 -54q0 -29 -23 -53q-88 -94 -194 -94q-66 0 -107 28.5t-75.5 57.5t-81.5 29q-54 -1 -103 -54q-23 -25 -51 -24q-53 0 -53 53z" />
<glyph unicode="&#x2000;" horiz-adv-x="978" />
<glyph unicode="&#x2001;" horiz-adv-x="1956" />
<glyph unicode="&#x2002;" horiz-adv-x="978" />
<glyph unicode="&#x2003;" horiz-adv-x="1956" />
<glyph unicode="&#x2004;" horiz-adv-x="652" />
<glyph unicode="&#x2005;" horiz-adv-x="489" />
<glyph unicode="&#x2006;" horiz-adv-x="326" />
<glyph unicode="&#x2007;" horiz-adv-x="326" />
<glyph unicode="&#x2008;" horiz-adv-x="244" />
<glyph unicode="&#x2009;" horiz-adv-x="391" />
<glyph unicode="&#x200a;" horiz-adv-x="108" />
<glyph unicode="&#x2010;" d="M223 616.5q0 63.5 88 63.5h647q88 0 88.5 -63.5t-88.5 -63.5h-647q-88 0 -88 63.5z" />
<glyph unicode="&#x2011;" d="M223 616.5q0 63.5 88 63.5h647q88 0 88.5 -63.5t-88.5 -63.5h-647q-88 0 -88 63.5z" />
<glyph unicode="&#x2012;" d="M223 616.5q0 63.5 88 63.5h647q88 0 88.5 -63.5t-88.5 -63.5h-647q-88 0 -88 63.5z" />
<glyph unicode="&#x2013;" d="M201 616.5q0 63.5 88 63.5h737q88 0 88 -63.5t-88 -63.5h-737q-88 0 -88 63.5z" />
<glyph unicode="&#x2014;" d="M98 616.5q0 63.5 88 63.5h897q88 0 88 -63.5t-88 -63.5h-897q-88 0 -88 63.5z" />
<glyph unicode="&#x2018;" d="M453 920v14q0 139 64.5 249.5t154.5 155.5q29 14 59 15q51 0 51 -47q0 -33 -43 -50q-119 -47 -118 -135q0 -29 10 -43t41 -30q76 -43 76 -129q0 -61 -42 -104.5t-108 -43.5q-63 0 -104 43t-41 105z" />
<glyph unicode="&#x2019;" d="M453 819q0 33 43 49q119 47 118 136q0 29 -10 43t-41 30q-76 43 -76 129q0 61 42 104.5t108 43.5q63 0 104 -43t41 -105v-14q0 -139 -64.5 -250t-154.5 -156q-29 -14 -59 -14q-51 0 -51 47z" />
<glyph unicode="&#x201a;" d="M432 -240q0 33 43 50q119 47 119 135q0 29 -10 43t-41 30q-76 43 -76 129q0 61 42 104.5t107 43.5q63 0 104.5 -43t41.5 -105v-14q0 -139 -64.5 -249.5t-154.5 -155.5q-29 -14 -60 -15q-51 0 -51 47z" />
<glyph unicode="&#x201c;" d="M289 920v14q0 139 64.5 249.5t154.5 155.5q29 14 59 15q51 0 51 -47q0 -33 -43 -50q-119 -47 -118 -135q0 -29 10 -43t41 -30q76 -43 76 -129q0 -61 -42 -104.5t-108 -43.5q-63 0 -104 43t-41 105zM664 920v14q0 139 64.5 249.5t154.5 155.5q29 14 59 15q51 0 51 -47 q0 -33 -43 -50q-119 -47 -119 -135q0 -29 10.5 -43t41.5 -30q76 -43 75 -129q0 -61 -42 -104.5t-107 -43.5q-63 0 -104 43t-41 105z" />
<glyph unicode="&#x201d;" d="M289 819q0 33 43 49q119 47 119 136q0 29 -10.5 43t-41.5 30q-76 43 -75 129q0 61 42 104.5t107 43.5q63 0 104 -43t41 -105v-14q0 -139 -64.5 -250t-154.5 -156q-29 -14 -59 -14q-51 0 -51 47zM664 819q0 33 43 49q119 47 118 136q0 29 -10 43t-41 30q-76 43 -76 129 q0 61 42 104.5t108 43.5q63 0 104 -43t41 -105v-14q0 -139 -64.5 -250t-154.5 -156q-29 -14 -59 -14q-51 0 -51 47z" />
<glyph unicode="&#x201e;" d="M289 -240q0 33 43 50q119 47 119 135q0 29 -10.5 43t-41.5 30q-76 43 -75 129q0 61 42 104.5t107 43.5q63 0 104 -43t41 -105v-14q0 -139 -64.5 -249.5t-154.5 -155.5q-29 -14 -59 -15q-51 0 -51 47zM664 -240q0 33 43 50q119 47 118 135q0 29 -10 43t-41 30 q-76 43 -76 129q0 61 42 104.5t108 43.5q63 0 104 -43t41 -105v-14q0 -139 -64.5 -249.5t-154.5 -155.5q-29 -14 -59 -15q-51 0 -51 47z" />
<glyph unicode="&#x2022;" d="M420 614.5q0 94.5 64.5 159t158.5 64.5t158.5 -64.5t64.5 -159t-64.5 -159t-158.5 -64.5t-158.5 64.5t-64.5 159z" />
<glyph unicode="&#x2026;" d="M45 147.5q0 63.5 42 105.5t105.5 42t105.5 -42t42 -105.5t-42 -105.5t-105.5 -42t-105.5 42t-42 105.5zM487 147.5q0 63.5 42 105.5t105.5 42t105.5 -42t42 -105.5t-42 -105.5t-105.5 -42t-105.5 42t-42 105.5zM930 147.5q0 63.5 42 105.5t105.5 42t105.5 -42t42 -105.5 t-42 -105.5t-105.5 -42t-105.5 42t-42 105.5z" />
<glyph unicode="&#x202f;" horiz-adv-x="391" />
<glyph unicode="&#x2039;" d="M315 535q0 27 29 55l377 381q25 25 57 24q25 0 41.5 -16t16.5 -43q0 -29 -23 -51l-334 -350l334 -351q23 -23 23 -51q0 -27 -16.5 -43t-41.5 -16q-32 -1 -57 24l-377 381q-29 27 -29 56z" />
<glyph unicode="&#x203a;" d="M434 133q0 29 23 51l334 351l-334 350q-23 23 -23 51q0 27 16.5 43t41.5 16q33 0 57 -24l377 -381q29 -29 28 -55q1 -29 -28 -56l-377 -381q-25 -25 -57 -24q-25 0 -41.5 16t-16.5 43z" />
<glyph unicode="&#x205f;" horiz-adv-x="489" />
<glyph unicode="&#x20ac;" d="M82 555q0 63 88 63h606q88 0 88 -63t-88 -63h-606q-88 0 -88 63zM82 878.5q0 63.5 88 63.5h606q88 0 88 -63.5t-88 -63.5h-606q-88 0 -88 63.5zM254 477v479q0 231 128 364.5t341 133.5q256 0 385 -213q20 -45 5 -74.5t-55 -28.5t-65 40q-51 80 -109.5 114.5t-160.5 34.5 q-164 0 -243 -97t-79 -259v-508q0 -162 79 -259.5t243 -97.5q102 0 160.5 35t109.5 115q25 39 65 40t55 -28.5t-5 -74.5q-129 -213 -385 -213q-213 0 -341 133t-128 364z" />
<glyph unicode="&#x2122;" d="M53 1393q0 41 47 41h418q47 0 47 -41t-47 -41h-162v-604q0 -51 -47 -51.5t-47 51.5v604h-162q-47 0 -47 41zM674 748v636q0 49 45 50q27 0 41 -25l176 -340l176 340q14 25 41 25q18 0 31.5 -13.5t13.5 -36.5v-636q0 -51 -47 -51.5t-47 51.5v456l-123 -237 q-14 -27 -45 -27t-45 27l-123 237v-456q0 -51 -47 -51.5t-47 51.5z" />
<glyph unicode="&#x25fc;" horiz-adv-x="1025" d="M0 0v1025h1025v-1025h-1025z" />
<glyph unicode="&#xfb01;" d="M92 962.5q0 61.5 88 61.5h133v70q0 172 93.5 266t240.5 94q180 0 305 -98q39 -31 35 -70t-38 -48t-72 15q-98 78 -220 78q-92 0 -146 -65.5t-54 -190.5v-51h495q66 0 66 -61v-873q0 -90 -72 -90t-72 90v811h-417v-811q0 -90 -72 -90t-72 90v811h-133q-88 0 -88 61.5z" />
<glyph unicode="&#xfb02;" d="M92 962.5q0 61.5 88 61.5h133v41q0 193 96.5 281t252.5 88h290q66 0 66 -62v-1282q0 -90 -72 -90t-72 90v1221h-217q-96 0 -148 -57.5t-52 -194.5v-35h155q86 0 86 -61.5t-86 -61.5h-155v-811q0 -90 -72 -90t-72 90v811h-133q-88 0 -88 61.5z" />
</font>
</defs>
</svg>
