<svg xmlns="http://www.w3.org/2000/svg" width="199.777" height="188.855" viewBox="0 0 199.777 188.855"><path fill="#fff" d="M155.358 62.55H123.28c-.685 1.566-1.468 3.054-2.402 4.43h33.358c.417-1.454.81-2.93 1.122-4.43M152.748 71.412h-35.646c-1.873 1.8-3.962 3.243-6.193 4.424h39.96c.692-1.448 1.318-2.91 1.878-4.424M47.345 75.835h39.968c-2.232-1.18-4.333-2.623-6.186-4.424H45.48c.56 1.515 1.193 2.977 1.865 4.425M155.124 44.84H127.11c-.633 1.377-1.018 2.878-1.194 4.425h30.41c-.184-1.547-.556-3.048-1.202-4.425M141.134 35.985c-4.268 0-8.118 1.69-10.91 4.432h21.8c-2.787-2.74-6.636-4.432-10.89-4.432M156.37 53.702h-30.91c-.137 1.514-.353 2.99-.712 4.424h31.276c.176-1.462.287-2.942.346-4.424M73.492 58.125c-.366-1.434-.575-2.91-.718-4.424H41.87c.065 1.483.177 2.963.353 4.425h31.27zM44.004 66.98H77.36c-.938-1.376-1.72-2.863-2.406-4.43H42.888c.3 1.5.7 2.976 1.116 4.43M137.284 93.885c.136-.118.272-.222.417-.347.745-.633 1.567-1.2 2.233-1.912.782-.782 1.507-1.67 2.243-2.518H131.8c-2.387-1.664-4.92-3.12-7.555-4.412h21.43c1.018-1.435 1.977-2.923 2.87-4.437H111.73c-4.065-.914-8.268-1.45-12.607-1.45-4.332 0-8.547.536-12.606 1.45H49.675c.887 1.513 1.84 3 2.858 4.436H74c-2.635 1.292-5.18 2.748-7.568 4.412H56.017c.745.848 1.468 1.736 2.25 2.518.7.712 1.51 1.28 2.253 1.912.143.125.287.23.417.347-.86.77-1.846 1.422-2.67 2.23-10.276 10.5-16.527 24.94-16.527 40.64 0 8.32 6.865 15.01 15.367 15.01 8.496 0 15.38-6.69 15.38-15.01.02-7.922 3.14-14.916 8.052-19.875 4.92-5.052 11.386-7.936 18.583-7.936 7.172 0 13.625 2.884 18.565 7.936 4.914 4.96 8.046 11.953 8.046 19.875 0 8.32 6.91 15.01 15.4 15.01 8.476 0 15.372-6.69 15.372-15.01 0-15.7-6.29-30.14-16.573-40.64-.797-.808-1.8-1.46-2.65-2.23M57.107 35.985c-4.274 0-8.124 1.69-10.904 4.432h21.82c-2.792-2.74-6.648-4.432-10.916-4.432M71.117 44.84H43.11c-.64 1.377-1.004 2.878-1.2 4.425h30.42c-.182-1.547-.56-3.048-1.213-4.425"/><path fill="none" stroke="#fff" stroke-width="3" d="M198.277 144.51c0 13.108-17.246 24.75-31.753 26.035-16.65 10.35-40.352 16.81-66.648 16.81s-49.972-6.46-66.67-16.81C18.727 169.26 1.5 157.62 1.5 144.51V44.36c0-13.104 17.227-24.74 31.7-26.024C49.88 7.96 73.58 1.5 99.876 1.5s50.01 6.46 66.663 16.836c14.49 1.285 31.737 12.92 31.737 26.023v100.15z"/></svg>